<?xml version="1.0" standalone="no"?>
<!DOCTYPE svg PUBLIC "-//W3C//DTD SVG 1.1//EN" "http://www.w3.org/Graphics/SVG/1.1/DTD/svg11.dtd" >
<svg xmlns="http://www.w3.org/2000/svg" xmlns:xlink="http://www.w3.org/1999/xlink" version="1.1">
<metadata>
Created by FontForge 20160407 at Tue Aug 30 13:51:54 2016
 By Jimmy Warting
Copyright 2012 Petro'leo Brasileiro S.A. - PETROBRAS. Modification of this file requires prior written permission from Petro'leo Brasileiro S.A. - PETROBRAS.
</metadata>
<defs>
<font id="PetrobrasSans-Regular" horiz-adv-x="357" >
  <font-face 
    font-family="Petrobras Sans"
    font-weight="400"
    font-stretch="normal"
    units-per-em="1000"
    panose-1="2 11 6 6 2 2 4 3 2 4"
    ascent="798"
    descent="-202"
    x-height="498"
    cap-height="730"
    bbox="-204 -240 1051 978"
    underline-thickness="80"
    underline-position="-180"
    unicode-range="U+0008-FB04"
  />
<missing-glyph horiz-adv-x="500" 
d="M50 0v750h400v-750h-400zM100 50h300v650h-300v-650z" />
    <glyph glyph-name="emdash" unicode="&#x2d;&#x2d;&#x2d;" horiz-adv-x="1000" 
d="M0 246v74h1000v-74h-1000z" />
    <glyph glyph-name="f_f" unicode="ff" horiz-adv-x="770" 
d="M106 0v427h-89v53l89 17v67q0 82 44 127t120 45q27 0 54 -4.5t46 -10.5v-59q-14 1 -35.5 2t-35.5 1q-24 0 -43 -4t-32 -15t-19.5 -32t-6.5 -55v-61h152v-71h-152v-427h-92zM501 0v427h-89v53l89 17v67q0 82 44 127t120 45q27 0 54 -4.5t46 -10.5v-59q-14 1 -35.5 2
t-35.5 1q-24 0 -43 -4t-32 -15t-19.5 -32t-6.5 -55v-61h152v-71h-152v-427h-92z" />
    <glyph glyph-name="f_i" unicode="fi" horiz-adv-x="609" 
d="M106 0v427h-89v53l89 17v67q0 82 44 127t120 45q27 0 54 -4.5t46 -10.5v-59q-14 1 -35.5 2t-35.5 1q-24 0 -43 -4t-32 -15t-19.5 -32t-6.5 -55v-61h152v-71h-152v-427h-92zM443 0v498h92v-498h-92zM490 600q-29 0 -43 15t-14 42q0 59 57 59q29 0 42.5 -15t13.5 -42
q0 -59 -56 -59z" />
    <glyph glyph-name="f_l" unicode="fl" horiz-adv-x="632" 
d="M106 0v427h-89v53l89 17v67q0 82 44 127t120 45q27 0 54 -4.5t46 -10.5v-59q-14 1 -35.5 2t-35.5 1q-24 0 -43 -4t-32 -15t-19.5 -32t-6.5 -55v-61h152v-71h-152v-427h-92zM609 1q-14 -3 -26.5 -4t-25.5 -1q-50 0 -79 25.5t-29 85.5v623h92v-618q0 -33 12 -45.5t42 -12.5
h14v-53z" />
    <glyph glyph-name="f_f_i" unicode="ffi" horiz-adv-x="1004" 
d="M106 0v427h-89v53l89 17v67q0 82 44 127t120 45q27 0 54 -4.5t46 -10.5v-59q-14 1 -35.5 2t-35.5 1q-24 0 -43 -4t-32 -15t-19.5 -32t-6.5 -55v-61h152v-71h-152v-427h-92zM501 0v427h-89v53l89 17v67q0 82 44 127t120 45q27 0 54 -4.5t46 -10.5v-59q-14 1 -35.5 2
t-35.5 1q-24 0 -43 -4t-32 -15t-19.5 -32t-6.5 -55v-61h152v-71h-152v-427h-92zM838 0v498h92v-498h-92zM885 600q-29 0 -43 15t-14 42q0 59 57 59q29 0 42.5 -15t13.5 -42q0 -59 -56 -59z" />
    <glyph glyph-name="f_f_l" unicode="ffl" horiz-adv-x="1027" 
d="M106 0v427h-89v53l89 17v67q0 82 44 127t120 45q27 0 54 -4.5t46 -10.5v-59q-14 1 -35.5 2t-35.5 1q-24 0 -43 -4t-32 -15t-19.5 -32t-6.5 -55v-61h152v-71h-152v-427h-92zM501 0v427h-89v53l89 17v67q0 82 44 127t120 45q27 0 54 -4.5t46 -10.5v-59q-14 1 -35.5 2
t-35.5 1q-24 0 -43 -4t-32 -15t-19.5 -32t-6.5 -55v-61h152v-71h-152v-427h-92zM1004 1q-14 -3 -26.5 -4t-25.5 -1q-50 0 -79 25.5t-29 85.5v623h92v-618q0 -33 12 -45.5t42 -12.5h14v-53z" />
    <glyph glyph-name=".notdef" horiz-adv-x="500" 
d="M50 0v750h400v-750h-400zM100 50h300v650h-300v-650z" />
    <glyph glyph-name=".null" horiz-adv-x="0" 
 />
    <glyph glyph-name=".null" horiz-adv-x="0" 
 />
    <glyph glyph-name=".null" horiz-adv-x="0" 
 />
    <glyph glyph-name="nonmarkingreturn" unicode="&#x9;" horiz-adv-x="210" 
 />
    <glyph glyph-name="nonmarkingreturn" unicode="&#xd;" horiz-adv-x="210" 
 />
    <glyph glyph-name="space" unicode=" " horiz-adv-x="210" 
 />
    <glyph glyph-name="exclam" unicode="!" horiz-adv-x="260" 
d="M87 192l-7 538h100l-7 -538h-86zM130 -5q-29 0 -43 16t-14 43q0 28 14 44t43 16t43 -16t14 -44q0 -27 -14 -43t-43 -16z" />
    <glyph glyph-name="quotedbl" unicode="&#x22;" horiz-adv-x="361" 
d="M72 504l-11 145q-1 10 -1.5 17t-0.5 14q0 20 8.5 35t35.5 15t35.5 -15t8.5 -35q0 -7 -0.5 -14t-1.5 -17l-11 -145h-62zM229 504l-11 145q-1 10 -1.5 17t-0.5 14q0 20 8.5 35t35.5 15t35.5 -15t8.5 -35q0 -7 -0.5 -14t-1.5 -17l-11 -145h-62z" />
    <glyph glyph-name="numbersign" unicode="#" horiz-adv-x="534" 
d="M52 0l37 189h-61v68h75l40 206h-66v68h80l37 189h73l-37 -189h139l37 189h74l-37 -189h63v-68h-77l-40 -206h68v-68h-82l-37 -189h-74l37 189h-139l-37 -189h-73zM176 257h139l40 206h-139z" />
    <glyph glyph-name="dollar" unicode="$" horiz-adv-x="534" 
d="M228 -115v112q-46 2 -89.5 11t-75.5 19v60q41 -6 84.5 -10t81.5 -4q35 0 62.5 5t46 19t28.5 39t10 65q0 31 -6.5 51.5t-21.5 34t-39.5 23t-60.5 17.5l-26 6q-38 9 -68.5 22t-52.5 35t-34 53.5t-12 77.5q0 90 45 141t130 60v113h83v-113q36 -4 69.5 -11t62.5 -15v-61
q-37 5 -78 9.5t-80 4.5q-32 0 -58 -4.5t-44.5 -17.5t-28.5 -36t-10 -60q0 -32 7.5 -52t23.5 -32.5t39 -20.5t55 -16l27 -7q41 -11 72.5 -24.5t53 -36t32.5 -55t11 -80.5q0 -94 -41 -143t-116 -63v-116h-82z" />
    <glyph glyph-name="percent" unicode="%" horiz-adv-x="747" 
d="M128 0l407 720h84l-407 -720h-84zM511 79q19 -26 54 -26t53.5 26t18.5 95q0 70 -18.5 96t-53.5 26t-53.5 -26t-18.5 -96q0 -69 18 -95zM565 -9q-75 0 -109 47t-34 136q0 90 34 137t109 47t109 -47t34 -137q0 -89 -34 -136t-109 -47zM128 449q19 -26 54 -26t53.5 26
t18.5 95q0 70 -18.5 96t-53.5 26t-53.5 -26t-18.5 -96q0 -69 18 -95zM182 361q-75 0 -109 47t-34 136q0 90 34 137t109 47t109 -47t34 -137q0 -89 -34 -136t-109 -47z" />
    <glyph glyph-name="ampersand" unicode="&#x26;" horiz-adv-x="640" 
d="M510 0l-33 46q-77 -57 -184 -57q-249 0 -249 228q0 94 40.5 146.5t111.5 69.5q-28 40 -43 77t-15 75q0 73 46.5 114.5t140.5 41.5q42 0 72 -7t61 -18v-63q-29 3 -56.5 6t-65.5 3q-53 0 -81.5 -17.5t-28.5 -62.5q0 -38 19 -70t43 -65l197 -273q11 26 16.5 55t5.5 64v85h79
v-94q0 -54 -13.5 -98.5t-38.5 -79.5l77 -106h-101zM238 376q-48 -8 -76.5 -42.5t-28.5 -113.5q0 -88 42.5 -122.5t124.5 -34.5q81 0 134 42z" />
    <glyph glyph-name="quotesingle" unicode="'" horiz-adv-x="202" 
d="M70 504l-11 145q-1 10 -1.5 17t-0.5 14q0 20 8.5 35t35.5 15t35.5 -15t8.5 -35q0 -7 -0.5 -14t-1.5 -17l-11 -145h-62z" />
    <glyph glyph-name="parenleft" unicode="(" horiz-adv-x="316" 
d="M202 -95q-62 81 -96.5 190t-34.5 246t34.5 246t96.5 190h97q-33 -50 -57.5 -98t-40 -99t-23.5 -109.5t-8 -129.5t8 -129.5t23.5 -109.5t40 -99t57.5 -98h-97z" />
    <glyph glyph-name="parenright" unicode=")" horiz-adv-x="316" 
d="M18 -95q33 50 57.5 98t40 99t23.5 109.5t8 129.5t-8 129.5t-23.5 109.5t-40 99t-57.5 98h97q62 -81 96.5 -190t34.5 -246t-34.5 -246t-96.5 -190h-97z" />
    <glyph glyph-name="asterisk" unicode="*" horiz-adv-x="390" 
d="M72 478l-31 54l110 54l-110 54l31 54l98 -65l-6 55q-1 8 -2 19t-1 14q0 16 7 24.5t27 8.5t27 -8.5t7 -24.5q0 -3 -1 -14t-2 -19l-6 -55l98 65l31 -54l-110 -54l110 -54l-31 -54l-98 65l6 -55q1 -8 2 -19t1 -14q0 -16 -7 -24.5t-27 -8.5t-27 8.5t-7 24.5q0 3 1 14t2 19
l6 55z" />
    <glyph glyph-name="plus" unicode="+" horiz-adv-x="534" 
d="M229 155v170h-162v73h162v165h75v-165h162v-73h-162v-170h-75z" />
    <glyph glyph-name="comma" unicode="," horiz-adv-x="230" 
d="M40 -119l31 175q5 26 16 40.5t36 14.5q21 0 31.5 -10.5t10.5 -27.5q0 -8 -2 -16.5t-5 -17.5l-57 -158h-61z" />
    <glyph glyph-name="hyphen" unicode="-" horiz-adv-x="434" 
d="M58 245v76h318v-76h-318z" />
    <glyph glyph-name="period" unicode="." horiz-adv-x="230" 
d="M115 -5q-29 0 -43 16t-14 43q0 28 14 44t43 16t43 -16t14 -44q0 -27 -14 -43t-43 -16z" />
    <glyph glyph-name="slash" unicode="/" horiz-adv-x="432" 
d="M17 -47l303 824h95l-303 -824h-95z" />
    <glyph glyph-name="zero" unicode="0" horiz-adv-x="534" 
d="M156 13q-43 23 -68.5 69.5t-36 115t-10.5 160.5q0 93 11.5 162.5t38 116t70.5 70t109 23.5q64 0 107 -23.5t69 -69.5t36.5 -115.5t10.5 -160.5q0 -93 -11.5 -162.5t-38 -116t-70.5 -69.5t-109 -23t-108 23zM163 133q16 -34 41 -48.5t62 -14.5t62.5 14.5t41.5 48t23 89
t7 137.5t-7 138t-23 90t-41 48.5t-62 14.5t-62.5 -14.5t-41 -48.5t-22.5 -89t-7 -137q0 -83 7 -138.5t22 -89.5z" />
    <glyph glyph-name="one" unicode="1" horiz-adv-x="534" 
d="M257 0v632l-165 -36v66l141 46q18 6 37 10t43 4h38v-722h-94z" />
    <glyph glyph-name="two" unicode="2" horiz-adv-x="534" 
d="M68 0v125q0 55 10.5 94.5t33 69.5t56 53t80.5 43l25 11q32 14 53.5 27.5t34 28.5t17.5 33.5t5 42.5q0 37 -10 60t-28 36t-43.5 17.5t-56.5 4.5q-40 0 -86 -5t-77 -11v65q37 11 82 22t102 11q47 0 85 -10t65 -33t42 -60t15 -90q0 -44 -10 -75.5t-30 -54.5t-49.5 -41
t-68.5 -35l-25 -11q-38 -17 -63.5 -34.5t-41.5 -39.5t-22.5 -50.5t-6.5 -67.5v-48h318v-78h-406z" />
    <glyph glyph-name="three" unicode="3" horiz-adv-x="534" 
d="M54 85q17 -3 38.5 -6t44.5 -5t46 -3t42 -1q39 0 69.5 6t51.5 21t32 40.5t11 65.5q0 34 -8 58.5t-27.5 40.5t-52.5 24t-82 8h-66v64l210 247h-304v74h401v-70l-210 -245q120 -2 175 -50t55 -151q0 -101 -57.5 -157.5t-183.5 -56.5q-52 0 -102 10.5t-83 21.5v64z" />
    <glyph glyph-name="four" unicode="4" horiz-adv-x="534" 
d="M30 199v71l311 450h80v-447h80v-74h-80v-199h-87v199h-304zM117 273h217v313z" />
    <glyph glyph-name="five" unicode="5" horiz-adv-x="534" 
d="M80 82q37 -6 81.5 -10t77.5 -4q39 0 67 7t46 23.5t27 44t9 68.5q0 34 -7.5 60.5t-26 44.5t-51.5 27t-84 9q-20 0 -54 -1.5t-70 -6.5l25 375h319v-75h-244l-15 -224q19 2 41 3.5t45 1.5q115 0 164 -55t49 -154q0 -53 -12.5 -95t-39.5 -71t-70 -45t-104 -16q-53 0 -96 10
t-77 20v63z" />
    <glyph glyph-name="six" unicode="6" horiz-adv-x="534" 
d="M455 643q-27 4 -56.5 6t-55.5 2q-51 0 -85.5 -14t-56 -45t-32.5 -80.5t-14 -119.5q23 22 58 34.5t80 12.5q95 0 146 -56.5t51 -164.5q0 -48 -11.5 -89.5t-36.5 -72t-65.5 -48t-98.5 -17.5q-61 0 -102.5 20.5t-66.5 61.5t-35.5 103t-10.5 145q0 212 65 309.5t196 97.5
q31 0 63.5 -5.5t67.5 -16.5v-63zM186 110q34 -45 96 -45q58 0 88 35t30 124q0 31 -6 57t-20.5 45t-38.5 29.5t-61 10.5q-61 0 -91 -27t-30 -75q0 -108 33 -154z" />
    <glyph glyph-name="seven" unicode="7" horiz-adv-x="534" 
d="M151 0l236 639h-339v80h431v-66l-233 -653h-95z" />
    <glyph glyph-name="eight" unicode="8" horiz-adv-x="534" 
d="M455 442q-23 -39 -65 -61q48 -23 75 -68.5t27 -111.5q0 -54 -16.5 -93.5t-46 -65.5t-71 -39t-91.5 -13t-91.5 13t-71 39t-46 65.5t-16.5 93.5q0 66 27.5 110t73.5 65q-44 22 -66 64.5t-22 99.5q0 97 56 143.5t157 46.5q100 0 155.5 -46.5t55.5 -143.5q0 -58 -24 -98z
M141 133q12 -27 31.5 -43t43.5 -22.5t50 -6.5q25 0 50 6.5t44 22.5t31 43t12 68q0 33 -7 59t-22.5 44t-41.5 27.5t-65 9.5t-65.5 -9.5t-42 -27.5t-22.5 -44t-7 -59q0 -41 11 -68zM151 471q11 -24 28.5 -37.5t40.5 -18.5t48 -5t48 5.5t40 19.5t27 38.5t10 62.5q0 61 -27.5 92
t-98.5 31t-98.5 -31t-27.5 -92q0 -40 10 -65z" />
    <glyph glyph-name="nine" unicode="9" horiz-adv-x="534" 
d="M79 76q29 -4 62 -6t55 -2q51 0 85 13.5t54.5 44t30.5 80t13 121.5q-23 -22 -58 -34.5t-80 -12.5q-95 0 -146 56.5t-51 165.5q0 48 11.5 89.5t36.5 72t65.5 47.5t98.5 17q61 0 102.5 -20.5t66.5 -62t35.5 -104.5t10.5 -147q0 -205 -57.5 -304t-184.5 -99q-38 0 -80 7
t-70 15v63zM161 392q15 -19 40 -29t64 -10q64 0 90 30t26 96q0 81 -33.5 128t-95.5 47q-56 0 -87 -34.5t-31 -119.5q0 -35 6 -62t21 -46z" />
    <glyph glyph-name="colon" unicode=":" horiz-adv-x="230" 
d="M115 387q-29 0 -43 16t-14 43q0 28 14 44t43 16t43 -16t14 -44q0 -27 -14 -43t-43 -16zM115 -5q-29 0 -43 16t-14 43q0 28 14 44t43 16t43 -16t14 -44q0 -27 -14 -43t-43 -16z" />
    <glyph glyph-name="semicolon" unicode=";" horiz-adv-x="230" 
d="M40 -119l31 175q5 26 16 40.5t36 14.5q21 0 31.5 -10.5t10.5 -27.5q0 -8 -2 -16.5t-5 -17.5l-57 -158h-61zM115 387q-29 0 -43 16t-14 43q0 28 14 44t43 16t43 -16t14 -44q0 -27 -14 -43t-43 -16z" />
    <glyph glyph-name="less" unicode="&#x3c;" horiz-adv-x="534" 
d="M83 323v66l368 168v-80l-283 -121l283 -121v-80z" />
    <glyph glyph-name="equal" unicode="=" horiz-adv-x="534" 
d="M76 227v73h382v-73h-382zM76 423v73h382v-73h-382z" />
    <glyph glyph-name="greater" unicode="&#x3e;" horiz-adv-x="534" 
d="M83 155v80l283 121l-283 121v80l368 -168v-66z" />
    <glyph glyph-name="question" unicode="?" horiz-adv-x="461" 
d="M151 192v44q0 46 7 76.5t20 51t29.5 33.5t36.5 25l13 8q19 12 32 21.5t21 21t11.5 26.5t3.5 38q0 36 -8.5 59.5t-26.5 37.5t-46 20t-67 6q-40 0 -80 -4.5t-72 -9.5v66q38 11 81 20t97 9q105 0 161 -44t56 -143q0 -37 -7.5 -63.5t-21.5 -46.5t-34 -36t-46 -32l-14 -9
q-18 -12 -30 -22.5t-19.5 -24t-10.5 -32t-3 -45.5v-51h-83zM193 -5q-29 0 -43 15.5t-14 42.5q0 29 14 45t43 16t43.5 -16t14.5 -44t-14.5 -43.5t-43.5 -15.5z" />
    <glyph glyph-name="at" unicode="@" horiz-adv-x="906" 
d="M655 -147q-34 -9 -77.5 -17t-106.5 -8q-107 0 -184 27.5t-126.5 80t-73 128.5t-23.5 174q0 97 23 176t72.5 135t126.5 86.5t185 30.5q105 0 176.5 -28.5t116 -81t64 -125.5t19.5 -163q0 -55 -7.5 -101.5t-26.5 -81t-50 -54t-79 -19.5q-39 0 -71.5 15.5t-45.5 55.5
q-7 -11 -18 -22.5t-26.5 -21t-37.5 -15.5t-50 -6q-86 0 -129.5 57t-43.5 165q0 112 45 165.5t129 53.5q43 0 73 -14.5t52 -42.5l5 47h65v-307q0 -37 13.5 -53.5t43.5 -16.5q20 0 35.5 8.5t26 29.5t15.5 58t5 94q0 73 -11 134.5t-44 106.5t-92 70.5t-155 25.5
q-173 0 -250 -88t-77 -271q0 -91 19 -156t60.5 -107t108 -62t161.5 -20q50 0 94 4t71 7v-53zM552 268q0 33 -8.5 56t-23.5 37t-35 20t-43 6q-50 0 -73.5 -31.5t-23.5 -112.5q0 -45 6.5 -74t19.5 -46t32 -24t44 -7q46 0 75.5 25t29.5 90v61z" />
    <glyph glyph-name="A" unicode="A" horiz-adv-x="622" 
d="M20 0l235 730h111l236 -730h-104l-58 192h-265l-58 -192h-97zM197 271h223l-112 374z" />
    <glyph glyph-name="B" unicode="B" horiz-adv-x="607" 
d="M82 0v730h231q115 0 168 -44t53 -141q0 -65 -21 -103.5t-68 -60.5q58 -20 83.5 -64t25.5 -115q0 -97 -56 -149.5t-186 -52.5h-230zM173 78h132q34 0 62 5.5t48 19.5t31.5 39.5t11.5 66.5t-9.5 66t-28.5 39t-46 18.5t-62 4.5h-139v-259zM173 413h126q34 0 59.5 3.5t43 16
t26.5 36.5t9 64t-10.5 63.5t-29.5 35.5t-46.5 15.5t-61.5 3.5h-116v-238z" />
    <glyph glyph-name="C" unicode="C" horiz-adv-x="569" 
d="M528 19q-37 -14 -82 -22.5t-98 -8.5q-82 0 -137 23.5t-88 70t-46.5 115t-13.5 157.5q0 96 15.5 169t49 121.5t88 73t132.5 24.5q49 0 93.5 -8.5t81.5 -22.5v-69q-38 5 -81.5 11t-81.5 6q-54 0 -91.5 -13.5t-61.5 -47t-34.5 -89.5t-10.5 -140q0 -87 11.5 -144.5t36 -91.5
t64 -48t95.5 -14q39 0 80.5 6t78.5 11v-69z" />
    <glyph glyph-name="D" unicode="D" horiz-adv-x="671" 
d="M177 83h126q50 0 88 11.5t64 42.5t39.5 86t13.5 141q0 87 -13.5 142t-39.5 86.5t-64.5 43t-87.5 11.5h-126v-564zM82 0v730h227q79 0 135.5 -20.5t93 -65t53.5 -113t17 -164.5q0 -191 -73.5 -279t-228.5 -88h-224z" />
    <glyph glyph-name="E" unicode="E" horiz-adv-x="553" 
d="M82 0v730h406v-81h-310v-232h280v-82h-280v-254h321v-81h-417z" />
    <glyph glyph-name="F" unicode="F" horiz-adv-x="519" 
d="M82 0v730h392v-81h-294v-241h261v-81h-261v-327h-98z" />
    <glyph glyph-name="G" unicode="G" horiz-adv-x="634" 
d="M573 29q-48 -20 -102.5 -30.5t-112.5 -10.5q-86 0 -143 24.5t-90.5 71.5t-47.5 115t-14 156q0 96 15.5 168.5t51 121t92 73t137.5 24.5q54 0 101.5 -9t85.5 -23v-69q-38 5 -84.5 11.5t-88.5 6.5q-57 0 -97 -14t-65.5 -47.5t-37.5 -89.5t-12 -141q0 -86 12 -143.5
t37 -92.5t64.5 -50t93.5 -15q57 0 111 14v222h-138v75h232v-348z" />
    <glyph glyph-name="H" unicode="H" horiz-adv-x="676" 
d="M82 0v730h98v-306h316v306h98v-730h-98v341h-316v-341h-98z" />
    <glyph glyph-name="I" unicode="I" horiz-adv-x="262" 
d="M82 0v730h98v-730h-98z" />
    <glyph glyph-name="J" unicode="J" horiz-adv-x="499" 
d="M32 86q35 -5 73.5 -9t69.5 -4q37 0 64.5 7t45 24.5t26 47.5t8.5 76v502h98v-492q0 -118 -49.5 -183.5t-163.5 -65.5q-48 0 -94 10t-78 22v65z" />
    <glyph glyph-name="K" unicode="K" horiz-adv-x="616" 
d="M82 0v730h95v-316h81q40 0 58.5 12.5t31.5 38.5l133 265h94l-157 -304q-14 -27 -30 -44l124 -259q8 -17 15 -29t15 -19.5t18.5 -11t25.5 -3.5h15v-59q-14 -3 -27.5 -4t-24.5 -1q-53 0 -79 22.5t-45 63.5l-120 254q-11 -2 -22 -3t-22 -1h-84v-332h-95z" />
    <glyph glyph-name="L" unicode="L" horiz-adv-x="524" 
d="M82 0v730h98v-647h312v-83h-410z" />
    <glyph glyph-name="M" unicode="M" horiz-adv-x="766" 
d="M82 0v730h85l217 -373l221 373h79v-730h-92v565l-179 -304h-63l-176 301v-562h-92z" />
    <glyph glyph-name="N" unicode="N" horiz-adv-x="678" 
d="M82 0v730h86l337 -564v564h91v-730h-87l-336 562v-562h-91z" />
    <glyph glyph-name="O" unicode="O" horiz-adv-x="697" 
d="M214 11q-54 24 -87.5 71t-48.5 117.5t-15 163.5q0 94 16 165t50.5 118.5t89 71.5t131.5 24q79 0 133 -23.5t87.5 -70.5t48.5 -117.5t15 -163.5q0 -94 -16 -165t-50.5 -118.5t-89 -71.5t-131.5 -24q-79 0 -133 23zM208 132q23 -34 58 -48.5t82 -14.5q48 0 83 14.5
t58.5 48.5t34.5 91t11 141q0 85 -11.5 142t-34.5 91.5t-58 49t-82 14.5q-48 0 -83 -14.5t-58.5 -48.5t-34.5 -91t-11 -141q0 -85 11.5 -142t34.5 -92z" />
    <glyph glyph-name="P" unicode="P" horiz-adv-x="580" 
d="M181 368h110q37 0 65.5 6.5t47 22.5t28 43.5t9.5 69.5q0 41 -9 68.5t-27.5 43.5t-47 22.5t-66.5 6.5h-110v-283zM82 0v730h217q125 0 182.5 -53t57.5 -164q0 -107 -56.5 -165t-183.5 -58h-118v-290h-99z" />
    <glyph glyph-name="Q" unicode="Q" horiz-adv-x="697" 
d="M301 -8q-66 6 -111 32.5t-73.5 73t-41 113t-12.5 152.5q0 94 16 165t50.5 118.5t89 71.5t131.5 24q79 0 133 -23.5t87.5 -70.5t48.5 -117.5t15 -163.5q0 -174 -56.5 -268t-186.5 -107v-23q0 -51 20 -74t75 -23h14.5t16.5 1v-59q-14 -3 -31.5 -5t-35.5 -2
q-78 0 -113.5 39.5t-35.5 124.5v21zM208 132q23 -34 58 -48.5t82 -14.5q48 0 83 14.5t58.5 48.5t34.5 91t11 141q0 85 -11.5 142t-34.5 91.5t-58 49t-82 14.5q-48 0 -83 -14.5t-58.5 -48.5t-34.5 -91t-11 -141q0 -85 11.5 -142t34.5 -92z" />
    <glyph glyph-name="R" unicode="R" horiz-adv-x="603" 
d="M82 0v730h212q125 0 184.5 -52.5t59.5 -158.5q0 -29 -5.5 -58t-19.5 -55.5t-39.5 -48.5t-65.5 -36l71 -198q13 -35 28 -49t46 -14h15v-59q-14 -3 -27.5 -4t-23.5 -1q-54 0 -80 22t-41 64l-79 220h-140v-302h-95zM177 379h111q37 0 65.5 6t48 21.5t29.5 42t10 67.5
q0 78 -37.5 106.5t-114.5 28.5h-112v-272z" />
    <glyph glyph-name="S" unicode="S" horiz-adv-x="557" 
d="M63 95q43 -8 93 -14t95 -6q37 0 66 4.5t49 18.5t30.5 39.5t10.5 66.5q0 32 -7 52.5t-23.5 33.5t-43.5 21.5t-66 17.5l-30 7q-40 9 -73.5 22.5t-57.5 36t-37.5 55.5t-13.5 82q0 103 60.5 156t178.5 53q55 0 102.5 -10t83.5 -24v-67q-37 5 -84.5 11t-92.5 6q-34 0 -62 -4
t-48.5 -16.5t-31.5 -35.5t-11 -60q0 -32 8.5 -52.5t26 -33.5t43 -21.5t60.5 -15.5l32 -7q46 -10 80.5 -24.5t57.5 -37.5t34.5 -57t11.5 -83q0 -59 -16.5 -101t-47.5 -68.5t-76 -38.5t-102 -12q-64 0 -114 12.5t-85 26.5v67z" />
    <glyph glyph-name="T" unicode="T" horiz-adv-x="590" 
d="M246 0v648h-214v82h526v-82h-214v-648h-98z" />
    <glyph glyph-name="U" unicode="U" horiz-adv-x="675" 
d="M180 338q0 -87 9 -140t28.5 -81.5t48.5 -38t70 -9.5t71 9.5t49.5 38t29 80.5t9.5 138v395h98v-391q0 -92 -13 -158.5t-43.5 -109.5t-80.5 -63t-124 -20q-76 0 -124.5 20t-76.5 62t-38.5 107.5t-10.5 156.5v396h98v-392z" />
    <glyph glyph-name="V" unicode="V" horiz-adv-x="606" 
d="M248 0l-228 730h107l179 -625l179 625h101l-228 -730h-110z" />
    <glyph glyph-name="W" unicode="W" horiz-adv-x="870" 
d="M198 0l-168 730h100l125 -616l137 578h90l137 -578l125 616h96l-168 -730h-103l-135 569l-135 -569h-101z" />
    <glyph glyph-name="X" unicode="X" horiz-adv-x="603" 
d="M21 0l220 380l-206 350h112l154 -275l155 275h99l-202 -345l229 -385h-112l-176 310l-175 -310h-98z" />
    <glyph glyph-name="Y" unicode="Y" horiz-adv-x="577" 
d="M241 0v309l-221 421h105l165 -335l165 335h102l-218 -416v-314h-98z" />
    <glyph glyph-name="Z" unicode="Z" horiz-adv-x="588" 
d="M45 0v73l382 577h-376v80h484v-73l-382 -577h390v-80h-498z" />
    <glyph glyph-name="bracketleft" unicode="[" horiz-adv-x="331" 
d="M86 -95v872h218v-78h-127v-716h127v-78h-218z" />
    <glyph glyph-name="backslash" unicode="\" horiz-adv-x="432" 
d="M320 -47l-303 824h95l303 -824h-95z" />
    <glyph glyph-name="bracketright" unicode="]" horiz-adv-x="331" 
d="M27 -95v78h127v716h-127v78h218v-872h-218z" />
    <glyph glyph-name="asciicircum" unicode="^" horiz-adv-x="534" 
d="M61 381l171 339h70l171 -339h-87l-119 251l-118 -251h-88z" />
    <glyph glyph-name="underscore" unicode="_" horiz-adv-x="500" 
d="M0 -155v74h500v-74h-500z" />
    <glyph glyph-name="grave" unicode="`" horiz-adv-x="500" 
d="M166 639q-18 6 -30.5 15.5t-12.5 26.5q0 10 4 19q7 15 15.5 21t19.5 6q14 0 36 -10l170 -82l-22 -54z" />
    <glyph glyph-name="a" unicode="a" horiz-adv-x="508" 
d="M485 1q-8 -2 -20 -3.5t-22 -1.5q-41 0 -65.5 14t-35.5 47q-23 -32 -57.5 -49.5t-82.5 -17.5q-161 0 -161 152q0 42 13 71.5t38 48t60 27t79 8.5h103v25q0 35 -8.5 57t-24.5 34t-39 16.5t-52 4.5q-14 0 -31.5 -1t-35.5 -2.5t-34.5 -3.5t-27.5 -3v57q30 11 69 19.5t87 8.5
q95 0 140 -42.5t45 -140.5v-214q0 -32 10.5 -46t39.5 -14h13v-51zM231 234q-53 0 -79 -20t-26 -67q0 -48 25 -66.5t64 -18.5q61 0 90 32.5t29 83.5v56h-103z" />
    <glyph glyph-name="b" unicode="b" horiz-adv-x="566" 
d="M74 0v730h92v-280q21 23 55.5 41.5t94.5 18.5q100 0 148 -68t48 -189q0 -131 -53.5 -198t-155.5 -67q-57 0 -90.5 18t-56.5 47l-7 -53h-75zM164 213q0 -42 10 -70t27.5 -45.5t41 -25t50.5 -7.5q61 0 92.5 41t31.5 142q0 54 -8.5 89.5t-24.5 56.5t-39.5 30t-52.5 9
q-28 0 -51.5 -7t-40.5 -23.5t-26.5 -44t-9.5 -68.5v-77z" />
    <glyph glyph-name="c" unicode="c" horiz-adv-x="448" 
d="M409 8q-29 -8 -63 -13.5t-71 -5.5q-120 0 -170.5 64.5t-50.5 192.5t50 195.5t164 67.5q40 0 73.5 -6.5t62.5 -14.5v-61q-29 2 -57.5 4t-52.5 2q-39 0 -66.5 -7t-44.5 -27.5t-25 -57.5t-8 -97q0 -54 7 -88.5t25.5 -55t50.5 -28t81 -7.5q17 0 41.5 1t53.5 3v-61z" />
    <glyph glyph-name="d" unicode="d" horiz-adv-x="566" 
d="M416 0l-7 56q-11 -13 -24.5 -25t-32.5 -21.5t-43.5 -15.5t-56.5 -6q-102 0 -150 67.5t-48 188.5q0 131 53.5 198.5t153.5 67.5q53 0 85 -16t54 -41v277h92v-730h-76zM402 285q0 42 -10 70t-27.5 45.5t-41 25t-50.5 7.5q-61 0 -92.5 -41t-31.5 -142q0 -54 8.5 -89.5
t24.5 -56.5t39.5 -30t52.5 -9q28 0 51.5 7t40.5 23.5t26.5 44t9.5 68.5v77z" />
    <glyph glyph-name="e" unicode="e" horiz-adv-x="513" 
d="M146 222q3 -52 14.5 -83.5t32.5 -48t50.5 -22t67.5 -5.5q35 0 65 3t58 7v-60q-30 -12 -68.5 -18.5t-79.5 -6.5q-125 0 -178.5 64.5t-53.5 192.5q0 138 54.5 201.5t157.5 63.5q53 0 90 -16.5t60 -49t33 -79.5t10 -108v-35h-313zM371 287q0 79 -23.5 114.5t-82.5 35.5
q-64 0 -90 -38.5t-30 -111.5h226z" />
    <glyph glyph-name="f" unicode="f" horiz-adv-x="375" 
d="M106 0v427h-89v53l89 17v67q0 82 44 127t120 45q27 0 54 -4.5t46 -10.5v-59q-14 1 -35.5 2t-35.5 1q-24 0 -43 -4t-32 -15t-19.5 -32t-6.5 -55v-61h152v-71h-152v-427h-92z" />
    <glyph glyph-name="g" unicode="g" horiz-adv-x="566" 
d="M102 -148q11 -1 27 -2t33 -2t34 -1.5t31 -0.5q43 0 75 6.5t54 23.5t33 46t11 75v51q-22 -22 -56 -38t-91 -16q-102 0 -150.5 67t-48.5 186q0 129 53.5 196t155.5 67q57 0 90.5 -18t56.5 -47l7 53h75v-505q0 -109 -57 -165.5t-175 -56.5q-40 0 -82 6t-76 17v58zM402 287
q0 41 -10 69t-27.5 45t-41 24.5t-50.5 7.5q-30 0 -53.5 -9.5t-39 -30.5t-23.5 -55.5t-8 -84.5q0 -53 8.5 -88t24.5 -56t39.5 -29.5t52.5 -8.5q28 0 51.5 7t40.5 23t26.5 43t9.5 68v75z" />
    <glyph glyph-name="h" unicode="h" horiz-adv-x="555" 
d="M74 0v730h93v-280q24 26 59 43t90 17q49 0 82 -14.5t52.5 -40t27.5 -60.5t8 -77v-318h-92v308q0 69 -24.5 96.5t-78.5 27.5q-26 0 -49 -6.5t-40 -21t-26.5 -38.5t-9.5 -58v-308h-92z" />
    <glyph glyph-name="i" unicode="i" horiz-adv-x="240" 
d="M74 0v498h92v-498h-92zM121 600q-29 0 -43 15t-14 42q0 59 57 59q29 0 42.5 -15t13.5 -42q0 -59 -56 -59z" />
    <glyph glyph-name="j" unicode="j" horiz-adv-x="250" 
d="M-75 -155q13 -1 29 -2t33 -1q25 0 43.5 4.5t30.5 16.5t17.5 32.5t5.5 52.5v550h92v-548q0 -93 -39 -136t-116 -43q-11 0 -24.5 1.5t-26.5 4t-24.5 5t-20.5 5.5v58zM131 600q-29 0 -43 15t-14 42q0 59 57 59q29 0 42.5 -15t13.5 -42q0 -59 -56 -59z" />
    <glyph glyph-name="k" unicode="k" horiz-adv-x="504" 
d="M74 0v730h91v-426h38q18 0 30 3t21 9t16 14.5t14 19.5l90 148h93l-110 -180q-7 -11 -15 -21t-17 -19l91 -174q15 -29 28.5 -39.5t33.5 -10.5h13v-53q-13 -2 -24 -3.5t-22 -1.5q-36 0 -61 15.5t-44 51.5l-89 173q-8 -2 -17 -3t-17 -1h-52v-232h-91z" />
    <glyph glyph-name="l" unicode="l" horiz-adv-x="257" 
d="M234 1q-14 -3 -26.5 -4t-25.5 -1q-50 0 -79 25.5t-29 85.5v623h92v-618q0 -33 12 -45.5t42 -12.5h14v-53z" />
    <glyph glyph-name="m" unicode="m" horiz-adv-x="825" 
d="M74 0v498h74l8 -54q21 25 56 45.5t92 20.5q54 0 85.5 -20.5t48.5 -54.5q10 13 24.5 26t33.5 24t44.5 18t58.5 7q46 0 76 -15t48 -41.5t25.5 -61.5t7.5 -74v-318h-92v308q0 69 -22 96.5t-70 27.5q-23 0 -43 -6t-35 -20.5t-24 -38t-9 -57.5v-310h-92v308q0 69 -22 96.5
t-70 27.5q-23 0 -43.5 -6.5t-35.5 -21t-23.5 -38.5t-8.5 -58v-308h-92z" />
    <glyph glyph-name="n" unicode="n" horiz-adv-x="555" 
d="M74 0v498h74l8 -56q25 29 61.5 48.5t97.5 19.5q49 0 82 -14.5t53 -40t28 -60.5t8 -77v-318h-92v308q0 69 -24.5 96.5t-78.5 27.5q-26 0 -49 -6.5t-40 -21t-26.5 -38.5t-9.5 -58v-308h-92z" />
    <glyph glyph-name="o" unicode="o" horiz-adv-x="550" 
d="M180 105q17 -22 40.5 -31t55.5 -9q31 0 54.5 9t39 30.5t23.5 56.5t8 88q0 52 -8 87.5t-24.5 57t-40.5 30.5t-55 9t-54.5 -9t-39 -30t-23.5 -56.5t-8 -87.5q0 -53 8 -88t24 -57zM274 -12q-112 0 -166 65t-54 195q0 131 54.5 196.5t167.5 65.5q112 0 166 -65t54 -195
q0 -131 -54.5 -196.5t-167.5 -65.5z" />
    <glyph glyph-name="p" unicode="p" horiz-adv-x="566" 
d="M74 -223v721h76l7 -56q10 13 24 25t33 21.5t43.5 15.5t56.5 6q102 0 150 -67.5t48 -188.5q0 -131 -53.5 -198.5t-153.5 -67.5q-53 0 -85 16t-54 41v-268h-92zM164 213q0 -42 10 -70t27.5 -45.5t41 -25t50.5 -7.5q61 0 92.5 41t31.5 142q0 54 -8.5 89.5t-24.5 56.5
t-39.5 30t-52.5 9q-28 0 -51.5 -7t-40.5 -23.5t-26.5 -44t-9.5 -68.5v-77z" />
    <glyph glyph-name="q" unicode="q" horiz-adv-x="566" 
d="M400 -223v271q-22 -23 -56.5 -41.5t-93.5 -18.5q-100 0 -148 68t-48 189q0 131 53.5 198t155.5 67q57 0 90.5 -18t56.5 -47l7 53h75v-721h-92zM402 285q0 42 -10 70t-27.5 45.5t-41 25t-50.5 7.5q-61 0 -92.5 -41t-31.5 -142q0 -54 8.5 -89.5t24.5 -56.5t39.5 -30
t52.5 -9q28 0 51.5 7t40.5 23.5t26.5 44t9.5 68.5v77z" />
    <glyph glyph-name="r" unicode="r" horiz-adv-x="367" 
d="M74 0v498h74l10 -63q51 71 151 71q16 0 33 -3v-76q-8 1 -15 1h-14q-74 0 -110.5 -35t-36.5 -113v-280h-92z" />
    <glyph glyph-name="s" unicode="s" horiz-adv-x="458" 
d="M58 74q30 -4 69.5 -7t77.5 -3q30 0 52.5 2.5t36.5 11t21 23.5t7 39q0 20 -5 32.5t-16.5 20.5t-31 12.5t-48.5 8.5l-33 5q-27 4 -52 12.5t-43.5 24t-30 41t-11.5 64.5q0 40 13 68t37 46t57.5 26t74.5 8q45 0 82.5 -6.5t71.5 -17.5v-59q-29 3 -64.5 6t-73.5 3q-26 0 -47 -2
t-36 -9.5t-23.5 -21t-8.5 -37.5q0 -19 5.5 -30.5t17 -19t29.5 -11.5t44 -8l27 -4q35 -5 63 -14t47.5 -25.5t30 -42.5t10.5 -66q0 -83 -47 -119t-130 -36q-25 0 -50 2.5t-48 6.5t-42.5 8.5t-32.5 8.5v59z" />
    <glyph glyph-name="t" unicode="t" horiz-adv-x="389" 
d="M198 165q0 -62 24 -82.5t72 -20.5q36 0 65 3v-60q-21 -6 -46 -10.5t-53 -4.5q-81 0 -117.5 40t-36.5 131v266h-89v53l89 17v153h92v-152h152v-71h-152v-262z" />
    <glyph glyph-name="u" unicode="u" horiz-adv-x="552" 
d="M161 190q0 -69 24.5 -96.5t77.5 -27.5q26 0 48.5 6.5t39 21t26 38t9.5 58.5v308h92v-498h-74l-8 56q-25 -29 -61 -48.5t-97 -19.5q-49 0 -81.5 14t-52 39.5t-27.5 61t-8 77.5v318h92v-308z" />
    <glyph glyph-name="v" unicode="v" horiz-adv-x="494" 
d="M196 0l-179 498h100l133 -406l133 406h94l-179 -498h-102z" />
    <glyph glyph-name="w" unicode="w" horiz-adv-x="665" 
d="M147 0l-126 498h95l86 -404l93 375h84l90 -375l87 404h88l-126 -498h-94l-91 368l-91 -368h-95z" />
    <glyph glyph-name="x" unicode="x" horiz-adv-x="462" 
d="M17 0l165 258l-156 240h99l107 -176l109 176h89l-153 -236l168 -262h-99l-119 195l-121 -195h-89z" />
    <glyph glyph-name="y" unicode="y" horiz-adv-x="495" 
d="M35 -157q12 -1 25.5 -1.5t27.5 -0.5q24 0 40 3.5t28.5 14.5t22.5 31.5t22 55.5l17 51l-201 501h101l141 -393l125 393h94l-200 -574q-13 -37 -27.5 -65.5t-33 -48t-42.5 -29.5t-55 -10q-25 0 -46.5 4.5t-38.5 9.5v58z" />
    <glyph glyph-name="z" unicode="z" horiz-adv-x="458" 
d="M43 0v66l260 360h-255v72h358v-65l-260 -360h265v-73h-368z" />
    <glyph glyph-name="braceleft" unicode="{" horiz-adv-x="343" 
d="M330 -84q-19 -6 -40 -9.5t-46 -3.5q-30 0 -56.5 9t-45.5 27.5t-30 47.5t-11 69v165q0 15 -1.5 29t-9.5 26t-24 20.5t-46 11.5v70q30 3 46 11.5t24 20.5t9.5 26t1.5 29v165q0 79 41 116t102 37q25 0 46 -3.5t40 -9.5v-65q-13 2 -25.5 2h-28.5q-43 0 -64.5 -17t-21.5 -71
v-171q0 -11 -1.5 -26.5t-8.5 -31t-21.5 -28.5t-39.5 -19q25 -6 39.5 -19t21.5 -28.5t8.5 -31t1.5 -26.5v-171q0 -54 21.5 -71t64.5 -17h28.5t25.5 2v-65z" />
    <glyph glyph-name="bar" unicode="|" horiz-adv-x="254" 
d="M81 -13v790h92v-790h-92z" />
    <glyph glyph-name="braceright" unicode="}" horiz-adv-x="343" 
d="M13 -19q13 -2 25.5 -2h28.5q43 0 64.5 17t21.5 71v171q0 11 1.5 26.5t8.5 31t21.5 28.5t39.5 19q-25 6 -39.5 19t-21.5 28.5t-8.5 31t-1.5 26.5v171q0 54 -21.5 71t-64.5 17h-28.5t-25.5 -2v65q19 6 40 9.5t46 3.5q61 0 102 -37t41 -116v-165q0 -15 1.5 -29t9.5 -26
t24 -20.5t46 -11.5v-70q-30 -3 -46 -11.5t-24 -20.5t-9.5 -26t-1.5 -29v-165q0 -40 -11 -69t-30 -47.5t-45.5 -27.5t-56.5 -9q-25 0 -46 3.5t-40 9.5v65z" />
    <glyph glyph-name="asciitilde" unicode="~" horiz-adv-x="534" 
d="M61 427q24 35 57 58.5t71 23.5q25 0 45 -8t37.5 -17.5t35 -17.5t38.5 -8q23 0 40 12t37 37l50 -42q-24 -35 -57 -58.5t-71 -23.5q-26 0 -45.5 8t-37 17.5t-35 17.5t-38.5 8q-23 0 -40 -12t-37 -37z" />
    <glyph glyph-name="Euro" unicode="&#x20ac;" horiz-adv-x="534" 
d="M44 245v65h65q-1 14 -1 27.5v28.5v43h-64v65h69q6 51 20.5 97.5t43 81.5t72.5 56t110 21q40 0 74 -7t68 -18v-60q-31 3 -63 5.5t-61 2.5q-36 0 -64.5 -6.5t-50.5 -25.5t-36 -54t-21 -93h240l-16 -65h-229q-1 -13 -1 -27v-28v-44h213l-16 -65h-192q6 -45 18 -79t33.5 -56
t53 -33t75.5 -11q12 0 27.5 0.5t32.5 2t33.5 2.5t29.5 3v-60q-34 -11 -69 -17.5t-77 -6.5q-55 0 -97.5 14t-73 45t-49.5 79.5t-27 116.5h-70z" />
    <glyph glyph-name="quotesinglbase" unicode="&#x201a;" horiz-adv-x="222" 
d="M37 -115l31 171q5 26 16 40.5t36 14.5q21 0 31.5 -10.5t10.5 -27.5q0 -8 -2 -16.5t-5 -17.5l-57 -154h-61z" />
    <glyph glyph-name="florin" unicode="&#x192;" horiz-adv-x="375" 
d="M-53 -155q13 -1 29 -2t33 -1q25 0 43.5 4.5t30.5 16.5t17.5 32.5t5.5 52.5v479h-89v53l89 17v67q0 82 44 127t120 45q27 0 54 -4.5t46 -10.5v-59q-14 1 -35.5 2t-35.5 1q-24 0 -43 -4t-32 -15t-19.5 -32t-6.5 -55v-61h152v-71h-152v-477q0 -93 -39 -136t-116 -43
q-11 0 -24.5 1.5t-26.5 4t-24.5 5t-20.5 5.5v58z" />
    <glyph glyph-name="quotedblbase" unicode="&#x201e;" horiz-adv-x="385" 
d="M200 -114l31 171q5 26 16 40.5t36 14.5q21 0 31.5 -10.5t10.5 -27.5q0 -8 -2 -16.5t-5 -17.5l-57 -154h-61zM38 -114l31 171q5 26 16 40.5t36 14.5q21 0 31.5 -10.5t10.5 -27.5q0 -8 -2 -16.5t-5 -17.5l-57 -154h-61z" />
    <glyph glyph-name="ellipsis" unicode="&#x2026;" horiz-adv-x="754" 
d="M639 -5q-29 0 -43 16t-14 43q0 28 14 44t43 16t43 -16t14 -44q0 -27 -14 -43t-43 -16zM377 -5q-29 0 -43 16t-14 43q0 28 14 44t43 16t43 -16t14 -44q0 -27 -14 -43t-43 -16zM115 -5q-29 0 -43 16t-14 43q0 28 14 44t43 16t43 -16t14 -44q0 -27 -14 -43t-43 -16z" />
    <glyph glyph-name="dagger" unicode="&#x2020;" horiz-adv-x="452" 
d="M179 -95v546h-144v82h144v244h94v-244h144v-82h-144v-546h-94z" />
    <glyph glyph-name="daggerdbl" unicode="&#x2021;" horiz-adv-x="452" 
d="M179 -95v236h-144v83h144v234h-144v83h144v236h94v-236h144v-83h-144v-234h144v-83h-144v-236h-94z" />
    <glyph glyph-name="circumflex" unicode="&#x2c6;" horiz-adv-x="500" 
d="M125 581l-33 45l106 85q17 14 27.5 18.5t24.5 4.5t24.5 -4.5t27.5 -18.5l106 -85l-33 -45l-125 79z" />
    <glyph glyph-name="perthousand" unicode="&#x2030;" horiz-adv-x="1091" 
d="M128 449q19 -26 54 -26t53.5 26t18.5 95q0 70 -18.5 96t-53.5 26t-53.5 -26t-18.5 -96q0 -69 18 -95zM182 361q-75 0 -109 47t-34 136q0 90 34 137t109 47t109 -47t34 -137q0 -89 -34 -136t-109 -47zM128 0l407 720h84l-407 -720h-84zM511 79q19 -26 54 -26t53.5 26
t18.5 95q0 70 -18.5 96t-53.5 26t-53.5 -26t-18.5 -96q0 -69 18 -95zM565 -9q-75 0 -109 47t-34 136q0 90 34 137t109 47t109 -47t34 -137q0 -89 -34 -136t-109 -47zM854 79q19 -26 54 -26t53.5 26t18.5 95q0 70 -18.5 96t-53.5 26t-53.5 -26t-18.5 -96q0 -69 18 -95z
M908 -9q-75 0 -109 47t-34 136q0 90 34 137t109 47t109 -47t34 -137q0 -89 -34 -136t-109 -47z" />
    <glyph glyph-name="Scaron" unicode="&#x160;" horiz-adv-x="557" 
d="M63 95q43 -8 93 -14t95 -6q37 0 66 4.5t49 18.5t30.5 39.5t10.5 66.5q0 32 -7 52.5t-23.5 33.5t-43.5 21.5t-66 17.5l-30 7q-40 9 -73.5 22.5t-57.5 36t-37.5 55.5t-13.5 82q0 103 60.5 156t178.5 53q55 0 102.5 -10t83.5 -24v-67q-37 5 -84.5 11t-92.5 6q-34 0 -62 -4
t-48.5 -16.5t-31.5 -35.5t-11 -60q0 -32 8.5 -52.5t26 -33.5t43 -21.5t60.5 -15.5l32 -7q46 -10 80.5 -24.5t57.5 -37.5t34.5 -57t11.5 -83q0 -59 -16.5 -101t-47.5 -68.5t-76 -38.5t-102 -12q-64 0 -114 12.5t-85 26.5v67zM130 899l32 46l130 -80l130 80l32 -46l-108 -87
q-17 -14 -28.5 -18.5t-25.5 -4.5t-25.5 4.5t-28.5 18.5z" />
    <glyph glyph-name="guilsinglleft" unicode="&#x2039;" horiz-adv-x="313" 
d="M169 70l-119 180l119 180h89l-119 -180l119 -180h-89z" />
    <glyph glyph-name="OE" unicode="&#x152;" horiz-adv-x="967" 
d="M506 0v71q-14 -20 -31 -35.5t-38 -26.5t-48 -17t-62 -6q-140 0 -202 94.5t-62 278.5q0 190 64.5 286.5t204.5 96.5q60 0 102 -18.5t72 -60.5v67h396v-81h-300v-232h270v-82h-270v-254h311v-81h-407zM507 459q0 58 -12.5 97t-35 62.5t-53 33t-66.5 9.5q-45 0 -78 -14.5
t-55 -49t-33 -91t-11 -141.5t11 -142t33 -91t55.5 -48.5t78.5 -14.5q37 0 68 10t52.5 34t33.5 64t12 101v181z" />
    <glyph glyph-name="quoteleft" unicode="&#x2018;" horiz-adv-x="222" 
d="M144 570q-5 -26 -16 -40.5t-36 -14.5q-21 0 -31.5 10.5t-10.5 27.5q0 8 2 16.5t5 17.5l57 154h61z" />
    <glyph glyph-name="quoteright" unicode="&#x2019;" horiz-adv-x="222" 
d="M47 517l31 171q5 26 16 40.5t36 14.5q21 0 31.5 -10.5t10.5 -27.5q0 -8 -2 -16.5t-5 -17.5l-57 -154h-61z" />
    <glyph glyph-name="quotedblleft" unicode="&#x201c;" horiz-adv-x="385" 
d="M307 570q-5 -26 -16 -40.5t-36 -14.5q-21 0 -31.5 10.5t-10.5 27.5q0 8 2 16.5t5 17.5l57 154h61zM144 570q-5 -26 -16 -40.5t-36 -14.5q-21 0 -31.5 10.5t-10.5 27.5q0 8 2 16.5t5 17.5l57 154h61z" />
    <glyph glyph-name="quotedblright" unicode="&#x201d;" horiz-adv-x="385" 
d="M210 517l31 171q5 26 16 40.5t36 14.5q21 0 31.5 -10.5t10.5 -27.5q0 -8 -2 -16.5t-5 -17.5l-57 -154h-61zM47 517l31 171q5 26 16 40.5t36 14.5q21 0 31.5 -10.5t10.5 -27.5q0 -8 -2 -16.5t-5 -17.5l-57 -154h-61z" />
    <glyph glyph-name="bullet" unicode="&#x2022;" horiz-adv-x="289" 
d="M144 312q-35 0 -52.5 19.5t-17.5 54.5t17.5 54.5t52.5 19.5q36 0 53.5 -19.5t17.5 -54.5t-17.5 -54.5t-53.5 -19.5z" />
    <glyph glyph-name="endash" unicode="&#x2013;" horiz-adv-x="500" 
d="M0 246v74h500v-74h-500z" />
    <glyph glyph-name="tilde" unicode="&#x2dc;" horiz-adv-x="500" 
d="M81 642q20 32 46 53.5t58 21.5q21 0 37.5 -6.5t31.5 -14.5t29.5 -14.5t31.5 -6.5q19 0 32 9.5t27 28.5l45 -38q-20 -32 -46 -53.5t-58 -21.5q-21 0 -38 6.5t-32 14.5t-29.5 14.5t-30.5 6.5q-19 0 -32 -9.5t-27 -28.5z" />
    <glyph glyph-name="trademark" unicode="&#x2122;" horiz-adv-x="696" 
d="M124 400v272h-97v58h264v-58h-97v-272h-70zM337 400v330h58l94 -157l95 157h57v-330h-65v217l-69 -114h-37l-68 113v-216h-65z" />
    <glyph glyph-name="scaron" unicode="&#x161;" horiz-adv-x="458" 
d="M58 74q30 -4 69.5 -7t77.5 -3q30 0 52.5 2.5t36.5 11t21 23.5t7 39q0 20 -5 32.5t-16.5 20.5t-31 12.5t-48.5 8.5l-33 5q-27 4 -52 12.5t-43.5 24t-30 41t-11.5 64.5q0 40 13 68t37 46t57.5 26t74.5 8q45 0 82.5 -6.5t71.5 -17.5v-59q-29 3 -64.5 6t-73.5 3q-26 0 -47 -2
t-36 -9.5t-23.5 -21t-8.5 -37.5q0 -19 5.5 -30.5t17 -19t29.5 -11.5t44 -8l27 -4q35 -5 63 -14t47.5 -25.5t30 -42.5t10.5 -66q0 -83 -47 -119t-130 -36q-25 0 -50 2.5t-48 6.5t-42.5 8.5t-32.5 8.5v59zM78 692l33 45l125 -79l125 79l33 -45l-106 -85q-17 -14 -27.5 -18.5
t-24.5 -4.5t-24.5 4.5t-27.5 18.5z" />
    <glyph glyph-name="guilsinglright" unicode="&#x203a;" horiz-adv-x="313" 
d="M55 70l119 180l-119 180h89l119 -180l-119 -180h-89z" />
    <glyph glyph-name="oe" unicode="&#x153;" horiz-adv-x="858" 
d="M491 222q3 -52 14.5 -83.5t32.5 -48t50.5 -22t67.5 -5.5q35 0 65 3t58 7v-60q-30 -12 -69 -18.5t-78 -6.5q-72 0 -118 22.5t-72 67.5q-48 -90 -172 -90q-216 0 -216 260q0 262 218 262q123 0 171 -91q26 47 68.5 69t101.5 22q52 0 88.5 -17t59.5 -49t33 -79.5t10 -107.5
v-35h-313zM180 105q17 -22 40.5 -31t55.5 -9q31 0 54.5 9t39 30t23.5 56t8 87q0 53 -8 89t-24.5 57.5t-40.5 30.5t-55 9t-54.5 -9t-39 -30t-23.5 -55.5t-8 -86.5q0 -53 8 -89t24 -58zM716 287q0 79 -23.5 114.5t-82.5 35.5q-64 0 -90 -38.5t-30 -111.5h226z" />
    <glyph glyph-name="Ydieresis" unicode="&#x178;" horiz-adv-x="577" 
d="M241 0v309l-221 421h105l165 -335l165 335h102l-218 -416v-314h-98zM198 797q-55 0 -55 55q0 27 14 42t41 15q28 0 42 -15t14 -41q0 -56 -56 -56zM379 797q-56 0 -56 55q0 27 14 42t42 15q27 0 41 -15t14 -41q0 -56 -55 -56z" />
    <glyph glyph-name="uni00A0" unicode="&#xa0;" horiz-adv-x="210" 
 />
    <glyph glyph-name="exclamdown" unicode="&#xa1;" horiz-adv-x="260" 
d="M80 -230l7 538h86l7 -538h-100zM130 386q-29 0 -43 16t-14 44q0 27 14 43t43 16t43 -16t14 -43q0 -28 -14 -44t-43 -16z" />
    <glyph glyph-name="cent" unicode="&#xa2;" horiz-adv-x="534" 
d="M256 -6v113q-93 11 -134 73t-41 181q0 118 40.5 180t134.5 74v110h82v-108q28 -2 50.5 -8t46.5 -13v-59q-28 3 -57.5 5.5t-55.5 2.5q-40 0 -67.5 -8t-45 -28.5t-25 -56t-7.5 -90.5q0 -54 8 -89.5t25.5 -56.5t45.5 -29.5t69 -8.5q26 0 56.5 2.5t59.5 5.5v-59
q-25 -8 -49.5 -14t-53.5 -8v-111h-82z" />
    <glyph glyph-name="sterling" unicode="&#xa3;" horiz-adv-x="534" 
d="M116 0v325h-74v75h74v87q0 128 52 185t152 57q41 0 78.5 -8t71.5 -19v-61q-32 5 -65 8t-63 3q-35 0 -60.5 -6.5t-42 -24t-24.5 -49t-8 -81.5v-91h231v-75h-231v-247h285v-78h-376z" />
    <glyph glyph-name="currency" unicode="&#xa4;" horiz-adv-x="534" 
d="M189 254q27 -28 78 -28t77.5 28.5t26.5 105.5t-26.5 105.5t-77.5 28.5t-77.5 -28.5t-26.5 -105.5t26 -106zM37 183l68 68q-19 42 -19 109t19 109l-68 68l55 53l61 -62q41 34 114 34t114 -34l61 62l55 -53l-68 -68q19 -42 19 -109t-19 -109l68 -68l-55 -53l-61 62
q-41 -34 -114 -34t-114 34l-61 -62z" />
    <glyph glyph-name="yen" unicode="&#xa5;" horiz-adv-x="534" 
d="M223 0v152h-152v65h152v100h-152v65h126l-178 338h97l153 -317l153 317h94l-179 -338h125v-65h-150v-100h150v-65h-150v-152h-89z" />
    <glyph glyph-name="brokenbar" unicode="&#xa6;" horiz-adv-x="255" 
d="M81 485v292h93v-292h-93zM81 -13v292h93v-292h-93z" />
    <glyph glyph-name="section" unicode="&#xa7;" horiz-adv-x="504" 
d="M61 -72q48 -7 89.5 -11.5t95.5 -4.5q22 0 45.5 2t42.5 11.5t31 28.5t12 53q0 25 -7.5 41.5t-23.5 27.5t-41 18t-59 15l-23 5q-38 8 -70 20t-55 31t-35.5 48t-12.5 72q0 57 22.5 93.5t64.5 56.5q-26 12 -43 27t-26.5 32.5t-13 36.5t-3.5 39q0 91 56 131.5t152 40.5
q57 0 99 -11t77 -22v-57q-42 6 -79.5 11t-89.5 5q-26 0 -50 -2.5t-42.5 -12t-30 -28.5t-11.5 -51q0 -20 5.5 -34.5t19.5 -25t38 -18.5t61 -16l23 -5q45 -10 78 -22.5t54.5 -32t32.5 -47.5t11 -68q0 -61 -23 -95.5t-63 -54.5q55 -25 73 -61.5t18 -79.5q0 -50 -16 -84
t-44 -54.5t-66 -29.5t-82 -9q-58 0 -107.5 11.5t-83.5 22.5v57zM298 176q13 4 26 12.5t23.5 22.5t17 34.5t6.5 48.5q0 25 -6 43t-20 30.5t-36.5 21t-55.5 15.5l-44 9q-14 -4 -27.5 -12.5t-24 -22.5t-17.5 -35.5t-7 -51.5q0 -23 5 -39.5t18.5 -28.5t36 -21t58.5 -16z" />
    <glyph glyph-name="dieresis" unicode="&#xa8;" horiz-adv-x="500" 
d="M163 603q-27 0 -40 14t-13 40q0 55 53 55q26 0 39.5 -14t13.5 -40q0 -55 -53 -55zM338 603q-26 0 -39.5 14t-13.5 40q0 55 53 55q27 0 40 -14t13 -40q0 -55 -53 -55z" />
    <glyph glyph-name="copyright" unicode="&#xa9;" horiz-adv-x="800" 
d="M259 10q-63 24 -108 71t-69.5 117.5t-24.5 165.5t25 166t70.5 118.5t109 71t140.5 23.5q76 0 139 -23.5t108 -70.5t69.5 -118t24.5 -165q0 -95 -25 -166.5t-70.5 -118.5t-109 -70.5t-139.5 -23.5q-77 0 -140 23zM523 184q-25 -7 -51 -12.5t-60 -5.5q-92 0 -130.5 48.5
t-38.5 146.5q0 97 38.5 150t128.5 53q32 0 57.5 -5.5t50.5 -12.5v-48q-21 2 -44 4.5t-46 2.5q-29 0 -50 -6t-34.5 -21.5t-19.5 -42.5t-6 -69t6.5 -69.5t20 -43.5t35 -22t51.5 -6q23 0 47.5 2.5t44.5 4.5v-48zM152 215q23 -60 61.5 -96t87 -51t99.5 -15t99.5 15t87 51
t61.5 96t23 150t-23 150t-61.5 96t-87 51t-99.5 15t-99.5 -15t-87 -51t-61.5 -96t-23 -150t23 -150z" />
    <glyph glyph-name="ordfeminine" unicode="&#xaa;" horiz-adv-x="384" 
d="M365 372q-5 -2 -14.5 -3t-16.5 -1q-30 0 -48.5 10t-27.5 34q-16 -23 -40.5 -35.5t-59.5 -12.5q-117 0 -117 110q0 61 35.5 86.5t98.5 25.5h72v6q0 25 -6 40.5t-17 24.5t-27 12t-36 3t-48 -2.5t-44 -4.5v46q23 8 50.5 14t62.5 6q69 0 101.5 -30.5t32.5 -99.5v-145
q0 -23 8.5 -33t30.5 -10h10v-41zM180 537q-35 0 -52.5 -14.5t-17.5 -47.5q0 -34 16.5 -47t41.5 -13q42 0 60.5 23.5t18.5 58.5v40h-67z" />
    <glyph glyph-name="guillemotleft" unicode="&#xab;" horiz-adv-x="493" 
d="M169 70l-119 180l119 180h89l-119 -180l119 -180h-89zM349 70l-119 180l119 180h89l-119 -180l119 -180h-89z" />
    <glyph glyph-name="logicalnot" unicode="&#xac;" horiz-adv-x="534" 
d="M77 372v73h377v-209h-75v136h-302z" />
    <glyph glyph-name="uni00AD" unicode="&#xad;" horiz-adv-x="434" 
d="M58 245v76h318v-76h-318z" />
    <glyph glyph-name="registered" unicode="&#xae;" horiz-adv-x="504" 
d="M168 316q-37 14 -64 42t-42 69t-15 97t15.5 98t43 69.5t65.5 41.5t83 14t82 -13.5t64 -41.5t42 -69.5t15 -96.5q0 -56 -15.5 -98t-43 -70t-65 -41.5t-82.5 -13.5t-83 13zM107 439q14 -34 36 -54.5t50.5 -29.5t58.5 -9t58.5 9t50.5 29.5t35.5 55t13.5 85.5t-13.5 85.5
t-35.5 55t-50.5 29.5t-58.5 9t-58.5 -9t-50.5 -29.5t-35.5 -55t-13.5 -85.5t13 -86zM177 416v221h83q74 0 74 -68q0 -14 -6.5 -32.5t-32.5 -28.5l20 -45q5 -11 8.5 -14t11.5 -3h4v-30q-5 -1 -9.5 -1h-9.5q-17 0 -27.5 6.5t-18.5 26.5l-23 53h-30v-85h-44zM221 541h35
q16 0 24.5 5.5t8.5 22.5t-8 23t-25 6h-35v-57z" />
    <glyph glyph-name="macron" unicode="&#xaf;" horiz-adv-x="500" 
d="M113 620v73h273v-73h-273z" />
    <glyph glyph-name="degree" unicode="&#xb0;" horiz-adv-x="371" 
d="M82 483q-19 19 -30 45.5t-11 58.5t11 58.5t30.5 45.5t46 29.5t57.5 10.5t57.5 -10.5t46 -29.5t30.5 -45.5t11 -58.5t-11 -58.5t-30.5 -45.5t-46 -29.5t-57.5 -10.5t-57.5 10.5t-46.5 29.5zM129 526q22 -22 57 -22t56.5 22t21.5 61t-21.5 61t-56.5 22t-56.5 -22t-21.5 -61
t21 -61z" />
    <glyph glyph-name="plusminus" unicode="&#xb1;" horiz-adv-x="534" 
d="M229 170v170h-162v73h162v165h75v-165h162v-73h-162v-170h-75zM80 1v73h374v-73h-374z" />
    <glyph glyph-name="twosuperior" unicode="&#xb2;" 
d="M64 369v63q0 31 7.5 52.5t21 36.5t32 25.5t41.5 21.5l11 5q29 13 38 23.5t9 28.5q0 25 -14.5 35t-47.5 10q-22 0 -45.5 -1.5t-46.5 -4.5v47q24 6 49.5 11t54.5 5q52 0 85.5 -22.5t33.5 -75.5q0 -22 -6 -38t-17.5 -28t-27.5 -21t-37 -18l-12 -5q-20 -9 -32.5 -16.5
t-19 -18t-8.5 -25t-2 -35.5h161v-55h-228z" />
    <glyph glyph-name="threesuperior" unicode="&#xb3;" 
d="M53 425q10 -2 23.5 -3l27 -2t26 -1.5t20.5 -0.5q38 0 57 10.5t19 42.5q0 28 -16 41t-58 13h-41v41l95 100h-149v54h224v-45l-98 -102q53 -3 81.5 -28t28.5 -74q0 -109 -132 -109q-29 0 -58.5 5t-49.5 11v47z" />
    <glyph glyph-name="acute" unicode="&#xb4;" horiz-adv-x="500" 
d="M153 581l-22 54l170 82q22 10 36 10q11 0 19.5 -6t15.5 -21q4 -9 4 -19q0 -17 -12.5 -26.5t-30.5 -15.5z" />
    <glyph glyph-name="mu" unicode="&#xb5;" horiz-adv-x="557" 
d="M74 -223v721h92v-311q0 -69 25 -96.5t79 -27.5q25 0 47 6.5t38.5 22.5t26 42t9.5 65v299h92v-498h-74l-8 56q-23 -29 -55 -48.5t-86 -19.5q-31 0 -54 7t-40 19v-237h-92z" />
    <glyph glyph-name="paragraph" unicode="&#xb6;" horiz-adv-x="619" 
d="M281 -127v461h-24q-112 0 -162 51.5t-50 147.5q0 97 51 147t161 50h282v-857h-83v778h-92v-778h-83z" />
    <glyph glyph-name="periodcentered" unicode="&#xb7;" horiz-adv-x="230" 
d="M115 302q-29 0 -43 16t-14 43q0 28 14 44t43 16t43 -16t14 -44q0 -27 -14 -43t-43 -16z" />
    <glyph glyph-name="cedilla" unicode="&#xb8;" horiz-adv-x="500" 
d="M145 -103q8 -1 13 -1h10q25 0 39 5.5t21.5 16.5t9.5 27.5t2 39.5v24h70v-30q0 -73 -22.5 -107.5t-83.5 -34.5q-13 0 -28.5 1.5t-30.5 5.5v53z" />
    <glyph glyph-name="onesuperior" unicode="&#xb9;" 
d="M161 369v286l-88 -16v50l76 22q14 4 27.5 6.5t29.5 2.5h25v-351h-70z" />
    <glyph glyph-name="ordmasculine" unicode="&#xba;" horiz-adv-x="414" 
d="M206 364q-159 0 -159 184t161 184q159 0 159 -183q0 -185 -161 -185zM144 453q22 -27 64 -27q40 0 62 26.5t22 95.5t-22 95.5t-64 26.5q-40 0 -62 -26t-22 -95t22 -96z" />
    <glyph glyph-name="guillemotright" unicode="&#xbb;" horiz-adv-x="494" 
d="M55 70l119 180l-119 180h89l119 -180l-119 -180h-89zM236 70l119 180l-119 180h89l119 -180l-119 -180h-89z" />
    <glyph glyph-name="onequarter" unicode="&#xbc;" horiz-adv-x="806" 
d="M158 0l407 720h84l-407 -720h-84zM161 369v286l-88 -16v50l76 22q14 4 27.5 6.5t29.5 2.5h25v-351h-70zM494 86v46l163 220h55v-216h46v-50h-46v-85h-61v85h-157zM556 136h95v127z" />
    <glyph glyph-name="onehalf" unicode="&#xbd;" horiz-adv-x="806" 
d="M130 0l407 720h84l-407 -720h-84zM161 369v286l-88 -16v50l76 22q14 4 27.5 6.5t29.5 2.5h25v-351h-70zM512 1v63q0 31 7.5 52.5t21 36.5t32 25.5t41.5 21.5l11 5q29 13 38 23.5t9 28.5q0 25 -14.5 35t-47.5 10q-22 0 -45.5 -1.5t-46.5 -4.5v47q24 6 49.5 11t54.5 5
q52 0 85.5 -22.5t33.5 -75.5q0 -22 -6 -38t-17.5 -28t-27.5 -21t-37 -18l-12 -5q-20 -9 -32.5 -16.5t-19 -18t-8.5 -25t-2 -35.5h161v-55h-228z" />
    <glyph glyph-name="threequarters" unicode="&#xbe;" horiz-adv-x="806" 
d="M181 0l407 720h84l-407 -720h-84zM494 86v46l163 220h55v-216h46v-50h-46v-85h-61v85h-157zM556 136h95v127zM58 425q10 -2 23.5 -3l27 -2t26 -1.5t20.5 -0.5q38 0 57 10.5t19 42.5q0 28 -16 41t-58 13h-41v41l95 100h-149v54h224v-45l-98 -102q53 -3 81.5 -28t28.5 -74
q0 -109 -132 -109q-29 0 -58.5 5t-49.5 11v47z" />
    <glyph glyph-name="questiondown" unicode="&#xbf;" horiz-adv-x="461" 
d="M451 -211q-38 -11 -81 -20t-97 -9q-105 0 -161 44t-56 143q0 37 7.5 63.5t21.5 46.5t34 36t46 32l14 9q18 12 30 22.5t19.5 24t10.5 32t3 45.5v51h83v-44q0 -47 -7 -77t-20 -50.5t-30 -33.5t-36 -25l-13 -8q-19 -12 -32 -21.5t-21 -21t-11.5 -26.5t-3.5 -38
q0 -36 8.5 -59.5t26.5 -37.5t46 -20t67 -6q40 0 80 4.5t72 9.5v-66zM283 387q-29 0 -43.5 16t-14.5 44t14.5 43.5t43.5 15.5t43 -15.5t14 -42.5q0 -29 -14 -45t-43 -16z" />
    <glyph glyph-name="Agrave" unicode="&#xc0;" horiz-adv-x="622" 
d="M20 0l235 730h111l236 -730h-104l-58 192h-265l-58 -192h-97zM197 271h223l-112 374zM235 834q-31 9 -50 19t-19 31q0 9 4 20q6 15 16 21.5t21 6.5q10 0 21.5 -5.5t35.5 -16.5l155 -73l-21 -52z" />
    <glyph glyph-name="Aacute" unicode="&#xc1;" horiz-adv-x="622" 
d="M20 0l235 730h111l236 -730h-104l-58 192h-265l-58 -192h-97zM197 271h223l-112 374zM228 785l-21 52l155 73q24 11 35.5 16.5t21.5 5.5q11 0 21 -6.5t16 -21.5q4 -11 4 -20q0 -21 -19 -31t-50 -19z" />
    <glyph glyph-name="Acircumflex" unicode="&#xc2;" horiz-adv-x="622" 
d="M20 0l235 730h111l236 -730h-104l-58 192h-265l-58 -192h-97zM197 271h223l-112 374zM183 783l-32 46l108 87q17 14 28.5 18.5t25.5 4.5t25.5 -4.5t28.5 -18.5l108 -87l-32 -46l-130 80z" />
    <glyph glyph-name="Atilde" unicode="&#xc3;" horiz-adv-x="622" 
d="M20 0l235 730h111l236 -730h-104l-58 192h-265l-58 -192h-97zM197 271h223l-112 374zM139 838q20 32 47 52.5t60 20.5q22 0 39.5 -6.5t33 -14.5t30.5 -14.5t32 -6.5q20 0 33 9.5t28 28.5l46 -36q-20 -32 -47 -52.5t-60 -20.5q-22 0 -39.5 6.5t-33 14.5t-30.5 14.5
t-32 6.5q-20 0 -33 -9.5t-28 -28.5z" />
    <glyph glyph-name="Adieresis" unicode="&#xc4;" horiz-adv-x="622" 
d="M20 0l235 730h111l236 -730h-104l-58 192h-265l-58 -192h-97zM197 271h223l-112 374zM223 797q-55 0 -55 55q0 27 14 42t41 15q28 0 42 -15t14 -41q0 -56 -56 -56zM404 797q-56 0 -56 55q0 27 14 42t42 15q27 0 41 -15t14 -41q0 -56 -55 -56z" />
    <glyph glyph-name="Aring" unicode="&#xc5;" horiz-adv-x="622" 
d="M20 0l231 710q-47 25 -47 87q0 49 28.5 76.5t75.5 27.5t75.5 -27.5t28.5 -76.5q0 -59 -44 -84l234 -713h-104l-58 192h-265l-58 -192h-97zM197 271h223l-112 374zM264 797q0 -22 12 -34t32 -12t32 12t12 34t-12 34t-32 12t-32 -12t-12 -34z" />
    <glyph glyph-name="AE" unicode="&#xc6;" horiz-adv-x="925" 
d="M20 0l368 730h472v-81h-300v-232h271v-82h-271v-254h311v-81h-405v210h-240l-105 -210h-101zM260 289h206v360h-27z" />
    <glyph glyph-name="Ccedilla" unicode="&#xc7;" horiz-adv-x="569" 
d="M221 -107q9 -1 14 -1h10q26 0 41.5 5.5t23 16.5t9.5 27.5t2 39.5v8q-74 4 -123.5 29.5t-79.5 71.5t-42.5 112t-12.5 152q0 96 15.5 169t49 121.5t88 73t132.5 24.5q49 0 93.5 -8.5t81.5 -22.5v-69q-38 5 -81.5 11t-81.5 6q-54 0 -91.5 -13.5t-61.5 -47t-34.5 -89.5
t-10.5 -140q0 -87 11.5 -144.5t36 -91.5t64 -48t95.5 -14q39 0 80.5 6t78.5 11v-69q-29 -11 -63.5 -18.5t-73.5 -10.5v-17q0 -73 -23.5 -107.5t-85.5 -34.5q-14 0 -29.5 1.5t-31.5 5.5v55z" />
    <glyph glyph-name="Egrave" unicode="&#xc8;" horiz-adv-x="553" 
d="M82 0v730h406v-81h-310v-232h280v-82h-280v-254h321v-81h-417zM224 834q-31 9 -50 19t-19 31q0 9 4 20q6 15 16 21.5t21 6.5q10 0 21.5 -5.5t35.5 -16.5l155 -73l-21 -52z" />
    <glyph glyph-name="Eacute" unicode="&#xc9;" horiz-adv-x="553" 
d="M82 0v730h406v-81h-310v-232h280v-82h-280v-254h321v-81h-417zM193 785l-21 52l155 73q24 11 35.5 16.5t21.5 5.5q11 0 21 -6.5t16 -21.5q4 -11 4 -20q0 -21 -19 -31t-50 -19z" />
    <glyph glyph-name="Ecircumflex" unicode="&#xca;" horiz-adv-x="553" 
d="M82 0v730h406v-81h-310v-232h280v-82h-280v-254h321v-81h-417zM158 783l-32 46l108 87q17 14 28.5 18.5t25.5 4.5t25.5 -4.5t28.5 -18.5l108 -87l-32 -46l-130 80z" />
    <glyph glyph-name="Edieresis" unicode="&#xcb;" horiz-adv-x="553" 
d="M82 0v730h406v-81h-310v-232h280v-82h-280v-254h321v-81h-417zM200 797q-55 0 -55 55q0 27 14 42t41 15q28 0 42 -15t14 -41q0 -56 -56 -56zM381 797q-56 0 -56 55q0 27 14 42t42 15q27 0 41 -15t14 -41q0 -56 -55 -56z" />
    <glyph glyph-name="Igrave" unicode="&#xcc;" horiz-adv-x="262" 
d="M82 0v730h98v-730h-98zM52 834q-31 9 -50 19t-19 31q0 9 4 20q6 15 16 21.5t21 6.5q10 0 21.5 -5.5t35.5 -16.5l155 -73l-21 -52z" />
    <glyph glyph-name="Iacute" unicode="&#xcd;" horiz-adv-x="262" 
d="M82 0v730h98v-730h-98zM48 785l-21 52l155 73q24 11 35.5 16.5t21.5 5.5q11 0 21 -6.5t16 -21.5q4 -11 4 -20q0 -21 -19 -31t-50 -19z" />
    <glyph glyph-name="Icircumflex" unicode="&#xce;" horiz-adv-x="262" 
d="M82 0v730h98v-730h-98zM1 783l-32 46l108 87q17 14 28.5 18.5t25.5 4.5t25.5 -4.5t28.5 -18.5l108 -87l-32 -46l-130 80z" />
    <glyph glyph-name="Idieresis" unicode="&#xcf;" horiz-adv-x="262" 
d="M82 0v730h98v-730h-98zM41 797q-55 0 -55 55q0 27 14 42t41 15q28 0 42 -15t14 -41q0 -56 -56 -56zM222 797q-56 0 -56 55q0 27 14 42t42 15q27 0 41 -15t14 -41q0 -56 -55 -56z" />
    <glyph glyph-name="Eth" unicode="&#xd0;" horiz-adv-x="687" 
d="M98 0v331h-80v75h80v324h227q79 0 135.5 -20.5t93 -65t53.5 -113t17 -164.5q0 -191 -73.5 -279t-228.5 -88h-224zM193 83h126q50 0 88 11.5t64 42.5t39.5 86t13.5 141q0 87 -13.5 142t-39.5 86.5t-64.5 43t-87.5 11.5h-126v-241h134v-75h-134v-248z" />
    <glyph glyph-name="Ntilde" unicode="&#xd1;" horiz-adv-x="678" 
d="M82 0v730h86l337 -564v564h91v-730h-87l-336 562v-562h-91zM168 838q20 32 47 52.5t60 20.5q22 0 39.5 -6.5t33 -14.5t30.5 -14.5t32 -6.5q20 0 33 9.5t28 28.5l46 -36q-20 -32 -47 -52.5t-60 -20.5q-22 0 -39.5 6.5t-33 14.5t-30.5 14.5t-32 6.5q-20 0 -33 -9.5
t-28 -28.5z" />
    <glyph glyph-name="Ograve" unicode="&#xd2;" horiz-adv-x="697" 
d="M214 11q-54 24 -87.5 71t-48.5 117.5t-15 163.5q0 94 16 165t50.5 118.5t89 71.5t131.5 24q79 0 133 -23.5t87.5 -70.5t48.5 -117.5t15 -163.5q0 -94 -16 -165t-50.5 -118.5t-89 -71.5t-131.5 -24q-79 0 -133 23zM208 132q23 -34 58 -48.5t82 -14.5q48 0 83 14.5
t58.5 48.5t34.5 91t11 141q0 85 -11.5 142t-34.5 91.5t-58 49t-82 14.5q-48 0 -83 -14.5t-58.5 -48.5t-34.5 -91t-11 -141q0 -85 11.5 -142t34.5 -92zM273 834q-31 9 -50 19t-19 31q0 9 4 20q6 15 16 21.5t21 6.5q10 0 21.5 -5.5t35.5 -16.5l155 -73l-21 -52z" />
    <glyph glyph-name="Oacute" unicode="&#xd3;" horiz-adv-x="697" 
d="M214 11q-54 24 -87.5 71t-48.5 117.5t-15 163.5q0 94 16 165t50.5 118.5t89 71.5t131.5 24q79 0 133 -23.5t87.5 -70.5t48.5 -117.5t15 -163.5q0 -94 -16 -165t-50.5 -118.5t-89 -71.5t-131.5 -24q-79 0 -133 23zM208 132q23 -34 58 -48.5t82 -14.5q48 0 83 14.5
t58.5 48.5t34.5 91t11 141q0 85 -11.5 142t-34.5 91.5t-58 49t-82 14.5q-48 0 -83 -14.5t-58.5 -48.5t-34.5 -91t-11 -141q0 -85 11.5 -142t34.5 -92zM261 785l-21 52l155 73q24 11 35.5 16.5t21.5 5.5q11 0 21 -6.5t16 -21.5q4 -11 4 -20q0 -21 -19 -31t-50 -19z" />
    <glyph glyph-name="Ocircumflex" unicode="&#xd4;" horiz-adv-x="697" 
d="M214 11q-54 24 -87.5 71t-48.5 117.5t-15 163.5q0 94 16 165t50.5 118.5t89 71.5t131.5 24q79 0 133 -23.5t87.5 -70.5t48.5 -117.5t15 -163.5q0 -94 -16 -165t-50.5 -118.5t-89 -71.5t-131.5 -24q-79 0 -133 23zM208 132q23 -34 58 -48.5t82 -14.5q48 0 83 14.5
t58.5 48.5t34.5 91t11 141q0 85 -11.5 142t-34.5 91.5t-58 49t-82 14.5q-48 0 -83 -14.5t-58.5 -48.5t-34.5 -91t-11 -141q0 -85 11.5 -142t34.5 -92zM218 783l-32 46l108 87q17 14 28.5 18.5t25.5 4.5t25.5 -4.5t28.5 -18.5l108 -87l-32 -46l-130 80z" />
    <glyph glyph-name="Otilde" unicode="&#xd5;" horiz-adv-x="697" 
d="M214 11q-54 24 -87.5 71t-48.5 117.5t-15 163.5q0 94 16 165t50.5 118.5t89 71.5t131.5 24q79 0 133 -23.5t87.5 -70.5t48.5 -117.5t15 -163.5q0 -94 -16 -165t-50.5 -118.5t-89 -71.5t-131.5 -24q-79 0 -133 23zM208 132q23 -34 58 -48.5t82 -14.5q48 0 83 14.5
t58.5 48.5t34.5 91t11 141q0 85 -11.5 142t-34.5 91.5t-58 49t-82 14.5q-48 0 -83 -14.5t-58.5 -48.5t-34.5 -91t-11 -141q0 -85 11.5 -142t34.5 -92zM174 838q20 32 47 52.5t60 20.5q22 0 39.5 -6.5t33 -14.5t30.5 -14.5t32 -6.5q20 0 33 9.5t28 28.5l46 -36
q-20 -32 -47 -52.5t-60 -20.5q-22 0 -39.5 6.5t-33 14.5t-30.5 14.5t-32 6.5q-20 0 -33 -9.5t-28 -28.5z" />
    <glyph glyph-name="Odieresis" unicode="&#xd6;" horiz-adv-x="697" 
d="M214 11q-54 24 -87.5 71t-48.5 117.5t-15 163.5q0 94 16 165t50.5 118.5t89 71.5t131.5 24q79 0 133 -23.5t87.5 -70.5t48.5 -117.5t15 -163.5q0 -94 -16 -165t-50.5 -118.5t-89 -71.5t-131.5 -24q-79 0 -133 23zM208 132q23 -34 58 -48.5t82 -14.5q48 0 83 14.5
t58.5 48.5t34.5 91t11 141q0 85 -11.5 142t-34.5 91.5t-58 49t-82 14.5q-48 0 -83 -14.5t-58.5 -48.5t-34.5 -91t-11 -141q0 -85 11.5 -142t34.5 -92zM258 797q-55 0 -55 55q0 27 14 42t41 15q28 0 42 -15t14 -41q0 -56 -56 -56zM439 797q-56 0 -56 55q0 27 14 42t42 15
q27 0 41 -15t14 -41q0 -56 -55 -56z" />
    <glyph glyph-name="multiply" unicode="&#xd7;" horiz-adv-x="534" 
d="M144 186l-50 50l123 123l-123 123l50 50l123 -123l123 123l50 -50l-123 -123l123 -123l-50 -50l-123 123z" />
    <glyph glyph-name="Oslash" unicode="&#xd8;" horiz-adv-x="697" 
d="M83 -20l52 90q-38 47 -55 120t-17 173q0 94 16 165t50.5 118.5t89 71.5t131.5 24q96 0 156 -36l46 79l60 -33l-53 -90q40 -48 57.5 -121t17.5 -174q0 -94 -16 -165t-50.5 -118.5t-89 -71.5t-131.5 -24q-98 0 -159 37l-45 -78zM233 102q23 -18 51.5 -25.5t63.5 -7.5
q49 0 84.5 14.5t59 48.5t35 91t11.5 141q0 71 -8 121.5t-24 85.5zM461 629q-22 17 -49.5 24.5t-62.5 7.5q-49 0 -84.5 -14.5t-59 -48.5t-35 -91t-11.5 -141q0 -69 7 -119t23 -85z" />
    <glyph glyph-name="Ugrave" unicode="&#xd9;" horiz-adv-x="675" 
d="M180 338q0 -87 9 -140t28.5 -81.5t48.5 -38t70 -9.5t71 9.5t49.5 38t29 80.5t9.5 138v395h98v-391q0 -92 -13 -158.5t-43.5 -109.5t-80.5 -63t-124 -20q-76 0 -124.5 20t-76.5 62t-38.5 107.5t-10.5 156.5v396h98v-392zM245 834q-31 9 -50 19t-19 31q0 9 4 20
q6 15 16 21.5t21 6.5q10 0 21.5 -5.5t35.5 -16.5l155 -73l-21 -52z" />
    <glyph glyph-name="Uacute" unicode="&#xda;" horiz-adv-x="675" 
d="M180 338q0 -87 9 -140t28.5 -81.5t48.5 -38t70 -9.5t71 9.5t49.5 38t29 80.5t9.5 138v395h98v-391q0 -92 -13 -158.5t-43.5 -109.5t-80.5 -63t-124 -20q-76 0 -124.5 20t-76.5 62t-38.5 107.5t-10.5 156.5v396h98v-392zM267 785l-21 52l155 73q24 11 35.5 16.5t21.5 5.5
q11 0 21 -6.5t16 -21.5q4 -11 4 -20q0 -21 -19 -31t-50 -19z" />
    <glyph glyph-name="Ucircumflex" unicode="&#xdb;" horiz-adv-x="675" 
d="M180 338q0 -87 9 -140t28.5 -81.5t48.5 -38t70 -9.5t71 9.5t49.5 38t29 80.5t9.5 138v395h98v-391q0 -92 -13 -158.5t-43.5 -109.5t-80.5 -63t-124 -20q-76 0 -124.5 20t-76.5 62t-38.5 107.5t-10.5 156.5v396h98v-392zM207 783l-32 46l108 87q17 14 28.5 18.5t25.5 4.5
t25.5 -4.5t28.5 -18.5l108 -87l-32 -46l-130 80z" />
    <glyph glyph-name="Udieresis" unicode="&#xdc;" horiz-adv-x="675" 
d="M180 338q0 -87 9 -140t28.5 -81.5t48.5 -38t70 -9.5t71 9.5t49.5 38t29 80.5t9.5 138v395h98v-391q0 -92 -13 -158.5t-43.5 -109.5t-80.5 -63t-124 -20q-76 0 -124.5 20t-76.5 62t-38.5 107.5t-10.5 156.5v396h98v-392zM248 797q-55 0 -55 55q0 27 14 42t41 15
q28 0 42 -15t14 -41q0 -56 -56 -56zM429 797q-56 0 -56 55q0 27 14 42t42 15q27 0 41 -15t14 -41q0 -56 -55 -56z" />
    <glyph glyph-name="Yacute" unicode="&#xdd;" horiz-adv-x="577" 
d="M241 0v309l-221 421h105l165 -335l165 335h102l-218 -416v-314h-98zM206 785l-21 52l155 73q24 11 35.5 16.5t21.5 5.5q11 0 21 -6.5t16 -21.5q4 -11 4 -20q0 -21 -19 -31t-50 -19z" />
    <glyph glyph-name="Thorn" unicode="&#xde;" horiz-adv-x="583" 
d="M180 236h110q37 0 65.5 6.5t47 22.5t28 43.5t9.5 69.5q0 41 -9 68.5t-27.5 43.5t-47 22.5t-66.5 6.5h-110v-283zM81 0v730h99v-132h118q126 0 183 -55t57 -164q0 -105 -56.5 -163t-183.5 -58h-118v-158h-99z" />
    <glyph glyph-name="germandbls" unicode="&#xdf;" horiz-adv-x="570" 
d="M73 0v537q0 92 49 145.5t149 53.5q92 0 136 -42t44 -114q0 -52 -21 -84.5t-53 -55.5l-14 -10q-27 -20 -37.5 -31t-10.5 -28q0 -10 3 -17t12 -13.5t25.5 -12.5t42.5 -15l18 -6q27 -9 49 -20t38.5 -28.5t25.5 -42.5t9 -62q0 -83 -45 -124t-128 -41q-42 0 -78 8t-58 14v57
q26 -4 53.5 -6.5t53.5 -2.5q59 0 86 19.5t27 73.5q0 22 -5 36.5t-16 24t-29 17t-45 15.5l-22 7q-27 9 -46 17.5t-31.5 20.5t-18 28t-5.5 39q0 22 5 37.5t14.5 28.5t23 24t30.5 23l15 11q25 17 35 36.5t10 50.5q0 45 -21.5 69t-73.5 24q-51 0 -77.5 -27t-26.5 -94v-540h-92z
" />
    <glyph glyph-name="agrave" unicode="&#xe0;" horiz-adv-x="508" 
d="M485 1q-8 -2 -20 -3.5t-22 -1.5q-41 0 -65.5 14t-35.5 47q-23 -32 -57.5 -49.5t-82.5 -17.5q-161 0 -161 152q0 42 13 71.5t38 48t60 27t79 8.5h103v25q0 35 -8.5 57t-24.5 34t-39 16.5t-52 4.5q-14 0 -31.5 -1t-35.5 -2.5t-34.5 -3.5t-27.5 -3v57q30 11 69 19.5t87 8.5
q95 0 140 -42.5t45 -140.5v-214q0 -32 10.5 -46t39.5 -14h13v-51zM231 234q-53 0 -79 -20t-26 -67q0 -48 25 -66.5t64 -18.5q61 0 90 32.5t29 83.5v56h-103zM149 639q-18 6 -30.5 15.5t-12.5 26.5q0 10 4 19q7 15 15.5 21t19.5 6q14 0 36 -10l170 -82l-22 -54z" />
    <glyph glyph-name="aacute" unicode="&#xe1;" horiz-adv-x="508" 
d="M485 1q-8 -2 -20 -3.5t-22 -1.5q-41 0 -65.5 14t-35.5 47q-23 -32 -57.5 -49.5t-82.5 -17.5q-161 0 -161 152q0 42 13 71.5t38 48t60 27t79 8.5h103v25q0 35 -8.5 57t-24.5 34t-39 16.5t-52 4.5q-14 0 -31.5 -1t-35.5 -2.5t-34.5 -3.5t-27.5 -3v57q30 11 69 19.5t87 8.5
q95 0 140 -42.5t45 -140.5v-214q0 -32 10.5 -46t39.5 -14h13v-51zM231 234q-53 0 -79 -20t-26 -67q0 -48 25 -66.5t64 -18.5q61 0 90 32.5t29 83.5v56h-103zM139 581l-22 54l170 82q22 10 36 10q11 0 19.5 -6t15.5 -21q4 -9 4 -19q0 -17 -12.5 -26.5t-30.5 -15.5z" />
    <glyph glyph-name="acircumflex" unicode="&#xe2;" horiz-adv-x="508" 
d="M485 1q-8 -2 -20 -3.5t-22 -1.5q-41 0 -65.5 14t-35.5 47q-23 -32 -57.5 -49.5t-82.5 -17.5q-161 0 -161 152q0 42 13 71.5t38 48t60 27t79 8.5h103v25q0 35 -8.5 57t-24.5 34t-39 16.5t-52 4.5q-14 0 -31.5 -1t-35.5 -2.5t-34.5 -3.5t-27.5 -3v57q30 11 69 19.5t87 8.5
q95 0 140 -42.5t45 -140.5v-214q0 -32 10.5 -46t39.5 -14h13v-51zM231 234q-53 0 -79 -20t-26 -67q0 -48 25 -66.5t64 -18.5q61 0 90 32.5t29 83.5v56h-103zM114 581l-33 45l106 85q17 14 27.5 18.5t24.5 4.5t24.5 -4.5t27.5 -18.5l106 -85l-33 -45l-125 79z" />
    <glyph glyph-name="atilde" unicode="&#xe3;" horiz-adv-x="508" 
d="M485 1q-8 -2 -20 -3.5t-22 -1.5q-41 0 -65.5 14t-35.5 47q-23 -32 -57.5 -49.5t-82.5 -17.5q-161 0 -161 152q0 42 13 71.5t38 48t60 27t79 8.5h103v25q0 35 -8.5 57t-24.5 34t-39 16.5t-52 4.5q-14 0 -31.5 -1t-35.5 -2.5t-34.5 -3.5t-27.5 -3v57q30 11 69 19.5t87 8.5
q95 0 140 -42.5t45 -140.5v-214q0 -32 10.5 -46t39.5 -14h13v-51zM231 234q-53 0 -79 -20t-26 -67q0 -48 25 -66.5t64 -18.5q61 0 90 32.5t29 83.5v56h-103zM67 642q20 32 46 53.5t58 21.5q21 0 37.5 -6.5t31.5 -14.5t29.5 -14.5t31.5 -6.5q19 0 32 9.5t27 28.5l45 -38
q-20 -32 -46 -53.5t-58 -21.5q-21 0 -38 6.5t-32 14.5t-29.5 14.5t-30.5 6.5q-19 0 -32 -9.5t-27 -28.5z" />
    <glyph glyph-name="adieresis" unicode="&#xe4;" horiz-adv-x="508" 
d="M485 1q-8 -2 -20 -3.5t-22 -1.5q-41 0 -65.5 14t-35.5 47q-23 -32 -57.5 -49.5t-82.5 -17.5q-161 0 -161 152q0 42 13 71.5t38 48t60 27t79 8.5h103v25q0 35 -8.5 57t-24.5 34t-39 16.5t-52 4.5q-14 0 -31.5 -1t-35.5 -2.5t-34.5 -3.5t-27.5 -3v57q30 11 69 19.5t87 8.5
q95 0 140 -42.5t45 -140.5v-214q0 -32 10.5 -46t39.5 -14h13v-51zM231 234q-53 0 -79 -20t-26 -67q0 -48 25 -66.5t64 -18.5q61 0 90 32.5t29 83.5v56h-103zM155 603q-27 0 -40 14t-13 40q0 55 53 55q26 0 39.5 -14t13.5 -40q0 -55 -53 -55zM330 603q-26 0 -39.5 14
t-13.5 40q0 55 53 55q27 0 40 -14t13 -40q0 -55 -53 -55z" />
    <glyph glyph-name="aring" unicode="&#xe5;" horiz-adv-x="508" 
d="M485 1q-8 -2 -20 -3.5t-22 -1.5q-41 0 -65.5 14t-35.5 47q-23 -32 -57.5 -49.5t-82.5 -17.5q-161 0 -161 152q0 42 13 71.5t38 48t60 27t79 8.5h103v25q0 35 -8.5 57t-24.5 34t-39 16.5t-52 4.5q-14 0 -31.5 -1t-35.5 -2.5t-34.5 -3.5t-27.5 -3v57q30 11 69 19.5t87 8.5
q95 0 140 -42.5t45 -140.5v-214q0 -32 10.5 -46t39.5 -14h13v-51zM231 234q-53 0 -79 -20t-26 -67q0 -48 25 -66.5t64 -18.5q61 0 90 32.5t29 83.5v56h-103zM209 639q11 -11 29 -11t28.5 11.5t10.5 31.5t-10.5 31.5t-28.5 11.5t-28.5 -11.5t-10.5 -31.5t10 -32zM171 601
q-25 25 -25 70t25 69.5t67 24.5t67 -24.5t25 -69.5t-25 -69.5t-67 -24.5t-67 24z" />
    <glyph glyph-name="ae" unicode="&#xe6;" horiz-adv-x="790" 
d="M81 481q29 11 67 19.5t85 8.5q59 0 97.5 -17.5t58.5 -55.5q50 74 158 74q52 0 88 -17t58.5 -49.5t32.5 -79.5t10 -107v-35h-313q3 -52 14.5 -83.5t32.5 -48t50.5 -22t67.5 -5.5q35 0 65 3t58 7v-60q-30 -12 -69 -18.5t-77 -6.5q-74 0 -121 24t-72 71q-20 -42 -59.5 -67.5
t-106.5 -25.5q-79 0 -122 38.5t-43 114.5q0 84 51.5 119t138.5 35h103v25q0 34 -8.5 56t-24 34.5t-38 17t-50.5 4.5q-15 0 -33.5 -1t-37 -2.5t-34.5 -3.5t-27 -3v57zM231 234q-53 0 -79 -20t-26 -67q0 -48 25 -66.5t64 -18.5q61 0 90 32.5t29 83.5v56h-103zM648 287
q0 79 -23.5 114.5t-82.5 35.5q-64 0 -90 -38.5t-30 -111.5h226z" />
    <glyph glyph-name="ccedilla" unicode="&#xe7;" horiz-adv-x="448" 
d="M148 -103q8 -1 13 -1h10q25 0 39 5.5t21.5 16.5t9.5 27.5t2 39.5v6q-103 8 -146 72t-43 183q0 128 50 195.5t164 67.5q40 0 73.5 -6.5t62.5 -14.5v-61q-29 2 -57.5 4t-52.5 2q-39 0 -66.5 -7t-44.5 -27.5t-25 -57.5t-8 -97q0 -54 7 -88.5t25.5 -55t50.5 -28t81 -7.5
q17 0 41.5 1t53.5 3v-61q-45 -13 -96 -17v-12q0 -73 -22.5 -107.5t-83.5 -34.5q-13 0 -28.5 1.5t-30.5 5.5v53z" />
    <glyph glyph-name="egrave" unicode="&#xe8;" horiz-adv-x="513" 
d="M146 222q3 -52 14.5 -83.5t32.5 -48t50.5 -22t67.5 -5.5q35 0 65 3t58 7v-60q-30 -12 -68.5 -18.5t-79.5 -6.5q-125 0 -178.5 64.5t-53.5 192.5q0 138 54.5 201.5t157.5 63.5q53 0 90 -16.5t60 -49t33 -79.5t10 -108v-35h-313zM371 287q0 79 -23.5 114.5t-82.5 35.5
q-64 0 -90 -38.5t-30 -111.5h226zM165 639q-18 6 -30.5 15.5t-12.5 26.5q0 10 4 19q7 15 15.5 21t19.5 6q14 0 36 -10l170 -82l-22 -54z" />
    <glyph glyph-name="eacute" unicode="&#xe9;" horiz-adv-x="513" 
d="M146 222q3 -52 14.5 -83.5t32.5 -48t50.5 -22t67.5 -5.5q35 0 65 3t58 7v-60q-30 -12 -68.5 -18.5t-79.5 -6.5q-125 0 -178.5 64.5t-53.5 192.5q0 138 54.5 201.5t157.5 63.5q53 0 90 -16.5t60 -49t33 -79.5t10 -108v-35h-313zM371 287q0 79 -23.5 114.5t-82.5 35.5
q-64 0 -90 -38.5t-30 -111.5h226zM166 581l-22 54l170 82q22 10 36 10q11 0 19.5 -6t15.5 -21q4 -9 4 -19q0 -17 -12.5 -26.5t-30.5 -15.5z" />
    <glyph glyph-name="ecircumflex" unicode="&#xea;" horiz-adv-x="513" 
d="M146 222q3 -52 14.5 -83.5t32.5 -48t50.5 -22t67.5 -5.5q35 0 65 3t58 7v-60q-30 -12 -68.5 -18.5t-79.5 -6.5q-125 0 -178.5 64.5t-53.5 192.5q0 138 54.5 201.5t157.5 63.5q53 0 90 -16.5t60 -49t33 -79.5t10 -108v-35h-313zM371 287q0 79 -23.5 114.5t-82.5 35.5
q-64 0 -90 -38.5t-30 -111.5h226zM137 581l-33 45l106 85q17 14 27.5 18.5t24.5 4.5t24.5 -4.5t27.5 -18.5l106 -85l-33 -45l-125 79z" />
    <glyph glyph-name="edieresis" unicode="&#xeb;" horiz-adv-x="513" 
d="M146 222q3 -52 14.5 -83.5t32.5 -48t50.5 -22t67.5 -5.5q35 0 65 3t58 7v-60q-30 -12 -68.5 -18.5t-79.5 -6.5q-125 0 -178.5 64.5t-53.5 192.5q0 138 54.5 201.5t157.5 63.5q53 0 90 -16.5t60 -49t33 -79.5t10 -108v-35h-313zM371 287q0 79 -23.5 114.5t-82.5 35.5
q-64 0 -90 -38.5t-30 -111.5h226zM175 603q-27 0 -40 14t-13 40q0 55 53 55q26 0 39.5 -14t13.5 -40q0 -55 -53 -55zM350 603q-26 0 -39.5 14t-13.5 40q0 55 53 55q27 0 40 -14t13 -40q0 -55 -53 -55z" />
    <glyph glyph-name="igrave" unicode="&#xec;" horiz-adv-x="240" 
d="M12 639q-18 6 -30.5 15.5t-12.5 26.5q0 10 4 19q7 15 15.5 21t19.5 6q14 0 36 -10l170 -82l-22 -54zM74 0v498h92v-498h-92z" />
    <glyph glyph-name="iacute" unicode="&#xed;" horiz-adv-x="240" 
d="M48 581l-22 54l170 82q22 10 36 10q11 0 19.5 -6t15.5 -21q4 -9 4 -19q0 -17 -12.5 -26.5t-30.5 -15.5zM74 0v498h92v-498h-92z" />
    <glyph glyph-name="icircumflex" unicode="&#xee;" horiz-adv-x="240" 
d="M74 0v498h92v-498h-92zM-4 581l-33 45l106 85q17 14 27.5 18.5t24.5 4.5t24.5 -4.5t27.5 -18.5l106 -85l-33 -45l-125 79z" />
    <glyph glyph-name="idieresis" unicode="&#xef;" horiz-adv-x="240" 
d="M34 603q-27 0 -40 14t-13 40q0 55 53 55q26 0 39.5 -14t13.5 -40q0 -55 -53 -55zM209 603q-26 0 -39.5 14t-13.5 40q0 55 53 55q27 0 40 -14t13 -40q0 -55 -53 -55zM74 0v498h92v-498h-92z" />
    <glyph glyph-name="eth" unicode="&#xf0;" horiz-adv-x="548" 
d="M270 531l-23 49l91 41q-20 24 -48 37.5t-70 13.5q-10 0 -23.5 -0.5t-27.5 -2.5v58q20 4 39 6t38 2q58 0 98.5 -21t69.5 -59l84 38l23 -49l-80 -36q28 -58 39 -137t11 -161q0 -76 -9 -135.5t-33 -101t-66.5 -63.5t-109.5 -22q-59 0 -100.5 17.5t-67.5 50t-38.5 77.5
t-12.5 100q0 118 52.5 179t155.5 61q50 0 79 -14t52 -38q-2 43 -8.5 82t-19.5 71zM180 103q33 -38 95 -38q36 0 60 12t38 34t19.5 53.5t5.5 71.5q0 39 -5.5 69t-19 51t-37 32t-59.5 11q-69 0 -99 -40.5t-30 -125.5q0 -92 32 -130z" />
    <glyph glyph-name="ntilde" unicode="&#xf1;" horiz-adv-x="555" 
d="M74 0v498h74l8 -56q25 29 61.5 48.5t97.5 19.5q49 0 82 -14.5t53 -40t28 -60.5t8 -77v-318h-92v308q0 69 -24.5 96.5t-78.5 27.5q-26 0 -49 -6.5t-40 -21t-26.5 -38.5t-9.5 -58v-308h-92zM117 642q20 32 46 53.5t58 21.5q21 0 37.5 -6.5t31.5 -14.5t29.5 -14.5t31.5 -6.5
q19 0 32 9.5t27 28.5l45 -38q-20 -32 -46 -53.5t-58 -21.5q-21 0 -38 6.5t-32 14.5t-29.5 14.5t-30.5 6.5q-19 0 -32 -9.5t-27 -28.5z" />
    <glyph glyph-name="ograve" unicode="&#xf2;" horiz-adv-x="550" 
d="M180 105q17 -22 40.5 -31t55.5 -9q31 0 54.5 9t39 30.5t23.5 56.5t8 88q0 52 -8 87.5t-24.5 57t-40.5 30.5t-55 9t-54.5 -9t-39 -30t-23.5 -56.5t-8 -87.5q0 -53 8 -88t24 -57zM274 -12q-112 0 -166 65t-54 195q0 131 54.5 196.5t167.5 65.5q112 0 166 -65t54 -195
q0 -131 -54.5 -196.5t-167.5 -65.5zM180 639q-18 6 -30.5 15.5t-12.5 26.5q0 10 4 19q7 15 15.5 21t19.5 6q14 0 36 -10l170 -82l-22 -54z" />
    <glyph glyph-name="oacute" unicode="&#xf3;" horiz-adv-x="550" 
d="M180 105q17 -22 40.5 -31t55.5 -9q31 0 54.5 9t39 30.5t23.5 56.5t8 88q0 52 -8 87.5t-24.5 57t-40.5 30.5t-55 9t-54.5 -9t-39 -30t-23.5 -56.5t-8 -87.5q0 -53 8 -88t24 -57zM274 -12q-112 0 -166 65t-54 195q0 131 54.5 196.5t167.5 65.5q112 0 166 -65t54 -195
q0 -131 -54.5 -196.5t-167.5 -65.5zM188 581l-22 54l170 82q22 10 36 10q11 0 19.5 -6t15.5 -21q4 -9 4 -19q0 -17 -12.5 -26.5t-30.5 -15.5z" />
    <glyph glyph-name="ocircumflex" unicode="&#xf4;" horiz-adv-x="550" 
d="M180 105q17 -22 40.5 -31t55.5 -9q31 0 54.5 9t39 30.5t23.5 56.5t8 88q0 52 -8 87.5t-24.5 57t-40.5 30.5t-55 9t-54.5 -9t-39 -30t-23.5 -56.5t-8 -87.5q0 -53 8 -88t24 -57zM274 -12q-112 0 -166 65t-54 195q0 131 54.5 196.5t167.5 65.5q112 0 166 -65t54 -195
q0 -131 -54.5 -196.5t-167.5 -65.5zM150 581l-33 45l106 85q17 14 27.5 18.5t24.5 4.5t24.5 -4.5t27.5 -18.5l106 -85l-33 -45l-125 79z" />
    <glyph glyph-name="otilde" unicode="&#xf5;" horiz-adv-x="550" 
d="M180 105q17 -22 40.5 -31t55.5 -9q31 0 54.5 9t39 30.5t23.5 56.5t8 88q0 52 -8 87.5t-24.5 57t-40.5 30.5t-55 9t-54.5 -9t-39 -30t-23.5 -56.5t-8 -87.5q0 -53 8 -88t24 -57zM274 -12q-112 0 -166 65t-54 195q0 131 54.5 196.5t167.5 65.5q112 0 166 -65t54 -195
q0 -131 -54.5 -196.5t-167.5 -65.5zM108 642q20 32 46 53.5t58 21.5q21 0 37.5 -6.5t31.5 -14.5t29.5 -14.5t31.5 -6.5q19 0 32 9.5t27 28.5l45 -38q-20 -32 -46 -53.5t-58 -21.5q-21 0 -38 6.5t-32 14.5t-29.5 14.5t-30.5 6.5q-19 0 -32 -9.5t-27 -28.5z" />
    <glyph glyph-name="odieresis" unicode="&#xf6;" horiz-adv-x="550" 
d="M180 105q17 -22 40.5 -31t55.5 -9q31 0 54.5 9t39 30.5t23.5 56.5t8 88q0 52 -8 87.5t-24.5 57t-40.5 30.5t-55 9t-54.5 -9t-39 -30t-23.5 -56.5t-8 -87.5q0 -53 8 -88t24 -57zM274 -12q-112 0 -166 65t-54 195q0 131 54.5 196.5t167.5 65.5q112 0 166 -65t54 -195
q0 -131 -54.5 -196.5t-167.5 -65.5zM188 603q-27 0 -40 14t-13 40q0 55 53 55q26 0 39.5 -14t13.5 -40q0 -55 -53 -55zM363 603q-26 0 -39.5 14t-13.5 40q0 55 53 55q27 0 40 -14t13 -40q0 -55 -53 -55z" />
    <glyph glyph-name="divide" unicode="&#xf7;" horiz-adv-x="534" 
d="M74 325v73h386v-73h-386zM267 476q-49 0 -49 50q0 52 49 52t49 -50q0 -52 -49 -52zM267 145q-49 0 -49 50q0 52 49 52t49 -50q0 -52 -49 -52z" />
    <glyph glyph-name="oslash" unicode="&#xf8;" horiz-adv-x="550" 
d="M68 -18l43 67q-57 66 -57 199q0 131 54.5 196.5t167.5 65.5q70 0 116 -25l41 63l49 -32l-44 -68q58 -64 58 -198q0 -131 -54.5 -196.5t-167.5 -65.5q-35 0 -64 6.5t-53 18.5l-40 -62zM347 415q-28 18 -74 18q-32 0 -56.5 -9t-41 -30t-24.5 -56.5t-8 -87.5q0 -80 19 -121z
M202 82q28 -17 74 -17q32 0 56.5 9t41 30.5t24.5 56.5t8 88q0 39 -5 68.5t-14 50.5z" />
    <glyph glyph-name="ugrave" unicode="&#xf9;" horiz-adv-x="552" 
d="M161 190q0 -69 24.5 -96.5t77.5 -27.5q26 0 48.5 6.5t39 21t26 38t9.5 58.5v308h92v-498h-74l-8 56q-25 -29 -61 -48.5t-97 -19.5q-49 0 -81.5 14t-52 39.5t-27.5 61t-8 77.5v318h92v-308zM176 639q-18 6 -30.5 15.5t-12.5 26.5q0 10 4 19q7 15 15.5 21t19.5 6
q14 0 36 -10l170 -82l-22 -54z" />
    <glyph glyph-name="uacute" unicode="&#xfa;" horiz-adv-x="552" 
d="M161 190q0 -69 24.5 -96.5t77.5 -27.5q26 0 48.5 6.5t39 21t26 38t9.5 58.5v308h92v-498h-74l-8 56q-25 -29 -61 -48.5t-97 -19.5q-49 0 -81.5 14t-52 39.5t-27.5 61t-8 77.5v318h92v-308zM190 581l-22 54l170 82q22 10 36 10q11 0 19.5 -6t15.5 -21q4 -9 4 -19
q0 -17 -12.5 -26.5t-30.5 -15.5z" />
    <glyph glyph-name="ucircumflex" unicode="&#xfb;" horiz-adv-x="552" 
d="M161 190q0 -69 24.5 -96.5t77.5 -27.5q26 0 48.5 6.5t39 21t26 38t9.5 58.5v308h92v-498h-74l-8 56q-25 -29 -61 -48.5t-97 -19.5q-49 0 -81.5 14t-52 39.5t-27.5 61t-8 77.5v318h92v-308zM149 581l-33 45l106 85q17 14 27.5 18.5t24.5 4.5t24.5 -4.5t27.5 -18.5l106 -85
l-33 -45l-125 79z" />
    <glyph glyph-name="udieresis" unicode="&#xfc;" horiz-adv-x="552" 
d="M161 190q0 -69 24.5 -96.5t77.5 -27.5q26 0 48.5 6.5t39 21t26 38t9.5 58.5v308h92v-498h-74l-8 56q-25 -29 -61 -48.5t-97 -19.5q-49 0 -81.5 14t-52 39.5t-27.5 61t-8 77.5v318h92v-308zM187 603q-27 0 -40 14t-13 40q0 55 53 55q26 0 39.5 -14t13.5 -40q0 -55 -53 -55
zM362 603q-26 0 -39.5 14t-13.5 40q0 55 53 55q27 0 40 -14t13 -40q0 -55 -53 -55z" />
    <glyph glyph-name="yacute" unicode="&#xfd;" horiz-adv-x="495" 
d="M35 -157q12 -1 25.5 -1.5t27.5 -0.5q24 0 40 3.5t28.5 14.5t22.5 31.5t22 55.5l17 51l-201 501h101l141 -393l125 393h94l-200 -574q-13 -37 -27.5 -65.5t-33 -48t-42.5 -29.5t-55 -10q-25 0 -46.5 4.5t-38.5 9.5v58zM167 581l-22 54l170 82q22 10 36 10q11 0 19.5 -6
t15.5 -21q4 -9 4 -19q0 -17 -12.5 -26.5t-30.5 -15.5z" />
    <glyph glyph-name="thorn" unicode="&#xfe;" horiz-adv-x="566" 
d="M74 -223v953h93v-282q20 24 53.5 43t92.5 19q102 0 150.5 -66t48.5 -191q0 -134 -53.5 -199.5t-153.5 -65.5q-53 0 -85 16t-54 41v-268h-92zM164 213q0 -42 10 -70t27.5 -45.5t41 -25t50.5 -7.5q61 0 92.5 41t31.5 142q0 54 -9 89.5t-25.5 56.5t-40 30t-53.5 9
q-27 0 -50 -7t-39.5 -23.5t-26 -44t-9.5 -68.5v-77z" />
    <glyph glyph-name="ydieresis" unicode="&#xff;" horiz-adv-x="495" 
d="M35 -157q12 -1 25.5 -1.5t27.5 -0.5q24 0 40 3.5t28.5 14.5t22.5 31.5t22 55.5l17 51l-201 501h101l141 -393l125 393h94l-200 -574q-13 -37 -27.5 -65.5t-33 -48t-42.5 -29.5t-55 -10q-25 0 -46.5 4.5t-38.5 9.5v58zM164 603q-27 0 -40 14t-13 40q0 55 53 55
q26 0 39.5 -14t13.5 -40q0 -55 -53 -55zM339 603q-26 0 -39.5 14t-13.5 40q0 55 53 55q27 0 40 -14t13 -40q0 -55 -53 -55z" />
    <glyph glyph-name="Amacron" unicode="&#x100;" horiz-adv-x="622" 
d="M20 0l235 730h111l236 -730h-104l-58 192h-265l-58 -192h-97zM197 271h223l-112 374zM172 811v71h281v-71h-281z" />
    <glyph glyph-name="amacron" unicode="&#x101;" horiz-adv-x="508" 
d="M485 1q-8 -2 -20 -3.5t-22 -1.5q-41 0 -65.5 14t-35.5 47q-23 -32 -57.5 -49.5t-82.5 -17.5q-161 0 -161 152q0 42 13 71.5t38 48t60 27t79 8.5h103v25q0 35 -8.5 57t-24.5 34t-39 16.5t-52 4.5q-14 0 -31.5 -1t-35.5 -2.5t-34.5 -3.5t-27.5 -3v57q30 11 69 19.5t87 8.5
q95 0 140 -42.5t45 -140.5v-214q0 -32 10.5 -46t39.5 -14h13v-51zM231 234q-53 0 -79 -20t-26 -67q0 -48 25 -66.5t64 -18.5q61 0 90 32.5t29 83.5v56h-103zM103 620v73h273v-73h-273z" />
    <glyph glyph-name="Abreve" unicode="&#x102;" horiz-adv-x="622" 
d="M20 0l235 730h111l236 -730h-104l-58 192h-265l-58 -192h-97zM197 271h223l-112 374zM229 917q6 -40 26.5 -55.5t55.5 -15.5t55.5 15.5t26.5 55.5h65q-1 -63 -39 -100t-108 -37t-108 37t-39 100h65z" />
    <glyph glyph-name="abreve" unicode="&#x103;" horiz-adv-x="508" 
d="M485 1q-8 -2 -20 -3.5t-22 -1.5q-41 0 -65.5 14t-35.5 47q-23 -32 -57.5 -49.5t-82.5 -17.5q-161 0 -161 152q0 42 13 71.5t38 48t60 27t79 8.5h103v25q0 35 -8.5 57t-24.5 34t-39 16.5t-52 4.5q-14 0 -31.5 -1t-35.5 -2.5t-34.5 -3.5t-27.5 -3v57q30 11 69 19.5t87 8.5
q95 0 140 -42.5t45 -140.5v-214q0 -32 10.5 -46t39.5 -14h13v-51zM231 234q-53 0 -79 -20t-26 -67q0 -48 25 -66.5t64 -18.5q61 0 90 32.5t29 83.5v56h-103zM166 719q5 -36 24.5 -51t52.5 -15t52.5 15t24.5 51h68q-1 -63 -38.5 -97t-106.5 -34t-106.5 34t-38.5 97h68z" />
    <glyph glyph-name="Aogonek" unicode="&#x104;" horiz-adv-x="622" 
d="M20 0l235 730h111l236 -730q-38 -27 -59 -52t-21 -53q0 -38 46 -38q8 0 17 0.5t17 1.5v-51q-12 -3 -24.5 -4t-23.5 -1q-108 0 -108 77q0 36 20 65t55 55h-23l-58 192h-265l-58 -192h-97zM197 271h223l-112 374z" />
    <glyph glyph-name="aogonek" unicode="&#x105;" horiz-adv-x="508" 
d="M485 -185q-12 -3 -23.5 -4t-22.5 -1q-105 0 -105 74q0 32 18 58.5t59 55.5q-52 9 -69 59q-23 -32 -57.5 -49.5t-82.5 -17.5q-161 0 -161 152q0 42 13 71.5t38 48t60 27t79 8.5h103v25q0 35 -8.5 57t-24.5 34t-39 16.5t-52 4.5q-14 0 -31.5 -1t-35.5 -2.5t-34.5 -3.5
t-27.5 -3v57q30 11 69 19.5t87 8.5q95 0 140 -42.5t45 -140.5v-214q0 -32 10.5 -46t39.5 -14h13v-51q-38 -26 -58 -51t-20 -52q0 -20 11.5 -28t33.5 -8q8 0 15.5 0.5t17.5 1.5v-49zM231 234q-53 0 -79 -20t-26 -67q0 -48 25 -66.5t64 -18.5q61 0 90 32.5t29 83.5v56h-103z
" />
    <glyph glyph-name="Cacute" unicode="&#x106;" horiz-adv-x="569" 
d="M528 19q-37 -14 -82 -22.5t-98 -8.5q-82 0 -137 23.5t-88 70t-46.5 115t-13.5 157.5q0 96 15.5 169t49 121.5t88 73t132.5 24.5q49 0 93.5 -8.5t81.5 -22.5v-69q-38 5 -81.5 11t-81.5 6q-54 0 -91.5 -13.5t-61.5 -47t-34.5 -89.5t-10.5 -140q0 -87 11.5 -144.5t36 -91.5
t64 -48t95.5 -14q39 0 80.5 6t78.5 11v-69zM253 785l-21 52l155 73q24 11 35.5 16.5t21.5 5.5q11 0 21 -6.5t16 -21.5q4 -11 4 -20q0 -21 -19 -31t-50 -19z" />
    <glyph glyph-name="cacute" unicode="&#x107;" horiz-adv-x="448" 
d="M409 8q-29 -8 -63 -13.5t-71 -5.5q-120 0 -170.5 64.5t-50.5 192.5t50 195.5t164 67.5q40 0 73.5 -6.5t62.5 -14.5v-61q-29 2 -57.5 4t-52.5 2q-39 0 -66.5 -7t-44.5 -27.5t-25 -57.5t-8 -97q0 -54 7 -88.5t25.5 -55t50.5 -28t81 -7.5q17 0 41.5 1t53.5 3v-61zM165 581
l-22 54l170 82q22 10 36 10q11 0 19.5 -6t15.5 -21q4 -9 4 -19q0 -17 -12.5 -26.5t-30.5 -15.5z" />
    <glyph glyph-name="Ccircumflex" unicode="&#x108;" horiz-adv-x="569" 
d="M528 19q-37 -14 -82 -22.5t-98 -8.5q-82 0 -137 23.5t-88 70t-46.5 115t-13.5 157.5q0 96 15.5 169t49 121.5t88 73t132.5 24.5q49 0 93.5 -8.5t81.5 -22.5v-69q-38 5 -81.5 11t-81.5 6q-54 0 -91.5 -13.5t-61.5 -47t-34.5 -89.5t-10.5 -140q0 -87 11.5 -144.5t36 -91.5
t64 -48t95.5 -14q39 0 80.5 6t78.5 11v-69zM208 783l-32 46l108 87q17 14 28.5 18.5t25.5 4.5t25.5 -4.5t28.5 -18.5l108 -87l-32 -46l-130 80z" />
    <glyph glyph-name="ccircumflex" unicode="&#x109;" horiz-adv-x="448" 
d="M409 8q-29 -8 -63 -13.5t-71 -5.5q-120 0 -170.5 64.5t-50.5 192.5t50 195.5t164 67.5q40 0 73.5 -6.5t62.5 -14.5v-61q-29 2 -57.5 4t-52.5 2q-39 0 -66.5 -7t-44.5 -27.5t-25 -57.5t-8 -97q0 -54 7 -88.5t25.5 -55t50.5 -28t81 -7.5q17 0 41.5 1t53.5 3v-61zM139 581
l-33 45l106 85q17 14 27.5 18.5t24.5 4.5t24.5 -4.5t27.5 -18.5l106 -85l-33 -45l-125 79z" />
    <glyph glyph-name="Cdotaccent" unicode="&#x10a;" horiz-adv-x="569" 
d="M528 19q-37 -14 -82 -22.5t-98 -8.5q-82 0 -137 23.5t-88 70t-46.5 115t-13.5 157.5q0 96 15.5 169t49 121.5t88 73t132.5 24.5q49 0 93.5 -8.5t81.5 -22.5v-69q-38 5 -81.5 11t-81.5 6q-54 0 -91.5 -13.5t-61.5 -47t-34.5 -89.5t-10.5 -140q0 -87 11.5 -144.5t36 -91.5
t64 -48t95.5 -14q39 0 80.5 6t78.5 11v-69zM340 794q-30 0 -45 15.5t-15 44.5t15 44.5t45 15.5t45 -15.5t15 -44.5t-15 -44.5t-45 -15.5z" />
    <glyph glyph-name="cdotaccent" unicode="&#x10b;" horiz-adv-x="448" 
d="M409 8q-29 -8 -63 -13.5t-71 -5.5q-120 0 -170.5 64.5t-50.5 192.5t50 195.5t164 67.5q40 0 73.5 -6.5t62.5 -14.5v-61q-29 2 -57.5 4t-52.5 2q-39 0 -66.5 -7t-44.5 -27.5t-25 -57.5t-8 -97q0 -54 7 -88.5t25.5 -55t50.5 -28t81 -7.5q17 0 41.5 1t53.5 3v-61zM263 600
q-29 0 -43 15t-14 42q0 59 57 59q29 0 42.5 -15t13.5 -42q0 -59 -56 -59z" />
    <glyph glyph-name="Ccaron" unicode="&#x10c;" horiz-adv-x="569" 
d="M528 19q-37 -14 -82 -22.5t-98 -8.5q-82 0 -137 23.5t-88 70t-46.5 115t-13.5 157.5q0 96 15.5 169t49 121.5t88 73t132.5 24.5q49 0 93.5 -8.5t81.5 -22.5v-69q-38 5 -81.5 11t-81.5 6q-54 0 -91.5 -13.5t-61.5 -47t-34.5 -89.5t-10.5 -140q0 -87 11.5 -144.5t36 -91.5
t64 -48t95.5 -14q39 0 80.5 6t78.5 11v-69zM184 899l32 46l130 -80l130 80l32 -46l-108 -87q-17 -14 -28.5 -18.5t-25.5 -4.5t-25.5 4.5t-28.5 18.5z" />
    <glyph glyph-name="ccaron" unicode="&#x10d;" horiz-adv-x="448" 
d="M409 8q-29 -8 -63 -13.5t-71 -5.5q-120 0 -170.5 64.5t-50.5 192.5t50 195.5t164 67.5q40 0 73.5 -6.5t62.5 -14.5v-61q-29 2 -57.5 4t-52.5 2q-39 0 -66.5 -7t-44.5 -27.5t-25 -57.5t-8 -97q0 -54 7 -88.5t25.5 -55t50.5 -28t81 -7.5q17 0 41.5 1t53.5 3v-61zM109 692
l33 45l125 -79l125 79l33 -45l-106 -85q-17 -14 -27.5 -18.5t-24.5 -4.5t-24.5 4.5t-27.5 18.5z" />
    <glyph glyph-name="Dcaron" unicode="&#x10e;" horiz-adv-x="671" 
d="M177 83h126q50 0 88 11.5t64 42.5t39.5 86t13.5 141q0 87 -13.5 142t-39.5 86.5t-64.5 43t-87.5 11.5h-126v-564zM82 0v730h227q79 0 135.5 -20.5t93 -65t53.5 -113t17 -164.5q0 -191 -73.5 -279t-228.5 -88h-224zM137 899l32 46l130 -80l130 80l32 -46l-108 -87
q-17 -14 -28.5 -18.5t-25.5 -4.5t-25.5 4.5t-28.5 18.5z" />
    <glyph glyph-name="dcaron" unicode="&#x10f;" horiz-adv-x="678" 
d="M416 0l-7 56q-11 -13 -24.5 -25t-32.5 -21.5t-43.5 -15.5t-56.5 -6q-102 0 -150 67.5t-48 188.5q0 131 53.5 198.5t153.5 67.5q53 0 85 -16t54 -41v277h92v-730h-76zM402 285q0 42 -10 70t-27.5 45.5t-41 25t-50.5 7.5q-61 0 -92.5 -41t-31.5 -142q0 -54 8.5 -89.5
t24.5 -56.5t39.5 -30t52.5 -9q28 0 51.5 7t40.5 23.5t26.5 44t9.5 68.5v77zM569 517l31 169q5 24 15 38t34 14q20 0 29.5 -10t9.5 -27q0 -7 -2 -15t-5 -17l-53 -152h-59z" />
    <glyph glyph-name="Dcroat" unicode="&#x110;" horiz-adv-x="687" 
d="M98 0v331h-80v75h80v324h227q79 0 135.5 -20.5t93 -65t53.5 -113t17 -164.5q0 -191 -73.5 -279t-228.5 -88h-224zM193 83h126q50 0 88 11.5t64 42.5t39.5 86t13.5 141q0 87 -13.5 142t-39.5 86.5t-64.5 43t-87.5 11.5h-126v-241h134v-75h-134v-248z" />
    <glyph glyph-name="dcroat" unicode="&#x111;" horiz-adv-x="566" 
d="M416 0l-7 56q-20 -26 -56 -47t-98 -21q-103 0 -152 67t-49 192q0 133 53.5 198t155.5 65q51 0 83 -16t54 -41v126h-177v67h177v84h92v-84h70v-67h-70v-579h-76zM402 285q0 42 -10.5 70t-27.5 45.5t-40.5 25t-48.5 7.5q-62 0 -94 -41t-32 -141q0 -54 8.5 -90t25 -57
t40.5 -30t54 -9q27 0 50 7t39.5 23.5t26 44t9.5 68.5v77z" />
    <glyph glyph-name="Emacron" unicode="&#x112;" horiz-adv-x="553" 
d="M82 0v730h406v-81h-310v-232h280v-82h-280v-254h321v-81h-417zM148 811v71h281v-71h-281z" />
    <glyph glyph-name="emacron" unicode="&#x113;" horiz-adv-x="513" 
d="M146 222q3 -52 14.5 -83.5t32.5 -48t50.5 -22t67.5 -5.5q35 0 65 3t58 7v-60q-30 -12 -68.5 -18.5t-79.5 -6.5q-125 0 -178.5 64.5t-53.5 192.5q0 138 54.5 201.5t157.5 63.5q53 0 90 -16.5t60 -49t33 -79.5t10 -108v-35h-313zM371 287q0 79 -23.5 114.5t-82.5 35.5
q-64 0 -90 -38.5t-30 -111.5h226zM127 620v73h273v-73h-273z" />
    <glyph glyph-name="Ebreve" unicode="&#x114;" horiz-adv-x="553" 
d="M82 0v730h406v-81h-310v-232h280v-82h-280v-254h321v-81h-417zM206 917q6 -40 26.5 -55.5t55.5 -15.5t55.5 15.5t26.5 55.5h65q-1 -63 -39 -100t-108 -37t-108 37t-39 100h65z" />
    <glyph glyph-name="ebreve" unicode="&#x115;" horiz-adv-x="513" 
d="M146 222q3 -52 14.5 -83.5t32.5 -48t50.5 -22t67.5 -5.5q35 0 65 3t58 7v-60q-30 -12 -68.5 -18.5t-79.5 -6.5q-125 0 -178.5 64.5t-53.5 192.5q0 138 54.5 201.5t157.5 63.5q53 0 90 -16.5t60 -49t33 -79.5t10 -108v-35h-313zM371 287q0 79 -23.5 114.5t-82.5 35.5
q-64 0 -90 -38.5t-30 -111.5h226zM186 719q5 -36 24.5 -51t52.5 -15t52.5 15t24.5 51h68q-1 -63 -38.5 -97t-106.5 -34t-106.5 34t-38.5 97h68z" />
    <glyph glyph-name="Edotaccent" unicode="&#x116;" horiz-adv-x="553" 
d="M82 0v730h406v-81h-310v-232h280v-82h-280v-254h321v-81h-417zM296 794q-30 0 -45 15.5t-15 44.5t15 44.5t45 15.5t45 -15.5t15 -44.5t-15 -44.5t-45 -15.5z" />
    <glyph glyph-name="edotaccent" unicode="&#x117;" horiz-adv-x="513" 
d="M146 222q3 -52 14.5 -83.5t32.5 -48t50.5 -22t67.5 -5.5q35 0 65 3t58 7v-60q-30 -12 -68.5 -18.5t-79.5 -6.5q-125 0 -178.5 64.5t-53.5 192.5q0 138 54.5 201.5t157.5 63.5q53 0 90 -16.5t60 -49t33 -79.5t10 -108v-35h-313zM371 287q0 79 -23.5 114.5t-82.5 35.5
q-64 0 -90 -38.5t-30 -111.5h226zM268 600q-29 0 -43 15t-14 42q0 59 57 59q29 0 42.5 -15t13.5 -42q0 -59 -56 -59z" />
    <glyph glyph-name="Eogonek" unicode="&#x118;" horiz-adv-x="553" 
d="M82 0v730h406v-81h-310v-232h280v-82h-280v-254h321v-81q-38 -27 -59 -52t-21 -53q0 -38 46 -38q8 0 17 0.5t17 1.5v-51q-12 -3 -24.5 -4t-23.5 -1q-108 0 -108 77q0 36 20 65t55 55h-336z" />
    <glyph glyph-name="eogonek" unicode="&#x119;" horiz-adv-x="513" 
d="M393 -185q-12 -3 -23.5 -4t-22.5 -1q-105 0 -105 74q0 29 15 54t49 51q-8 -1 -11.5 -1h-8.5q-125 0 -178.5 64.5t-53.5 192.5q0 138 54.5 201.5t157.5 63.5q53 0 90 -16.5t60 -49t33 -79.5t10 -108v-35h-313q3 -52 14.5 -83.5t32.5 -48t50.5 -22t67.5 -5.5q35 0 65 3
t58 7v-60q-10 -4 -20 -7.5t-21 -5.5q-38 -26 -58 -50.5t-20 -51.5q0 -20 11.5 -28t33.5 -8q8 0 15.5 0.5t17.5 1.5v-49zM371 287q0 79 -23.5 114.5t-82.5 35.5q-64 0 -90 -38.5t-30 -111.5h226z" />
    <glyph glyph-name="Ecaron" unicode="&#x11a;" horiz-adv-x="553" 
d="M82 0v730h406v-81h-310v-232h280v-82h-280v-254h321v-81h-417zM130 899l32 46l130 -80l130 80l32 -46l-108 -87q-17 -14 -28.5 -18.5t-25.5 -4.5t-25.5 4.5t-28.5 18.5z" />
    <glyph glyph-name="ecaron" unicode="&#x11b;" horiz-adv-x="513" 
d="M146 222q3 -52 14.5 -83.5t32.5 -48t50.5 -22t67.5 -5.5q35 0 65 3t58 7v-60q-30 -12 -68.5 -18.5t-79.5 -6.5q-125 0 -178.5 64.5t-53.5 192.5q0 138 54.5 201.5t157.5 63.5q53 0 90 -16.5t60 -49t33 -79.5t10 -108v-35h-313zM371 287q0 79 -23.5 114.5t-82.5 35.5
q-64 0 -90 -38.5t-30 -111.5h226zM108 692l33 45l125 -79l125 79l33 -45l-106 -85q-17 -14 -27.5 -18.5t-24.5 -4.5t-24.5 4.5t-27.5 18.5z" />
    <glyph glyph-name="Gcircumflex" unicode="&#x11c;" horiz-adv-x="634" 
d="M573 29q-48 -20 -102.5 -30.5t-112.5 -10.5q-86 0 -143 24.5t-90.5 71.5t-47.5 115t-14 156q0 96 15.5 168.5t51 121t92 73t137.5 24.5q54 0 101.5 -9t85.5 -23v-69q-38 5 -84.5 11.5t-88.5 6.5q-57 0 -97 -14t-65.5 -47.5t-37.5 -89.5t-12 -141q0 -86 12 -143.5
t37 -92.5t64.5 -50t93.5 -15q57 0 111 14v222h-138v75h232v-348zM219 783l-32 46l108 87q17 14 28.5 18.5t25.5 4.5t25.5 -4.5t28.5 -18.5l108 -87l-32 -46l-130 80z" />
    <glyph glyph-name="gcircumflex" unicode="&#x11d;" horiz-adv-x="566" 
d="M102 -148q11 -1 27 -2t33 -2t34 -1.5t31 -0.5q43 0 75 6.5t54 23.5t33 46t11 75v51q-22 -22 -56 -38t-91 -16q-102 0 -150.5 67t-48.5 186q0 129 53.5 196t155.5 67q57 0 90.5 -18t56.5 -47l7 53h75v-505q0 -109 -57 -165.5t-175 -56.5q-40 0 -82 6t-76 17v58zM402 287
q0 41 -10 69t-27.5 45t-41 24.5t-50.5 7.5q-30 0 -53.5 -9.5t-39 -30.5t-23.5 -55.5t-8 -84.5q0 -53 8.5 -88t24.5 -56t39.5 -29.5t52.5 -8.5q28 0 51.5 7t40.5 23t26.5 43t9.5 68v75zM154 581l-33 45l106 85q17 14 27.5 18.5t24.5 4.5t24.5 -4.5t27.5 -18.5l106 -85
l-33 -45l-125 79z" />
    <glyph glyph-name="Gbreve" unicode="&#x11e;" horiz-adv-x="634" 
d="M573 29q-48 -20 -102.5 -30.5t-112.5 -10.5q-86 0 -143 24.5t-90.5 71.5t-47.5 115t-14 156q0 96 15.5 168.5t51 121t92 73t137.5 24.5q54 0 101.5 -9t85.5 -23v-69q-38 5 -84.5 11.5t-88.5 6.5q-57 0 -97 -14t-65.5 -47.5t-37.5 -89.5t-12 -141q0 -86 12 -143.5
t37 -92.5t64.5 -50t93.5 -15q57 0 111 14v222h-138v75h232v-348zM267 917q6 -40 26.5 -55.5t55.5 -15.5t55.5 15.5t26.5 55.5h65q-1 -63 -39 -100t-108 -37t-108 37t-39 100h65z" />
    <glyph glyph-name="gbreve" unicode="&#x11f;" horiz-adv-x="566" 
d="M102 -148q11 -1 27 -2t33 -2t34 -1.5t31 -0.5q43 0 75 6.5t54 23.5t33 46t11 75v51q-22 -22 -56 -38t-91 -16q-102 0 -150.5 67t-48.5 186q0 129 53.5 196t155.5 67q57 0 90.5 -18t56.5 -47l7 53h75v-505q0 -109 -57 -165.5t-175 -56.5q-40 0 -82 6t-76 17v58zM402 287
q0 41 -10 69t-27.5 45t-41 24.5t-50.5 7.5q-30 0 -53.5 -9.5t-39 -30.5t-23.5 -55.5t-8 -84.5q0 -53 8.5 -88t24.5 -56t39.5 -29.5t52.5 -8.5q28 0 51.5 7t40.5 23t26.5 43t9.5 68v75zM202 719q5 -36 24.5 -51t52.5 -15t52.5 15t24.5 51h68q-1 -63 -38.5 -97t-106.5 -34
t-106.5 34t-38.5 97h68z" />
    <glyph glyph-name="Gdotaccent" unicode="&#x120;" horiz-adv-x="634" 
d="M573 29q-48 -20 -102.5 -30.5t-112.5 -10.5q-86 0 -143 24.5t-90.5 71.5t-47.5 115t-14 156q0 96 15.5 168.5t51 121t92 73t137.5 24.5q54 0 101.5 -9t85.5 -23v-69q-38 5 -84.5 11.5t-88.5 6.5q-57 0 -97 -14t-65.5 -47.5t-37.5 -89.5t-12 -141q0 -86 12 -143.5
t37 -92.5t64.5 -50t93.5 -15q57 0 111 14v222h-138v75h232v-348zM353 794q-30 0 -45 15.5t-15 44.5t15 44.5t45 15.5t45 -15.5t15 -44.5t-15 -44.5t-45 -15.5z" />
    <glyph glyph-name="gdotaccent" unicode="&#x121;" horiz-adv-x="566" 
d="M102 -148q11 -1 27 -2t33 -2t34 -1.5t31 -0.5q43 0 75 6.5t54 23.5t33 46t11 75v51q-22 -22 -56 -38t-91 -16q-102 0 -150.5 67t-48.5 186q0 129 53.5 196t155.5 67q57 0 90.5 -18t56.5 -47l7 53h75v-505q0 -109 -57 -165.5t-175 -56.5q-40 0 -82 6t-76 17v58zM402 287
q0 41 -10 69t-27.5 45t-41 24.5t-50.5 7.5q-30 0 -53.5 -9.5t-39 -30.5t-23.5 -55.5t-8 -84.5q0 -53 8.5 -88t24.5 -56t39.5 -29.5t52.5 -8.5q28 0 51.5 7t40.5 23t26.5 43t9.5 68v75zM283 600q-29 0 -43 15t-14 42q0 59 57 59q29 0 42.5 -15t13.5 -42q0 -59 -56 -59z" />
    <glyph glyph-name="Gcommaaccent" unicode="&#x122;" horiz-adv-x="634" 
d="M573 29q-48 -20 -102.5 -30.5t-112.5 -10.5q-86 0 -143 24.5t-90.5 71.5t-47.5 115t-14 156q0 96 15.5 168.5t51 121t92 73t137.5 24.5q54 0 101.5 -9t85.5 -23v-69q-38 5 -84.5 11.5t-88.5 6.5q-57 0 -97 -14t-65.5 -47.5t-37.5 -89.5t-12 -141q0 -86 12 -143.5
t37 -92.5t64.5 -50t93.5 -15q57 0 111 14v222h-138v75h232v-348zM282 -237l23 137q4 24 14 38t36 14q20 0 29.5 -10t9.5 -27q0 -8 -2 -16t-5 -17l-42 -119h-63z" />
    <glyph glyph-name="gcommaaccent" unicode="&#x123;" horiz-adv-x="566" 
d="M102 -148q11 -1 27 -2t33 -2t34 -1.5t31 -0.5q43 0 75 6.5t54 23.5t33 46t11 75v51q-22 -22 -56 -38t-91 -16q-102 0 -150.5 67t-48.5 186q0 129 53.5 196t155.5 67q57 0 90.5 -18t56.5 -47l7 53h75v-505q0 -109 -57 -165.5t-175 -56.5q-40 0 -82 6t-76 17v58zM402 287
q0 41 -10 69t-27.5 45t-41 24.5t-50.5 7.5q-30 0 -53.5 -9.5t-39 -30.5t-23.5 -55.5t-8 -84.5q0 -53 8.5 -88t24.5 -56t39.5 -29.5t52.5 -8.5q28 0 51.5 7t40.5 23t26.5 43t9.5 68v75zM330 626q-4 -20 -12 -34.5t-33 -14.5q-20 0 -29 10t-9 24q0 8 2 15.5t5 15.5l40 112h58z
" />
    <glyph glyph-name="Hcircumflex" unicode="&#x124;" horiz-adv-x="676" 
d="M82 0v730h98v-306h316v306h98v-730h-98v341h-316v-341h-98zM208 783l-32 46l108 87q17 14 28.5 18.5t25.5 4.5t25.5 -4.5t28.5 -18.5l108 -87l-32 -46l-130 80z" />
    <glyph glyph-name="hcircumflex" unicode="&#x125;" horiz-adv-x="555" 
d="M74 0v730h93v-280q24 26 59 43t90 17q49 0 82 -14.5t52.5 -40t27.5 -60.5t8 -77v-318h-92v308q0 69 -24.5 96.5t-78.5 27.5q-26 0 -49 -6.5t-40 -21t-26.5 -38.5t-9.5 -58v-308h-92zM68 782l-29 42l102 81q16 13 27 17.5t25 4.5t25 -4.5t27 -17.5l102 -81l-29 -42
l-125 73z" />
    <glyph glyph-name="Hbar" unicode="&#x126;" horiz-adv-x="708" 
d="M98 0v548h-80v68h80v114h98v-114h316v114h98v-114h80v-68h-80v-548h-98v336h-316v-336h-98zM196 417h316v131h-316v-131z" />
    <glyph glyph-name="hbar" unicode="&#x127;" horiz-adv-x="555" 
d="M74 0v579h-70v67h70v84h93v-84h177v-67h-177v-129q24 26 59 43t90 17q49 0 82 -14.5t52.5 -40t27.5 -60.5t8 -77v-318h-92v308q0 69 -24.5 96.5t-78.5 27.5q-26 0 -49 -6.5t-40 -21t-26.5 -38.5t-9.5 -58v-308h-92z" />
    <glyph glyph-name="Itilde" unicode="&#x128;" horiz-adv-x="262" 
d="M82 0v730h98v-730h-98zM-43 838q20 32 47 52.5t60 20.5q22 0 39.5 -6.5t33 -14.5t30.5 -14.5t32 -6.5q20 0 33 9.5t28 28.5l46 -36q-20 -32 -47 -52.5t-60 -20.5q-22 0 -39.5 6.5t-33 14.5t-30.5 14.5t-32 6.5q-20 0 -33 -9.5t-28 -28.5z" />
    <glyph glyph-name="itilde" unicode="&#x129;" horiz-adv-x="240" 
d="M-48 642q20 32 46 53.5t58 21.5q21 0 37.5 -6.5t31.5 -14.5t29.5 -14.5t31.5 -6.5q19 0 32 9.5t27 28.5l45 -38q-20 -32 -46 -53.5t-58 -21.5q-21 0 -38 6.5t-32 14.5t-29.5 14.5t-30.5 6.5q-19 0 -32 -9.5t-27 -28.5zM74 0v498h92v-498h-92z" />
    <glyph glyph-name="Imacron" unicode="&#x12a;" horiz-adv-x="262" 
d="M82 0v730h98v-730h-98zM-10 811v71h281v-71h-281z" />
    <glyph glyph-name="imacron" unicode="&#x12b;" horiz-adv-x="240" 
d="M-16 620v73h273v-73h-273zM74 0v498h92v-498h-92z" />
    <glyph glyph-name="Ibreve" unicode="&#x12c;" horiz-adv-x="262" 
d="M82 0v730h98v-730h-98zM47 917q6 -40 26.5 -55.5t55.5 -15.5t55.5 15.5t26.5 55.5h65q-1 -63 -39 -100t-108 -37t-108 37t-39 100h65z" />
    <glyph glyph-name="ibreve" unicode="&#x12d;" horiz-adv-x="240" 
d="M45 719q5 -36 24.5 -51t52.5 -15t52.5 15t24.5 51h68q-1 -63 -38.5 -97t-106.5 -34t-106.5 34t-38.5 97h68zM74 0v498h92v-498h-92z" />
    <glyph glyph-name="Iogonek" unicode="&#x12e;" horiz-adv-x="262" 
d="M180 -192q-12 -3 -24.5 -4t-23.5 -1q-108 0 -108 77q0 36 20 65t55 55h-17v730h98v-730q-38 -27 -59 -52t-21 -53q0 -38 46 -38q8 0 17 0.5t17 1.5v-51z" />
    <glyph glyph-name="iogonek" unicode="&#x12f;" horiz-adv-x="240" 
d="M166 -185q-12 -3 -23.5 -4t-22.5 -1q-105 0 -105 74q0 32 19 59t61 57h-21v498h92v-498q-38 -26 -58 -50.5t-20 -51.5q0 -20 11.5 -28t33.5 -8q8 0 15.5 0.5t17.5 1.5v-49zM121 600q-29 0 -43 15t-14 42q0 59 57 59q29 0 42.5 -15t13.5 -42q0 -59 -56 -59z" />
    <glyph glyph-name="Idotaccent" unicode="&#x130;" horiz-adv-x="262" 
d="M82 0v730h98v-730h-98zM132 794q-30 0 -45 15.5t-15 44.5t15 44.5t45 15.5t45 -15.5t15 -44.5t-15 -44.5t-45 -15.5z" />
    <glyph glyph-name="dotlessi" unicode="&#x131;" horiz-adv-x="240" 
d="M74 0v498h92v-498h-92z" />
    <glyph glyph-name="i.locl" horiz-adv-x="240" 
d="M74 0v498h92v-498h-92zM121 600q-29 0 -43 15t-14 42q0 59 57 59q29 0 42.5 -15t13.5 -42q0 -59 -56 -59z" />
    <glyph glyph-name="IJ" unicode="&#x132;" horiz-adv-x="759" 
d="M82 0v730h98v-730h-98zM292 86q35 -5 73.5 -9t69.5 -4q37 0 64.5 7t45 24.5t26 47.5t8.5 76v502h98v-492q0 -118 -49.5 -183.5t-163.5 -65.5q-48 0 -94 10t-78 22v65z" />
    <glyph glyph-name="ij" unicode="&#x133;" horiz-adv-x="490" 
d="M74 0v498h92v-498h-92zM121 600q-29 0 -43 15t-14 42q0 59 57 59q29 0 42.5 -15t13.5 -42q0 -59 -56 -59zM165 -155q13 -1 29 -2t33 -1q25 0 43.5 4.5t30.5 16.5t17.5 32.5t5.5 52.5v550h92v-548q0 -93 -39 -136t-116 -43q-11 0 -24.5 1.5t-26.5 4t-24.5 5t-20.5 5.5v58z
M371 600q-29 0 -43 15t-14 42q0 59 57 59q29 0 42.5 -15t13.5 -42q0 -59 -56 -59z" />
    <glyph glyph-name="Jcircumflex" unicode="&#x134;" horiz-adv-x="499" 
d="M32 86q35 -5 73.5 -9t69.5 -4q37 0 64.5 7t45 24.5t26 47.5t8.5 76v502h98v-492q0 -118 -49.5 -183.5t-163.5 -65.5q-48 0 -94 10t-78 22v65zM237 783l-32 46l108 87q17 14 28.5 18.5t25.5 4.5t25.5 -4.5t28.5 -18.5l108 -87l-32 -46l-130 80z" />
    <glyph glyph-name="jcircumflex" unicode="&#x135;" horiz-adv-x="250" 
d="M-75 -155q13 -1 29 -2t33 -1q25 0 43.5 4.5t30.5 16.5t17.5 32.5t5.5 52.5v550h92v-548q0 -93 -39 -136t-116 -43q-11 0 -24.5 1.5t-26.5 4t-24.5 5t-20.5 5.5v58zM3 581l-33 45l106 85q17 14 27.5 18.5t24.5 4.5t24.5 -4.5t27.5 -18.5l106 -85l-33 -45l-125 79z" />
    <glyph glyph-name="Kcommaaccent" unicode="&#x136;" horiz-adv-x="616" 
d="M82 0v730h95v-316h81q40 0 58.5 12.5t31.5 38.5l133 265h94l-157 -304q-14 -27 -30 -44l124 -259q8 -17 15 -29t15 -19.5t18.5 -11t25.5 -3.5h15v-59q-14 -3 -27.5 -4t-24.5 -1q-53 0 -79 22.5t-45 63.5l-120 254q-11 -2 -22 -3t-22 -1h-84v-332h-95zM250 -237l23 137
q4 24 14 38t36 14q20 0 29.5 -10t9.5 -27q0 -8 -2 -16t-5 -17l-42 -119h-63z" />
    <glyph glyph-name="kcommaaccent" unicode="&#x137;" horiz-adv-x="504" 
d="M74 0v730h91v-426h38q18 0 30 3t21 9t16 14.5t14 19.5l90 148h93l-110 -180q-7 -11 -15 -21t-17 -19l91 -174q15 -29 28.5 -39.5t33.5 -10.5h13v-53q-13 -2 -24 -3.5t-22 -1.5q-36 0 -61 15.5t-44 51.5l-89 173q-8 -2 -17 -3t-17 -1h-52v-232h-91zM197 -226l24 133
q4 23 13 36t34 13q20 0 28.5 -9.5t8.5 -25.5q0 -14 -6 -32l-41 -115h-61z" />
    <glyph glyph-name="kgreenlandic.case" horiz-adv-x="723" 
d="M82 0v730h95v-316h81q40 0 58.5 12.5t31.5 38.5l133 265h94l-157 -304q-14 -27 -30 -44l124 -259q8 -17 15 -29t15 -19.5t18.5 -11t25.5 -3.5h15v-59q-14 -3 -27.5 -4t-24.5 -1q-53 0 -79 22.5t-45 63.5l-120 254q-11 -2 -22 -3t-22 -1h-84v-332h-95zM692 560
q-5 -26 -16 -40.5t-36 -14.5q-21 0 -31.5 10.5t-10.5 27.5q0 8 2 16.5t5 17.5l57 154h61z" />
    <glyph glyph-name="kgreenlandic" unicode="&#x138;" horiz-adv-x="504" 
d="M74 0v498h91v-212h38q18 0 30 3.5t21 9.5t16 15.5t14 21.5l90 162h93l-110 -193q-14 -23 -32 -41l91 -163q15 -27 28.5 -37t33.5 -10h13v-53q-13 -2 -24 -3.5t-22 -1.5q-36 0 -61.5 14.5t-44.5 49.5l-86 159q-20 -5 -36 -5h-52v-214h-91z" />
    <glyph glyph-name="Lacute" unicode="&#x139;" horiz-adv-x="524" 
d="M82 0v730h98v-647h312v-83h-410zM53 785l-21 52l155 73q24 11 35.5 16.5t21.5 5.5q11 0 21 -6.5t16 -21.5q4 -11 4 -20q0 -21 -19 -31t-50 -19z" />
    <glyph glyph-name="lacute" unicode="&#x13a;" horiz-adv-x="257" 
d="M234 1q-14 -3 -26.5 -4t-25.5 -1q-50 0 -79 25.5t-29 85.5v623h92v-618q0 -33 12 -45.5t42 -12.5h14v-53zM47 780l-20 50l155 73q17 8 32 15t25 7q11 0 21 -6.5t15 -21.5q4 -9 4 -18q0 -22 -19 -31.5t-50 -18.5z" />
    <glyph glyph-name="Lcommaaccent" unicode="&#x13b;" horiz-adv-x="524" 
d="M82 0v730h98v-647h312v-83h-410zM220 -237l23 137q4 24 14 38t36 14q20 0 29.5 -10t9.5 -27q0 -8 -2 -16t-5 -17l-42 -119h-63z" />
    <glyph glyph-name="lcommaaccent" unicode="&#x13c;" horiz-adv-x="257" 
d="M234 1q-14 -3 -26.5 -4t-25.5 -1q-50 0 -79 25.5t-29 85.5v623h92v-618q0 -33 12 -45.5t42 -12.5h14v-53zM77 -226l24 133q4 23 13 36t34 13q20 0 28.5 -9.5t8.5 -25.5q0 -14 -6 -32l-41 -115h-61z" />
    <glyph glyph-name="Lcaron" unicode="&#x13d;" horiz-adv-x="524" 
d="M82 0v730h98v-647h312v-83h-410zM311 517l31 169q5 24 15 38t34 14q20 0 29.5 -10t9.5 -27q0 -7 -2 -15t-5 -17l-53 -152h-59z" />
    <glyph glyph-name="lcaron" unicode="&#x13e;" horiz-adv-x="352" 
d="M234 1q-14 -3 -26.5 -4t-25.5 -1q-50 0 -79 25.5t-29 85.5v623h92v-618q0 -33 12 -45.5t42 -12.5h14v-53zM243 517l31 169q5 24 15 38t34 14q20 0 29.5 -10t9.5 -27q0 -7 -2 -15t-5 -17l-53 -152h-59z" />
    <glyph glyph-name="Ldot" unicode="&#x13f;" horiz-adv-x="524" 
d="M82 0v730h98v-647h312v-83h-410zM394 338q-29 0 -43 16t-14 43q0 28 14 44t43 16t43 -16t14 -44q0 -27 -14 -43t-43 -16z" />
    <glyph glyph-name="ldot" unicode="&#x140;" horiz-adv-x="356" 
d="M234 1q-14 -3 -26.5 -4t-25.5 -1q-50 0 -79 25.5t-29 85.5v623h92v-618q0 -33 12 -45.5t42 -12.5h14v-53zM296 361q-29 0 -43 16t-14 43q0 28 14 44t43 16t43 -16t14 -44q0 -27 -14 -43t-43 -16z" />
    <glyph glyph-name="Lslash" unicode="&#x141;" horiz-adv-x="540" 
d="M98 0v266l-80 -40v84l80 40v380h98v-330l205 103v-84l-205 -103v-233h312v-83h-410z" />
    <glyph glyph-name="lslash" unicode="&#x142;" horiz-adv-x="268" 
d="M243 1q-14 -3 -26.5 -4t-25.5 -1q-50 0 -79 25.5t-29 85.5v208l-70 -42v82l70 42v333h92v-278l70 43v-81l-70 -43v-259q0 -33 12 -45.5t42 -12.5h14v-53z" />
    <glyph glyph-name="Nacute" unicode="&#x143;" horiz-adv-x="678" 
d="M82 0v730h86l337 -564v564h91v-730h-87l-336 562v-562h-91zM248 785l-21 52l155 73q24 11 35.5 16.5t21.5 5.5q11 0 21 -6.5t16 -21.5q4 -11 4 -20q0 -21 -19 -31t-50 -19z" />
    <glyph glyph-name="nacute" unicode="&#x144;" horiz-adv-x="555" 
d="M74 0v498h74l8 -56q25 29 61.5 48.5t97.5 19.5q49 0 82 -14.5t53 -40t28 -60.5t8 -77v-318h-92v308q0 69 -24.5 96.5t-78.5 27.5q-26 0 -49 -6.5t-40 -21t-26.5 -38.5t-9.5 -58v-308h-92zM186 581l-22 54l170 82q22 10 36 10q11 0 19.5 -6t15.5 -21q4 -9 4 -19
q0 -17 -12.5 -26.5t-30.5 -15.5z" />
    <glyph glyph-name="Ncommaaccent" unicode="&#x145;" horiz-adv-x="678" 
d="M82 0v730h86l337 -564v564h91v-730h-87l-336 562v-562h-91zM269 -237l23 137q4 24 14 38t36 14q20 0 29.5 -10t9.5 -27q0 -8 -2 -16t-5 -17l-42 -119h-63z" />
    <glyph glyph-name="ncommaaccent" unicode="&#x146;" horiz-adv-x="555" 
d="M74 0v498h74l8 -56q25 29 61.5 48.5t97.5 19.5q49 0 82 -14.5t53 -40t28 -60.5t8 -77v-318h-92v308q0 69 -24.5 96.5t-78.5 27.5q-26 0 -49 -6.5t-40 -21t-26.5 -38.5t-9.5 -58v-308h-92zM209 -226l24 133q4 23 13 36t34 13q20 0 28.5 -9.5t8.5 -25.5q0 -14 -6 -32
l-41 -115h-61z" />
    <glyph glyph-name="Ncaron" unicode="&#x147;" horiz-adv-x="678" 
d="M82 0v730h86l337 -564v564h91v-730h-87l-336 562v-562h-91zM177 899l32 46l130 -80l130 80l32 -46l-108 -87q-17 -14 -28.5 -18.5t-25.5 -4.5t-25.5 4.5t-28.5 18.5z" />
    <glyph glyph-name="ncaron" unicode="&#x148;" horiz-adv-x="555" 
d="M74 0v498h74l8 -56q25 29 61.5 48.5t97.5 19.5q49 0 82 -14.5t53 -40t28 -60.5t8 -77v-318h-92v308q0 69 -24.5 96.5t-78.5 27.5q-26 0 -49 -6.5t-40 -21t-26.5 -38.5t-9.5 -58v-308h-92zM127 692l33 45l125 -79l125 79l33 -45l-106 -85q-17 -14 -27.5 -18.5t-24.5 -4.5
t-24.5 4.5t-27.5 18.5z" />
    <glyph glyph-name="napostrophe.case" horiz-adv-x="797" 
d="M201 0v730h86l337 -564v564h91v-730h-87l-336 562v-562h-91zM1 513l31 175q5 26 16.5 40.5t37.5 14.5q42 0 42 -40q0 -18 -9 -40l-55 -150h-63z" />
    <glyph glyph-name="napostrophe" unicode="&#x149;" horiz-adv-x="606" 
d="M125 0v498h74l8 -56q25 29 61.5 48.5t97.5 19.5q49 0 82 -14.5t53 -40t28 -60.5t8 -77v-318h-92v308q0 69 -24.5 96.5t-78.5 27.5q-26 0 -49 -6.5t-40 -21t-26.5 -38.5t-9.5 -58v-308h-92zM15 513l31 175q5 26 16.5 40.5t37.5 14.5q42 0 42 -40q0 -18 -9 -40l-55 -150
h-63z" />
    <glyph glyph-name="Eng" unicode="&#x14a;" horiz-adv-x="678" 
d="M82 0v730h86l337 -564v564h91v-780q0 -93 -37.5 -136t-111.5 -43q-22 0 -48.5 5.5t-43.5 10.5v61q12 -1 27 -2t31 -1q24 0 41 4.5t28.5 16.5t17 32.5t5.5 52.5v55l-332 556v-562h-91z" />
    <glyph glyph-name="eng" unicode="&#x14b;" horiz-adv-x="555" 
d="M74 0v498h74l8 -56q25 29 61.5 48.5t97.5 19.5q49 0 82 -14.5t53 -40t28 -60.5t8 -77v-368q0 -93 -37 -136t-109 -43q-21 0 -47 5.5t-43 10.5v58q11 -1 26 -2t30 -1q23 0 39.5 4.5t27.5 16.5t16 32.5t5 52.5v360q0 69 -24.5 96.5t-78.5 27.5q-26 0 -49 -6.5t-40 -21
t-26.5 -38.5t-9.5 -58v-308h-92z" />
    <glyph glyph-name="Omacron" unicode="&#x14c;" horiz-adv-x="697" 
d="M214 11q-54 24 -87.5 71t-48.5 117.5t-15 163.5q0 94 16 165t50.5 118.5t89 71.5t131.5 24q79 0 133 -23.5t87.5 -70.5t48.5 -117.5t15 -163.5q0 -94 -16 -165t-50.5 -118.5t-89 -71.5t-131.5 -24q-79 0 -133 23zM208 132q23 -34 58 -48.5t82 -14.5q48 0 83 14.5
t58.5 48.5t34.5 91t11 141q0 85 -11.5 142t-34.5 91.5t-58 49t-82 14.5q-48 0 -83 -14.5t-58.5 -48.5t-34.5 -91t-11 -141q0 -85 11.5 -142t34.5 -92zM207 811v71h281v-71h-281z" />
    <glyph glyph-name="omacron" unicode="&#x14d;" horiz-adv-x="550" 
d="M180 105q17 -22 40.5 -31t55.5 -9q31 0 54.5 9t39 30.5t23.5 56.5t8 88q0 52 -8 87.5t-24.5 57t-40.5 30.5t-55 9t-54.5 -9t-39 -30t-23.5 -56.5t-8 -87.5q0 -53 8 -88t24 -57zM274 -12q-112 0 -166 65t-54 195q0 131 54.5 196.5t167.5 65.5q112 0 166 -65t54 -195
q0 -131 -54.5 -196.5t-167.5 -65.5zM138 620v73h273v-73h-273z" />
    <glyph glyph-name="Obreve" unicode="&#x14e;" horiz-adv-x="697" 
d="M214 11q-54 24 -87.5 71t-48.5 117.5t-15 163.5q0 94 16 165t50.5 118.5t89 71.5t131.5 24q79 0 133 -23.5t87.5 -70.5t48.5 -117.5t15 -163.5q0 -94 -16 -165t-50.5 -118.5t-89 -71.5t-131.5 -24q-79 0 -133 23zM208 132q23 -34 58 -48.5t82 -14.5q48 0 83 14.5
t58.5 48.5t34.5 91t11 141q0 85 -11.5 142t-34.5 91.5t-58 49t-82 14.5q-48 0 -83 -14.5t-58.5 -48.5t-34.5 -91t-11 -141q0 -85 11.5 -142t34.5 -92zM264 917q6 -40 26.5 -55.5t55.5 -15.5t55.5 15.5t26.5 55.5h65q-1 -63 -39 -100t-108 -37t-108 37t-39 100h65z" />
    <glyph glyph-name="obreve" unicode="&#x14f;" horiz-adv-x="550" 
d="M180 105q17 -22 40.5 -31t55.5 -9q31 0 54.5 9t39 30.5t23.5 56.5t8 88q0 52 -8 87.5t-24.5 57t-40.5 30.5t-55 9t-54.5 -9t-39 -30t-23.5 -56.5t-8 -87.5q0 -53 8 -88t24 -57zM274 -12q-112 0 -166 65t-54 195q0 131 54.5 196.5t167.5 65.5q112 0 166 -65t54 -195
q0 -131 -54.5 -196.5t-167.5 -65.5zM199 719q5 -36 24.5 -51t52.5 -15t52.5 15t24.5 51h68q-1 -63 -38.5 -97t-106.5 -34t-106.5 34t-38.5 97h68z" />
    <glyph glyph-name="Ohungarumlaut" unicode="&#x150;" horiz-adv-x="697" 
d="M214 11q-54 24 -87.5 71t-48.5 117.5t-15 163.5q0 94 16 165t50.5 118.5t89 71.5t131.5 24q79 0 133 -23.5t87.5 -70.5t48.5 -117.5t15 -163.5q0 -94 -16 -165t-50.5 -118.5t-89 -71.5t-131.5 -24q-79 0 -133 23zM208 132q23 -34 58 -48.5t82 -14.5q48 0 83 14.5
t58.5 48.5t34.5 91t11 141q0 85 -11.5 142t-34.5 91.5t-58 49t-82 14.5q-48 0 -83 -14.5t-58.5 -48.5t-34.5 -91t-11 -141q0 -85 11.5 -142t34.5 -92zM231 781l-31 39l103 95q16 14 30.5 26.5t28.5 12.5t24.5 -12.5t10.5 -26.5q0 -13 -11.5 -23t-39.5 -30zM408 781l-31 39
l103 95q16 14 30.5 26.5t28.5 12.5t24.5 -12.5t10.5 -26.5q0 -13 -11.5 -23t-39.5 -30z" />
    <glyph glyph-name="ohungarumlaut" unicode="&#x151;" horiz-adv-x="550" 
d="M180 105q17 -22 40.5 -31t55.5 -9q31 0 54.5 9t39 30.5t23.5 56.5t8 88q0 52 -8 87.5t-24.5 57t-40.5 30.5t-55 9t-54.5 -9t-39 -30t-23.5 -56.5t-8 -87.5q0 -53 8 -88t24 -57zM274 -12q-112 0 -166 65t-54 195q0 131 54.5 196.5t167.5 65.5q112 0 166 -65t54 -195
q0 -131 -54.5 -196.5t-167.5 -65.5zM334 569l-32 39l101 97q13 12 21.5 20t14.5 12t11.5 6t11.5 2q13 0 24.5 -12t11.5 -25t-11 -25t-40 -32zM163 569l-32 39l101 97q13 12 21.5 20t14.5 12t11.5 6t11.5 2q13 0 24.5 -12t11.5 -25t-11 -25t-40 -32z" />
    <glyph glyph-name="Racute" unicode="&#x154;" horiz-adv-x="603" 
d="M82 0v730h212q125 0 184.5 -52.5t59.5 -158.5q0 -29 -5.5 -58t-19.5 -55.5t-39.5 -48.5t-65.5 -36l71 -198q13 -35 28 -49t46 -14h15v-59q-14 -3 -27.5 -4t-23.5 -1q-54 0 -80 22t-41 64l-79 220h-140v-302h-95zM177 379h111q37 0 65.5 6t48 21.5t29.5 42t10 67.5
q0 78 -37.5 106.5t-114.5 28.5h-112v-272zM190 785l-21 52l155 73q24 11 35.5 16.5t21.5 5.5q11 0 21 -6.5t16 -21.5q4 -11 4 -20q0 -21 -19 -31t-50 -19z" />
    <glyph glyph-name="racute" unicode="&#x155;" horiz-adv-x="367" 
d="M74 0v498h74l10 -63q51 71 151 71q16 0 33 -3v-76q-8 1 -15 1h-14q-74 0 -110.5 -35t-36.5 -113v-280h-92zM126 581l-22 54l170 82q22 10 36 10q11 0 19.5 -6t15.5 -21q4 -9 4 -19q0 -17 -12.5 -26.5t-30.5 -15.5z" />
    <glyph glyph-name="Rcommaaccent" unicode="&#x156;" horiz-adv-x="603" 
d="M82 0v730h212q125 0 184.5 -52.5t59.5 -158.5q0 -29 -5.5 -58t-19.5 -55.5t-39.5 -48.5t-65.5 -36l71 -198q13 -35 28 -49t46 -14h15v-59q-14 -3 -27.5 -4t-23.5 -1q-54 0 -80 22t-41 64l-79 220h-140v-302h-95zM177 379h111q37 0 65.5 6t48 21.5t29.5 42t10 67.5
q0 78 -37.5 106.5t-114.5 28.5h-112v-272zM238 -237l23 137q4 24 14 38t36 14q20 0 29.5 -10t9.5 -27q0 -8 -2 -16t-5 -17l-42 -119h-63z" />
    <glyph glyph-name="rcommaaccent" unicode="&#x157;" horiz-adv-x="367" 
d="M74 0v498h74l10 -63q51 71 151 71q16 0 33 -3v-76q-8 1 -15 1h-14q-74 0 -110.5 -35t-36.5 -113v-280h-92zM49 -226l24 133q4 23 13 36t34 13q20 0 28.5 -9.5t8.5 -25.5q0 -14 -6 -32l-41 -115h-61z" />
    <glyph glyph-name="Rcaron" unicode="&#x158;" horiz-adv-x="603" 
d="M82 0v730h212q125 0 184.5 -52.5t59.5 -158.5q0 -29 -5.5 -58t-19.5 -55.5t-39.5 -48.5t-65.5 -36l71 -198q13 -35 28 -49t46 -14h15v-59q-14 -3 -27.5 -4t-23.5 -1q-54 0 -80 22t-41 64l-79 220h-140v-302h-95zM177 379h111q37 0 65.5 6t48 21.5t29.5 42t10 67.5
q0 78 -37.5 106.5t-114.5 28.5h-112v-272zM129 899l32 46l130 -80l130 80l32 -46l-108 -87q-17 -14 -28.5 -18.5t-25.5 -4.5t-25.5 4.5t-28.5 18.5z" />
    <glyph glyph-name="rcaron" unicode="&#x159;" horiz-adv-x="367" 
d="M74 0v498h74l10 -63q51 71 151 71q16 0 33 -3v-76q-8 1 -15 1h-14q-74 0 -110.5 -35t-36.5 -113v-280h-92zM52 692l33 45l125 -79l125 79l33 -45l-106 -85q-17 -14 -27.5 -18.5t-24.5 -4.5t-24.5 4.5t-27.5 18.5z" />
    <glyph glyph-name="Sacute" unicode="&#x15a;" horiz-adv-x="557" 
d="M63 95q43 -8 93 -14t95 -6q37 0 66 4.5t49 18.5t30.5 39.5t10.5 66.5q0 32 -7 52.5t-23.5 33.5t-43.5 21.5t-66 17.5l-30 7q-40 9 -73.5 22.5t-57.5 36t-37.5 55.5t-13.5 82q0 103 60.5 156t178.5 53q55 0 102.5 -10t83.5 -24v-67q-37 5 -84.5 11t-92.5 6q-34 0 -62 -4
t-48.5 -16.5t-31.5 -35.5t-11 -60q0 -32 8.5 -52.5t26 -33.5t43 -21.5t60.5 -15.5l32 -7q46 -10 80.5 -24.5t57.5 -37.5t34.5 -57t11.5 -83q0 -59 -16.5 -101t-47.5 -68.5t-76 -38.5t-102 -12q-64 0 -114 12.5t-85 26.5v67zM194 785l-21 52l155 73q24 11 35.5 16.5t21.5 5.5
q11 0 21 -6.5t16 -21.5q4 -11 4 -20q0 -21 -19 -31t-50 -19z" />
    <glyph glyph-name="sacute" unicode="&#x15b;" horiz-adv-x="458" 
d="M58 74q30 -4 69.5 -7t77.5 -3q30 0 52.5 2.5t36.5 11t21 23.5t7 39q0 20 -5 32.5t-16.5 20.5t-31 12.5t-48.5 8.5l-33 5q-27 4 -52 12.5t-43.5 24t-30 41t-11.5 64.5q0 40 13 68t37 46t57.5 26t74.5 8q45 0 82.5 -6.5t71.5 -17.5v-59q-29 3 -64.5 6t-73.5 3q-26 0 -47 -2
t-36 -9.5t-23.5 -21t-8.5 -37.5q0 -19 5.5 -30.5t17 -19t29.5 -11.5t44 -8l27 -4q35 -5 63 -14t47.5 -25.5t30 -42.5t10.5 -66q0 -83 -47 -119t-130 -36q-25 0 -50 2.5t-48 6.5t-42.5 8.5t-32.5 8.5v59zM130 581l-22 54l170 82q22 10 36 10q11 0 19.5 -6t15.5 -21
q4 -9 4 -19q0 -17 -12.5 -26.5t-30.5 -15.5z" />
    <glyph glyph-name="Scircumflex" unicode="&#x15c;" horiz-adv-x="557" 
d="M63 95q43 -8 93 -14t95 -6q37 0 66 4.5t49 18.5t30.5 39.5t10.5 66.5q0 32 -7 52.5t-23.5 33.5t-43.5 21.5t-66 17.5l-30 7q-40 9 -73.5 22.5t-57.5 36t-37.5 55.5t-13.5 82q0 103 60.5 156t178.5 53q55 0 102.5 -10t83.5 -24v-67q-37 5 -84.5 11t-92.5 6q-34 0 -62 -4
t-48.5 -16.5t-31.5 -35.5t-11 -60q0 -32 8.5 -52.5t26 -33.5t43 -21.5t60.5 -15.5l32 -7q46 -10 80.5 -24.5t57.5 -37.5t34.5 -57t11.5 -83q0 -59 -16.5 -101t-47.5 -68.5t-76 -38.5t-102 -12q-64 0 -114 12.5t-85 26.5v67zM165 783l-32 46l108 87q17 14 28.5 18.5t25.5 4.5
t25.5 -4.5t28.5 -18.5l108 -87l-32 -46l-130 80z" />
    <glyph glyph-name="scircumflex" unicode="&#x15d;" horiz-adv-x="458" 
d="M58 74q30 -4 69.5 -7t77.5 -3q30 0 52.5 2.5t36.5 11t21 23.5t7 39q0 20 -5 32.5t-16.5 20.5t-31 12.5t-48.5 8.5l-33 5q-27 4 -52 12.5t-43.5 24t-30 41t-11.5 64.5q0 40 13 68t37 46t57.5 26t74.5 8q45 0 82.5 -6.5t71.5 -17.5v-59q-29 3 -64.5 6t-73.5 3q-26 0 -47 -2
t-36 -9.5t-23.5 -21t-8.5 -37.5q0 -19 5.5 -30.5t17 -19t29.5 -11.5t44 -8l27 -4q35 -5 63 -14t47.5 -25.5t30 -42.5t10.5 -66q0 -83 -47 -119t-130 -36q-25 0 -50 2.5t-48 6.5t-42.5 8.5t-32.5 8.5v59zM107 581l-33 45l106 85q17 14 27.5 18.5t24.5 4.5t24.5 -4.5
t27.5 -18.5l106 -85l-33 -45l-125 79z" />
    <glyph glyph-name="Scedilla" unicode="&#x15e;" horiz-adv-x="557" 
d="M161 -107q9 -1 14 -1h10q26 0 41.5 5.5t23 16.5t9.5 27.5t2 39.5v8q-63 1 -113 13t-85 26v67q43 -8 93 -14t95 -6q37 0 66 4.5t49 18.5t30.5 39.5t10.5 66.5q0 32 -7 52.5t-23.5 33.5t-43.5 21.5t-66 17.5l-30 7q-40 9 -73.5 22.5t-57.5 36t-37.5 55.5t-13.5 82
q0 103 60.5 156t178.5 53q55 0 102.5 -10t83.5 -24v-67q-37 5 -84.5 11t-92.5 6q-34 0 -62 -4t-48.5 -16.5t-31.5 -35.5t-11 -60q0 -32 8.5 -52.5t26 -33.5t43 -21.5t60.5 -15.5l32 -7q46 -10 80.5 -24.5t57.5 -37.5t34.5 -57t11.5 -83q0 -101 -45 -152t-128 -63v-21
q0 -73 -23.5 -107.5t-85.5 -34.5q-14 0 -29.5 1.5t-31.5 5.5v55z" />
    <glyph glyph-name="scedilla" unicode="&#x15f;" horiz-adv-x="458" 
d="M111 -103q8 -1 13 -1h10q25 0 39 5.5t21.5 16.5t9.5 27.5t2 39.5v5q-45 2 -85 9.5t-63 15.5v59q30 -4 69.5 -7t77.5 -3q30 0 52.5 2.5t36.5 11t21 23.5t7 39q0 20 -5 32.5t-16.5 20.5t-31 12.5t-48.5 8.5l-33 5q-27 4 -52 12.5t-43.5 24t-30 41t-11.5 64.5q0 79 49 113.5
t133 34.5q45 0 82.5 -6.5t71.5 -17.5v-59q-29 3 -64.5 6t-73.5 3q-26 0 -47 -2t-36 -9.5t-23.5 -21t-8.5 -37.5q0 -19 5.5 -30.5t17 -19t29.5 -11.5t44 -8l27 -4q35 -5 63 -14t47.5 -25.5t30 -42.5t10.5 -66q0 -71 -34.5 -107.5t-97.5 -44.5v-13q0 -73 -22.5 -107.5
t-83.5 -34.5q-13 0 -28.5 1.5t-30.5 5.5v53z" />
    <glyph glyph-name="uni0162" unicode="&#x162;" horiz-adv-x="590" 
d="M163 -107q9 -1 14 -1h10q26 0 41.5 5.5t23 16.5t9.5 27.5t2 39.5v19h-17v648h-214v82h526v-82h-214v-648h-11v-27q0 -73 -23.5 -107.5t-85.5 -34.5q-14 0 -29.5 1.5t-31.5 5.5v55z" />
    <glyph glyph-name="uni0163" unicode="&#x163;" horiz-adv-x="384" 
d="M116 -103q8 -1 13 -1h10q25 0 39 5.5t21.5 16.5t9.5 27.5t2 39.5v9q-55 11 -80 51t-25 116v266h-89v53l89 17v153h92v-152h147v-71h-147v-262q0 -31 6 -51t17.5 -31.5t29 -16t40.5 -4.5q36 0 63 3v-60q-16 -5 -34.5 -8.5t-38.5 -5.5v-12q0 -73 -22.5 -107.5t-83.5 -34.5
q-13 0 -28.5 1.5t-30.5 5.5v53z" />
    <glyph glyph-name="Tcaron" unicode="&#x164;" horiz-adv-x="590" 
d="M246 0v648h-214v82h526v-82h-214v-648h-98zM132 899l32 46l130 -80l130 80l32 -46l-108 -87q-17 -14 -28.5 -18.5t-25.5 -4.5t-25.5 4.5t-28.5 18.5z" />
    <glyph glyph-name="tcaron" unicode="&#x165;" horiz-adv-x="389" 
d="M198 165q0 -62 24 -82.5t72 -20.5q36 0 65 3v-60q-21 -6 -46 -10.5t-53 -4.5q-81 0 -117.5 40t-36.5 131v266h-89v53l89 17v153h92v-152h152v-71h-152v-262zM262 567l25 137q5 23 14.5 36.5t33.5 13.5q37 0 37 -32q0 -7 -2 -15t-5 -17l-45 -123h-58z" />
    <glyph glyph-name="Tbar" unicode="&#x166;" horiz-adv-x="590" 
d="M246 0v310h-145v75h145v263h-214v82h526v-82h-214v-263h145v-75h-145v-310h-98z" />
    <glyph glyph-name="tbar" unicode="&#x167;" horiz-adv-x="409" 
d="M27 218v66h84v143h-89v53l89 17v153h92v-152h152v-71h-152v-143h152v-66h-152v-54q0 -62 24 -82.5t72 -20.5q36 0 65 3v-59q-21 -6 -46 -10.5t-53 -4.5q-78 0 -116 41t-38 130v57h-84z" />
    <glyph glyph-name="Utilde" unicode="&#x168;" horiz-adv-x="675" 
d="M180 338q0 -87 9 -140t28.5 -81.5t48.5 -38t70 -9.5t71 9.5t49.5 38t29 80.5t9.5 138v395h98v-391q0 -92 -13 -158.5t-43.5 -109.5t-80.5 -63t-124 -20q-76 0 -124.5 20t-76.5 62t-38.5 107.5t-10.5 156.5v396h98v-392zM160 838q20 32 47 52.5t60 20.5q22 0 39.5 -6.5
t33 -14.5t30.5 -14.5t32 -6.5q20 0 33 9.5t28 28.5l46 -36q-20 -32 -47 -52.5t-60 -20.5q-22 0 -39.5 6.5t-33 14.5t-30.5 14.5t-32 6.5q-20 0 -33 -9.5t-28 -28.5z" />
    <glyph glyph-name="utilde" unicode="&#x169;" horiz-adv-x="552" 
d="M161 190q0 -69 24.5 -96.5t77.5 -27.5q26 0 48.5 6.5t39 21t26 38t9.5 58.5v308h92v-498h-74l-8 56q-25 -29 -61 -48.5t-97 -19.5q-49 0 -81.5 14t-52 39.5t-27.5 61t-8 77.5v318h92v-308zM102 642q20 32 46 53.5t58 21.5q21 0 37.5 -6.5t31.5 -14.5t29.5 -14.5
t31.5 -6.5q19 0 32 9.5t27 28.5l45 -38q-20 -32 -46 -53.5t-58 -21.5q-21 0 -38 6.5t-32 14.5t-29.5 14.5t-30.5 6.5q-19 0 -32 -9.5t-27 -28.5z" />
    <glyph glyph-name="Umacron" unicode="&#x16a;" horiz-adv-x="675" 
d="M180 338q0 -87 9 -140t28.5 -81.5t48.5 -38t70 -9.5t71 9.5t49.5 38t29 80.5t9.5 138v395h98v-391q0 -92 -13 -158.5t-43.5 -109.5t-80.5 -63t-124 -20q-76 0 -124.5 20t-76.5 62t-38.5 107.5t-10.5 156.5v396h98v-392zM193 811v71h281v-71h-281z" />
    <glyph glyph-name="umacron" unicode="&#x16b;" horiz-adv-x="552" 
d="M161 190q0 -69 24.5 -96.5t77.5 -27.5q26 0 48.5 6.5t39 21t26 38t9.5 58.5v308h92v-498h-74l-8 56q-25 -29 -61 -48.5t-97 -19.5q-49 0 -81.5 14t-52 39.5t-27.5 61t-8 77.5v318h92v-308zM135 620v73h273v-73h-273z" />
    <glyph glyph-name="Ubreve" unicode="&#x16c;" horiz-adv-x="675" 
d="M180 338q0 -87 9 -140t28.5 -81.5t48.5 -38t70 -9.5t71 9.5t49.5 38t29 80.5t9.5 138v395h98v-391q0 -92 -13 -158.5t-43.5 -109.5t-80.5 -63t-124 -20q-76 0 -124.5 20t-76.5 62t-38.5 107.5t-10.5 156.5v396h98v-392zM253 917q6 -40 26.5 -55.5t55.5 -15.5t55.5 15.5
t26.5 55.5h65q-1 -63 -39 -100t-108 -37t-108 37t-39 100h65z" />
    <glyph glyph-name="ubreve" unicode="&#x16d;" horiz-adv-x="552" 
d="M161 190q0 -69 24.5 -96.5t77.5 -27.5q26 0 48.5 6.5t39 21t26 38t9.5 58.5v308h92v-498h-74l-8 56q-25 -29 -61 -48.5t-97 -19.5q-49 0 -81.5 14t-52 39.5t-27.5 61t-8 77.5v318h92v-308zM194 719q5 -36 24.5 -51t52.5 -15t52.5 15t24.5 51h68q-1 -63 -38.5 -97
t-106.5 -34t-106.5 34t-38.5 97h68z" />
    <glyph glyph-name="Uring" unicode="&#x16e;" horiz-adv-x="675" 
d="M180 338q0 -87 9 -140t28.5 -81.5t48.5 -38t70 -9.5t71 9.5t49.5 38t29 80.5t9.5 138v395h98v-391q0 -92 -13 -158.5t-43.5 -109.5t-80.5 -63t-124 -20q-76 0 -124.5 20t-76.5 62t-38.5 107.5t-10.5 156.5v396h98v-392zM261 797q-28 28 -28 77t28.5 76.5t75.5 27.5
t75.5 -27.5t28.5 -76.5t-28.5 -76.5t-75.5 -27.5t-76 27zM293 874q0 -22 12 -34t32 -12t32 12t12 34t-12 34t-32 12t-32 -12t-12 -34z" />
    <glyph glyph-name="uring" unicode="&#x16f;" horiz-adv-x="552" 
d="M161 190q0 -69 24.5 -96.5t77.5 -27.5q26 0 48.5 6.5t39 21t26 38t9.5 58.5v308h92v-498h-74l-8 56q-25 -29 -61 -48.5t-97 -19.5q-49 0 -81.5 14t-52 39.5t-27.5 61t-8 77.5v318h92v-308zM239 639q11 -11 29 -11t28.5 11.5t10.5 31.5t-10.5 31.5t-28.5 11.5t-28.5 -11.5
t-10.5 -31.5t10 -32zM201 601q-25 25 -25 70t25 69.5t67 24.5t67 -24.5t25 -69.5t-25 -69.5t-67 -24.5t-67 24z" />
    <glyph glyph-name="Uhungarumlaut" unicode="&#x170;" horiz-adv-x="675" 
d="M180 338q0 -87 9 -140t28.5 -81.5t48.5 -38t70 -9.5t71 9.5t49.5 38t29 80.5t9.5 138v395h98v-391q0 -92 -13 -158.5t-43.5 -109.5t-80.5 -63t-124 -20q-76 0 -124.5 20t-76.5 62t-38.5 107.5t-10.5 156.5v396h98v-392zM221 781l-31 39l103 95q16 14 30.5 26.5t28.5 12.5
t24.5 -12.5t10.5 -26.5q0 -13 -11.5 -23t-39.5 -30zM398 781l-31 39l103 95q16 14 30.5 26.5t28.5 12.5t24.5 -12.5t10.5 -26.5q0 -13 -11.5 -23t-39.5 -30z" />
    <glyph glyph-name="uhungarumlaut" unicode="&#x171;" horiz-adv-x="552" 
d="M161 190q0 -69 24.5 -96.5t77.5 -27.5q26 0 48.5 6.5t39 21t26 38t9.5 58.5v308h92v-498h-74l-8 56q-25 -29 -61 -48.5t-97 -19.5q-49 0 -81.5 14t-52 39.5t-27.5 61t-8 77.5v318h92v-308zM332 569l-32 39l101 97q13 12 21.5 20t14.5 12t11.5 6t11.5 2q13 0 24.5 -12
t11.5 -25t-11 -25t-40 -32zM161 569l-32 39l101 97q13 12 21.5 20t14.5 12t11.5 6t11.5 2q13 0 24.5 -12t11.5 -25t-11 -25t-40 -32z" />
    <glyph glyph-name="Uogonek" unicode="&#x172;" horiz-adv-x="675" 
d="M447 -192q-12 -3 -24.5 -4t-23.5 -1q-108 0 -108 79q0 31 14 57t40 49h-13q-76 0 -124.5 20t-76.5 62t-38.5 107.5t-10.5 156.5v396h98v-392q0 -83 7.5 -135.5t25.5 -82t48 -40.5t75 -11t75.5 11t49 40t26.5 81t8 134v395h98v-391q0 -143 -32.5 -224.5t-114.5 -110.5
q-38 -27 -58.5 -53t-20.5 -55q0 -21 11.5 -30t34.5 -9q8 0 17 0.5t17 1.5v-51z" />
    <glyph glyph-name="uogonek" unicode="&#x173;" horiz-adv-x="552" 
d="M478 -185q-12 -3 -23.5 -4t-22.5 -1q-105 0 -105 74q0 32 18 59t59 57l-8 56q-25 -29 -61 -48.5t-97 -19.5q-49 0 -81.5 14t-52 39.5t-27.5 61t-8 77.5v318h92v-308q0 -69 24.5 -96.5t77.5 -27.5q26 0 48.5 6.5t39 21t26 38t9.5 58.5v308h92v-498q-38 -26 -58 -50.5
t-20 -51.5q0 -20 11.5 -28t33.5 -8q8 0 15.5 0.5t17.5 1.5v-49z" />
    <glyph glyph-name="Wcircumflex" unicode="&#x174;" horiz-adv-x="870" 
d="M198 0l-168 730h100l125 -616l137 578h90l137 -578l125 616h96l-168 -730h-103l-135 569l-135 -569h-101zM306 783l-32 46l108 87q17 14 28.5 18.5t25.5 4.5t25.5 -4.5t28.5 -18.5l108 -87l-32 -46l-130 80z" />
    <glyph glyph-name="wcircumflex" unicode="&#x175;" horiz-adv-x="665" 
d="M147 0l-126 498h95l86 -404l93 375h84l90 -375l87 404h88l-126 -498h-94l-91 368l-91 -368h-95zM213 581l-33 45l106 85q17 14 27.5 18.5t24.5 4.5t24.5 -4.5t27.5 -18.5l106 -85l-33 -45l-125 79z" />
    <glyph glyph-name="Ycircumflex" unicode="&#x176;" horiz-adv-x="577" 
d="M241 0v309l-221 421h105l165 -335l165 335h102l-218 -416v-314h-98zM158 783l-32 46l108 87q17 14 28.5 18.5t25.5 4.5t25.5 -4.5t28.5 -18.5l108 -87l-32 -46l-130 80z" />
    <glyph glyph-name="ycircumflex" unicode="&#x177;" horiz-adv-x="495" 
d="M35 -157q12 -1 25.5 -1.5t27.5 -0.5q24 0 40 3.5t28.5 14.5t22.5 31.5t22 55.5l17 51l-201 501h101l141 -393l125 393h94l-200 -574q-13 -37 -27.5 -65.5t-33 -48t-42.5 -29.5t-55 -10q-25 0 -46.5 4.5t-38.5 9.5v58zM127 581l-33 45l106 85q17 14 27.5 18.5t24.5 4.5
t24.5 -4.5t27.5 -18.5l106 -85l-33 -45l-125 79z" />
    <glyph glyph-name="Zacute" unicode="&#x179;" horiz-adv-x="588" 
d="M45 0v73l382 577h-376v80h484v-73l-382 -577h390v-80h-498zM195 785l-21 52l155 73q24 11 35.5 16.5t21.5 5.5q11 0 21 -6.5t16 -21.5q4 -11 4 -20q0 -21 -19 -31t-50 -19z" />
    <glyph glyph-name="zacute" unicode="&#x17a;" horiz-adv-x="458" 
d="M43 0v66l260 360h-255v72h358v-65l-260 -360h265v-73h-368zM126 581l-22 54l170 82q22 10 36 10q11 0 19.5 -6t15.5 -21q4 -9 4 -19q0 -17 -12.5 -26.5t-30.5 -15.5z" />
    <glyph glyph-name="Zdotaccent" unicode="&#x17b;" horiz-adv-x="588" 
d="M45 0v73l382 577h-376v80h484v-73l-382 -577h390v-80h-498zM295 794q-30 0 -45 15.5t-15 44.5t15 44.5t45 15.5t45 -15.5t15 -44.5t-15 -44.5t-45 -15.5z" />
    <glyph glyph-name="zdotaccent" unicode="&#x17c;" horiz-adv-x="458" 
d="M43 0v66l260 360h-255v72h358v-65l-260 -360h265v-73h-368zM229 600q-29 0 -43 15t-14 42q0 59 57 59q29 0 42.5 -15t13.5 -42q0 -59 -56 -59z" />
    <glyph glyph-name="Zcaron" unicode="&#x17d;" horiz-adv-x="588" 
d="M45 0v73l382 577h-376v80h484v-73l-382 -577h390v-80h-498zM132 899l32 46l130 -80l130 80l32 -46l-108 -87q-17 -14 -28.5 -18.5t-25.5 -4.5t-25.5 4.5t-28.5 18.5z" />
    <glyph glyph-name="zcaron" unicode="&#x17e;" horiz-adv-x="458" 
d="M43 0v66l260 360h-255v72h358v-65l-260 -360h265v-73h-368zM69 692l33 45l125 -79l125 79l33 -45l-106 -85q-17 -14 -27.5 -18.5t-24.5 -4.5t-24.5 4.5t-27.5 18.5z" />
    <glyph glyph-name="longs" unicode="&#x17f;" horiz-adv-x="251" 
d="M74 0v564q0 82 44 127t120 45q27 0 54 -4.5t46 -10.5v-59q-14 1 -35.5 2t-35.5 1q-24 0 -43 -4t-32 -15t-19.5 -32t-6.5 -55v-559h-92z" />
    <glyph glyph-name="Scommaaccent" unicode="&#x218;" horiz-adv-x="557" 
d="M63 95q43 -8 93 -14t95 -6q37 0 66 4.5t49 18.5t30.5 39.5t10.5 66.5q0 32 -7 52.5t-23.5 33.5t-43.5 21.5t-66 17.5l-30 7q-40 9 -73.5 22.5t-57.5 36t-37.5 55.5t-13.5 82q0 103 60.5 156t178.5 53q55 0 102.5 -10t83.5 -24v-67q-37 5 -84.5 11t-92.5 6q-34 0 -62 -4
t-48.5 -16.5t-31.5 -35.5t-11 -60q0 -32 8.5 -52.5t26 -33.5t43 -21.5t60.5 -15.5l32 -7q46 -10 80.5 -24.5t57.5 -37.5t34.5 -57t11.5 -83q0 -59 -16.5 -101t-47.5 -68.5t-76 -38.5t-102 -12q-64 0 -114 12.5t-85 26.5v67zM206 -237l23 137q4 24 14 38t36 14q20 0 29.5 -10
t9.5 -27q0 -8 -2 -16t-5 -17l-42 -119h-63z" />
    <glyph glyph-name="scommaaccent" unicode="&#x219;" horiz-adv-x="458" 
d="M58 74q30 -4 69.5 -7t77.5 -3q30 0 52.5 2.5t36.5 11t21 23.5t7 39q0 20 -5 32.5t-16.5 20.5t-31 12.5t-48.5 8.5l-33 5q-27 4 -52 12.5t-43.5 24t-30 41t-11.5 64.5q0 40 13 68t37 46t57.5 26t74.5 8q45 0 82.5 -6.5t71.5 -17.5v-59q-29 3 -64.5 6t-73.5 3q-26 0 -47 -2
t-36 -9.5t-23.5 -21t-8.5 -37.5q0 -19 5.5 -30.5t17 -19t29.5 -11.5t44 -8l27 -4q35 -5 63 -14t47.5 -25.5t30 -42.5t10.5 -66q0 -83 -47 -119t-130 -36q-25 0 -50 2.5t-48 6.5t-42.5 8.5t-32.5 8.5v59zM164 -226l24 133q4 23 13 36t34 13q20 0 28.5 -9.5t8.5 -25.5
q0 -14 -6 -32l-41 -115h-61z" />
    <glyph glyph-name="uni021A" unicode="&#x21a;" horiz-adv-x="590" 
d="M246 0v648h-214v82h526v-82h-214v-648h-98zM222 -237l23 137q4 24 14 38t36 14q20 0 29.5 -10t9.5 -27q0 -8 -2 -16t-5 -17l-42 -119h-63z" />
    <glyph glyph-name="uni021B" unicode="&#x21b;" horiz-adv-x="389" 
d="M198 165q0 -62 24 -82.5t72 -20.5q36 0 65 3v-60q-21 -6 -46 -10.5t-53 -4.5q-81 0 -117.5 40t-36.5 131v266h-89v53l89 17v153h92v-152h152v-71h-152v-262zM154 -226l24 133q4 23 13 36t34 13q20 0 28.5 -9.5t8.5 -25.5q0 -14 -6 -32l-41 -115h-61z" />
    <glyph glyph-name="dotlessj" unicode="&#x237;" horiz-adv-x="250" 
d="M-75 -155q13 -1 29 -2t33 -1q25 0 43.5 4.5t30.5 16.5t17.5 32.5t5.5 52.5v550h92v-548q0 -93 -39 -136t-116 -43q-11 0 -24.5 1.5t-26.5 4t-24.5 5t-20.5 5.5v58z" />
    <glyph glyph-name="apostrophe" unicode="&#x2bc;" horiz-adv-x="222" 
d="M47 513l31 175q5 26 16.5 40.5t37.5 14.5q42 0 42 -40q0 -18 -9 -40l-55 -150h-63z" />
    <glyph glyph-name="caron" unicode="&#x2c7;" horiz-adv-x="500" 
d="M92 692l33 45l125 -79l125 79l33 -45l-106 -85q-17 -14 -27.5 -18.5t-24.5 -4.5t-24.5 4.5t-27.5 18.5z" />
    <glyph glyph-name="uni02C9" unicode="&#x2c9;" horiz-adv-x="500" 
d="M113 620v73h273v-73h-273z" />
    <glyph glyph-name="breve" unicode="&#x2d8;" horiz-adv-x="500" 
d="M173 719q5 -36 24.5 -51t52.5 -15t52.5 15t24.5 51h68q-1 -63 -38.5 -97t-106.5 -34t-106.5 34t-38.5 97h68z" />
    <glyph glyph-name="dotaccent" unicode="&#x2d9;" horiz-adv-x="500" 
d="M250 600q-29 0 -43 15t-14 42q0 59 57 59q29 0 42.5 -15t13.5 -42q0 -59 -56 -59z" />
    <glyph glyph-name="ring" unicode="&#x2da;" horiz-adv-x="500" 
d="M221 639q11 -11 29 -11t28.5 11.5t10.5 31.5t-10.5 31.5t-28.5 11.5t-28.5 -11.5t-10.5 -31.5t10 -32zM183 601q-25 25 -25 70t25 69.5t67 24.5t67 -24.5t25 -69.5t-25 -69.5t-67 -24.5t-67 24z" />
    <glyph glyph-name="ogonek" unicode="&#x2db;" horiz-adv-x="500" 
d="M325 -185q-12 -3 -23.5 -4t-22.5 -1q-105 0 -105 74q0 32 19 59t61 57h71q-38 -26 -58 -50.5t-20 -51.5q0 -20 11.5 -28t33.5 -8q8 0 15.5 0.5t17.5 1.5v-49z" />
    <glyph glyph-name="hungarumlaut" unicode="&#x2dd;" horiz-adv-x="500" 
d="M267 569l-32 39l101 97q13 12 21.5 20t14.5 12t11.5 6t11.5 2q13 0 24.5 -12t11.5 -25t-11 -25t-40 -32zM96 569l-32 39l101 97q13 12 21.5 20t14.5 12t11.5 6t11.5 2q13 0 24.5 -12t11.5 -25t-11 -25t-40 -32z" />
    <glyph glyph-name="uni20B9" unicode="&#x20b9;" horiz-adv-x="534" 
d="M69 303v66h88q67 0 106.5 23t46.5 88h-241v62h241q-8 62 -45.5 86.5t-109.5 24.5h-86v63h441l-16 -63h-158q26 -19 39 -47.5t18 -63.5h81l-17 -62h-63q-6 -77 -57.5 -124.5t-157.5 -52.5l157 -186q13 -16 24 -27t21.5 -18t22 -10.5t25.5 -3.5h15v-56q-11 -2 -21.5 -3.5
t-26.5 -1.5q-44 0 -74.5 20.5t-55.5 50.5z" />
    <glyph glyph-name="Wgrave" unicode="&#x1e80;" horiz-adv-x="870" 
d="M198 0l-168 730h100l125 -616l137 578h90l137 -578l125 616h96l-168 -730h-103l-135 569l-135 -569h-101zM354 834q-31 9 -50 19t-19 31q0 9 4 20q6 15 16 21.5t21 6.5q10 0 21.5 -5.5t35.5 -16.5l155 -73l-21 -52z" />
    <glyph glyph-name="wgrave" unicode="&#x1e81;" horiz-adv-x="665" 
d="M147 0l-126 498h95l86 -404l93 375h84l90 -375l87 404h88l-126 -498h-94l-91 368l-91 -368h-95zM230 639q-18 6 -30.5 15.5t-12.5 26.5q0 10 4 19q7 15 15.5 21t19.5 6q14 0 36 -10l170 -82l-22 -54z" />
    <glyph glyph-name="Wacute" unicode="&#x1e82;" horiz-adv-x="870" 
d="M198 0l-168 730h100l125 -616l137 578h90l137 -578l125 616h96l-168 -730h-103l-135 569l-135 -569h-101zM356 785l-21 52l155 73q24 11 35.5 16.5t21.5 5.5q11 0 21 -6.5t16 -21.5q4 -11 4 -20q0 -21 -19 -31t-50 -19z" />
    <glyph glyph-name="wacute" unicode="&#x1e83;" horiz-adv-x="665" 
d="M147 0l-126 498h95l86 -404l93 375h84l90 -375l87 404h88l-126 -498h-94l-91 368l-91 -368h-95zM262 581l-22 54l170 82q22 10 36 10q11 0 19.5 -6t15.5 -21q4 -9 4 -19q0 -17 -12.5 -26.5t-30.5 -15.5z" />
    <glyph glyph-name="Wdieresis" unicode="&#x1e84;" horiz-adv-x="870" 
d="M198 0l-168 730h100l125 -616l137 578h90l137 -578l125 616h96l-168 -730h-103l-135 569l-135 -569h-101zM346 797q-55 0 -55 55q0 27 14 42t41 15q28 0 42 -15t14 -41q0 -56 -56 -56zM527 797q-56 0 -56 55q0 27 14 42t42 15q27 0 41 -15t14 -41q0 -56 -55 -56z" />
    <glyph glyph-name="wdieresis" unicode="&#x1e85;" horiz-adv-x="665" 
d="M147 0l-126 498h95l86 -404l93 375h84l90 -375l87 404h88l-126 -498h-94l-91 368l-91 -368h-95zM251 603q-27 0 -40 14t-13 40q0 55 53 55q26 0 39.5 -14t13.5 -40q0 -55 -53 -55zM426 603q-26 0 -39.5 14t-13.5 40q0 55 53 55q27 0 40 -14t13 -40q0 -55 -53 -55z" />
    <glyph glyph-name="Ygrave" unicode="&#x1ef2;" horiz-adv-x="577" 
d="M241 0v309l-221 421h105l165 -335l165 335h102l-218 -416v-314h-98zM197 834q-31 9 -50 19t-19 31q0 9 4 20q6 15 16 21.5t21 6.5q10 0 21.5 -5.5t35.5 -16.5l155 -73l-21 -52z" />
    <glyph glyph-name="ygrave" unicode="&#x1ef3;" horiz-adv-x="495" 
d="M35 -157q12 -1 25.5 -1.5t27.5 -0.5q24 0 40 3.5t28.5 14.5t22.5 31.5t22 55.5l17 51l-201 501h101l141 -393l125 393h94l-200 -574q-13 -37 -27.5 -65.5t-33 -48t-42.5 -29.5t-55 -10q-25 0 -46.5 4.5t-38.5 9.5v58zM145 639q-18 6 -30.5 15.5t-12.5 26.5q0 10 4 19
q7 15 15.5 21t19.5 6q14 0 36 -10l170 -82l-22 -54z" />
    <glyph glyph-name="fraction" unicode="&#x2044;" horiz-adv-x="83" 
d="M-204 0l407 720h84l-407 -720h-84z" />
    <glyph glyph-name="zerosuperior" unicode="&#x2070;" 
d="M124 449q19 -26 54 -26t53.5 26t18.5 95q0 70 -18.5 96t-53.5 26t-53.5 -26t-18.5 -96q0 -69 18 -95zM178 361q-75 0 -109 47t-34 136q0 90 34 137t109 47t109 -47t34 -137q0 -89 -34 -136t-109 -47z" />
    <glyph glyph-name="foursuperior" unicode="&#x2074;" 
d="M45 454v46l163 220h55v-216h46v-50h-46v-85h-61v85h-157zM107 504h95v127z" />
    <glyph glyph-name="fivesuperior" unicode="&#x2075;" 
d="M67 423q24 -4 48.5 -5.5t39.5 -1.5q40 0 56.5 13t16.5 44q0 27 -16.5 42t-65.5 15q-16 0 -36 -1t-35 -2l13 193h183v-54h-132l-5 -89q7 1 17.5 1.5t21.5 0.5q61 0 89.5 -26t28.5 -79q0 -112 -124 -112q-26 0 -53 4.5t-47 9.5v47z" />
    <glyph glyph-name="sixsuperior" unicode="&#x2076;" 
d="M279 670q-20 2 -37 3t-27 1q-50 0 -70.5 -25t-23.5 -87q13 11 31.5 17t42.5 6q51 0 78.5 -29t27.5 -81q0 -50 -27 -82t-89 -32q-72 0 -99.5 46t-27.5 124q0 101 37 148t108 47q34 0 76 -11v-45zM124 481q0 -36 16.5 -52.5t45.5 -16.5q24 0 38.5 14.5t14.5 49.5
q0 28 -12.5 44t-47.5 16q-30 0 -42.5 -13t-12.5 -42z" />
    <glyph glyph-name="sevensuperior" unicode="&#x2077;" 
d="M106 369l117 295h-168v56h241v-42l-120 -309h-70z" />
    <glyph glyph-name="eightsuperior" unicode="&#x2078;" 
d="M287 584q-11 -18 -33 -31q50 -23 50 -86q0 -54 -36 -80t-91 -26q-56 0 -90.5 26t-34.5 80q0 61 50 84q-44 27 -44 80q0 49 32.5 73t88.5 24q54 0 86.5 -24t32.5 -73q0 -28 -11 -47zM118 468q0 -32 18 -44t41 -12q25 0 43 12t18 44q0 26 -14.5 41t-46.5 15q-31 0 -45 -15
t-14 -41zM123 625q0 -31 16 -42t39 -11q24 0 39.5 11.5t15.5 41.5q0 25 -12.5 38.5t-43.5 13.5q-30 0 -42 -13.5t-12 -38.5z" />
    <glyph glyph-name="ninesuperior" unicode="&#x2079;" 
d="M78 421q20 -2 37 -3t27 -1q25 0 42 5.5t28 18t16.5 33t7.5 51.5q-13 -11 -31.5 -17t-42.5 -6q-51 0 -78.5 29t-27.5 81q0 50 27 82t89 32q72 0 99.5 -46t27.5 -124q0 -101 -37 -148t-108 -47q-34 0 -76 11v49zM130 567q13 -16 48 -16q30 0 42.5 13t12.5 42
q0 36 -16.5 52.5t-45.5 16.5q-24 0 -38.5 -14.5t-14.5 -49.5q0 -28 12 -44z" />
    <glyph glyph-name="zeroinferior" unicode="&#x2080;" 
d="M124 81q19 -26 54 -26t53.5 26t18.5 95q0 70 -18.5 96t-53.5 26t-53.5 -26t-18.5 -96q0 -69 18 -95zM178 -7q-75 0 -109 47t-34 136q0 90 34 137t109 47t109 -47t34 -137q0 -89 -34 -136t-109 -47z" />
    <glyph glyph-name="oneinferior" unicode="&#x2081;" 
d="M161 1v286l-88 -16v50l76 22q14 4 27.5 6.5t29.5 2.5h25v-351h-70z" />
    <glyph glyph-name="twoinferior" unicode="&#x2082;" 
d="M64 1v63q0 31 7.5 52.5t21 36.5t32 25.5t41.5 21.5l11 5q29 13 38 23.5t9 28.5q0 25 -14.5 35t-47.5 10q-22 0 -45.5 -1.5t-46.5 -4.5v47q24 6 49.5 11t54.5 5q52 0 85.5 -22.5t33.5 -75.5q0 -22 -6 -38t-17.5 -28t-27.5 -21t-37 -18l-12 -5q-20 -9 -32.5 -16.5t-19 -18
t-8.5 -25t-2 -35.5h161v-55h-228z" />
    <glyph glyph-name="threeinferior" unicode="&#x2083;" 
d="M53 57q10 -2 23.5 -3l27 -2t26 -1.5t20.5 -0.5q38 0 57 10.5t19 42.5q0 28 -16 41t-58 13h-41v41l95 100h-149v54h224v-45l-98 -102q53 -3 81.5 -28t28.5 -74q0 -109 -132 -109q-29 0 -58.5 5t-49.5 11v47z" />
    <glyph glyph-name="fourinferior" unicode="&#x2084;" 
d="M45 86v46l163 220h55v-216h46v-50h-46v-85h-61v85h-157zM107 136h95v127z" />
    <glyph glyph-name="fiveinferior" unicode="&#x2085;" 
d="M67 55q24 -4 48.5 -5.5t39.5 -1.5q40 0 56.5 13t16.5 44q0 27 -16.5 42t-65.5 15q-16 0 -36 -1t-35 -2l13 193h183v-54h-132l-5 -89q7 1 17.5 1.5t21.5 0.5q61 0 89.5 -26t28.5 -79q0 -112 -124 -112q-26 0 -53 4.5t-47 9.5v47z" />
    <glyph glyph-name="sixinferior" unicode="&#x2086;" 
d="M279 302q-20 2 -37 3t-27 1q-50 0 -70.5 -25t-23.5 -87q13 11 31.5 17t42.5 6q51 0 78.5 -29t27.5 -81q0 -50 -27 -82t-89 -32q-72 0 -99.5 46t-27.5 124q0 101 37 148t108 47q34 0 76 -11v-45zM124 113q0 -36 16.5 -52.5t45.5 -16.5q24 0 38.5 14.5t14.5 49.5
q0 28 -12.5 44t-47.5 16q-30 0 -42.5 -13t-12.5 -42z" />
    <glyph glyph-name="seveninferior" unicode="&#x2087;" 
d="M106 1l117 295h-168v56h241v-42l-120 -309h-70z" />
    <glyph glyph-name="eightinferior" unicode="&#x2088;" 
d="M287 216q-11 -18 -33 -31q50 -23 50 -86q0 -54 -36 -80t-91 -26q-56 0 -90.5 26t-34.5 80q0 61 50 84q-44 27 -44 80q0 49 32.5 73t88.5 24q54 0 86.5 -24t32.5 -73q0 -28 -11 -47zM118 100q0 -32 18 -44t41 -12q25 0 43 12t18 44q0 26 -14.5 41t-46.5 15q-31 0 -45 -15
t-14 -41zM123 257q0 -31 16 -42t39 -11q24 0 39.5 11.5t15.5 41.5q0 25 -12.5 38.5t-43.5 13.5q-30 0 -42 -13.5t-12 -38.5z" />
    <glyph glyph-name="nineinferior" unicode="&#x2089;" 
d="M78 53q20 -2 37 -3t27 -1q25 0 42 5.5t28 18t16.5 33t7.5 51.5q-13 -11 -31.5 -17t-42.5 -6q-51 0 -78.5 29t-27.5 81q0 50 27 82t89 32q72 0 99.5 -46t27.5 -124q0 -101 -37 -148t-108 -47q-34 0 -76 11v49zM130 199q13 -16 48 -16q30 0 42.5 13t12.5 42
q0 36 -16.5 52.5t-45.5 16.5q-24 0 -38.5 -14.5t-14.5 -49.5q0 -28 12 -44z" />
    <glyph glyph-name="afii61289" unicode="&#x2113;" horiz-adv-x="489" 
d="M83 123l-31 54l82 60v239q0 125 37.5 179.5t114.5 54.5q67 0 99 -41t32 -118q0 -48 -15.5 -94t-42 -88.5t-62 -81.5t-75.5 -73v-31q0 -34 5.5 -56.5t16 -36.5t25 -20t33.5 -6q32 0 61 18t45 39l46 -43q-29 -41 -73 -65t-93 -24q-70 0 -107 41.5t-43 131.5zM222 299
q58 59 89 122t31 130q0 54 -13.5 74t-42.5 20q-30 0 -47 -28.5t-17 -101.5v-216z" />
    <glyph glyph-name="estimated" unicode="&#x212e;" horiz-adv-x="894" 
d="M195 138q0 -13 9 -22q48 -51 110 -79t135 -28q79 0 145 32.5t114 86.5h57q-26 -32 -60.5 -57.5t-75.5 -43.5t-87 -28t-94 -10q-83 0 -156 28.5t-127 77t-85.5 114t-31.5 140.5t31.5 140.5t85.5 114.5t127 77.5t156 28.5t156.5 -28.5t128 -77.5t86 -114.5t31.5 -140.5v-10
h-650q-5 0 -5 -4v-197zM195 365q0 -7 5 -7h498q4 0 4 7v197q0 13 -9 24q-48 48 -110 75t-134 27t-134 -29t-110 -77q-5 -4 -7.5 -10.5t-2.5 -13.5v-193z" />
    <glyph glyph-name="onethird" unicode="&#x2153;" horiz-adv-x="806" 
d="M120 0l407 720h84l-407 -720h-84zM148 369v286l-88 -16v50l76 22q14 4 27.5 6.5t29.5 2.5h25v-351h-70zM498 57q10 -2 23.5 -3l27 -2t26 -1.5t20.5 -0.5q38 0 57 10.5t19 42.5q0 28 -16 41t-58 13h-41v41l95 100h-149v54h224v-45l-98 -102q53 -3 81.5 -28t28.5 -74
q0 -109 -132 -109q-29 0 -58.5 5t-49.5 11v47z" />
    <glyph glyph-name="twothirds" unicode="&#x2154;" horiz-adv-x="806" 
d="M151 0l407 720h84l-407 -720h-84zM64 369v63q0 31 7.5 52.5t21 36.5t32 25.5t41.5 21.5l11 5q29 13 38 23.5t9 28.5q0 25 -14.5 35t-47.5 10q-22 0 -45.5 -1.5t-46.5 -4.5v47q24 6 49.5 11t54.5 5q52 0 85.5 -22.5t33.5 -75.5q0 -22 -6 -38t-17.5 -28t-27.5 -21t-37 -18
l-12 -5q-20 -9 -32.5 -16.5t-19 -18t-8.5 -25t-2 -35.5h161v-55h-228zM498 57q10 -2 23.5 -3l27 -2t26 -1.5t20.5 -0.5q38 0 57 10.5t19 42.5q0 28 -16 41t-58 13h-41v41l95 100h-149v54h224v-45l-98 -102q53 -3 81.5 -28t28.5 -74q0 -109 -132 -109q-29 0 -58.5 5t-49.5 11
v47z" />
    <glyph glyph-name="oneeighth" unicode="&#x215b;" horiz-adv-x="806" 
d="M129 0l407 720h84l-407 -720h-84zM148 369v286l-88 -16v50l76 22q14 4 27.5 6.5t29.5 2.5h25v-351h-70zM733 216q-11 -18 -33 -31q50 -23 50 -86q0 -54 -36 -80t-91 -26q-56 0 -90.5 26t-34.5 80q0 61 50 84q-44 27 -44 80q0 49 32.5 73t88.5 24q54 0 86.5 -24t32.5 -73
q0 -28 -11 -47zM564 100q0 -32 18 -44t41 -12q25 0 43 12t18 44q0 26 -14.5 41t-46.5 15q-31 0 -45 -15t-14 -41zM569 257q0 -31 16 -42t39 -11q24 0 39.5 11.5t15.5 41.5q0 25 -12.5 38.5t-43.5 13.5q-30 0 -42 -13.5t-12 -38.5z" />
    <glyph glyph-name="threeeighths" unicode="&#x215c;" horiz-adv-x="806" 
d="M151 0l407 720h84l-407 -720h-84zM732 216q-11 -18 -33 -31q50 -23 50 -86q0 -54 -36 -80t-91 -26q-56 0 -90.5 26t-34.5 80q0 61 50 84q-44 27 -44 80q0 49 32.5 73t88.5 24q54 0 86.5 -24t32.5 -73q0 -28 -11 -47zM563 100q0 -32 18 -44t41 -12q25 0 43 12t18 44
q0 26 -14.5 41t-46.5 15q-31 0 -45 -15t-14 -41zM568 257q0 -31 16 -42t39 -11q24 0 39.5 11.5t15.5 41.5q0 25 -12.5 38.5t-43.5 13.5q-30 0 -42 -13.5t-12 -38.5zM58 425q10 -2 23.5 -3l27 -2t26 -1.5t20.5 -0.5q38 0 57 10.5t19 42.5q0 28 -16 41t-58 13h-41v41l95 100
h-149v54h224v-45l-98 -102q53 -3 81.5 -28t28.5 -74q0 -109 -132 -109q-29 0 -58.5 5t-49.5 11v47z" />
    <glyph glyph-name="fiveeighths" unicode="&#x215d;" horiz-adv-x="806" 
d="M151 0l407 720h84l-407 -720h-84zM73 423q24 -4 48.5 -5.5t39.5 -1.5q40 0 56.5 13t16.5 44q0 27 -16.5 42t-65.5 15q-16 0 -36 -1t-35 -2l13 193h183v-54h-132l-5 -89q7 1 17.5 1.5t21.5 0.5q61 0 89.5 -26t28.5 -79q0 -112 -124 -112q-26 0 -53 4.5t-47 9.5v47z
M733 216q-11 -18 -33 -31q50 -23 50 -86q0 -54 -36 -80t-91 -26q-56 0 -90.5 26t-34.5 80q0 61 50 84q-44 27 -44 80q0 49 32.5 73t88.5 24q54 0 86.5 -24t32.5 -73q0 -28 -11 -47zM564 100q0 -32 18 -44t41 -12q25 0 43 12t18 44q0 26 -14.5 41t-46.5 15q-31 0 -45 -15
t-14 -41zM569 257q0 -31 16 -42t39 -11q24 0 39.5 11.5t15.5 41.5q0 25 -12.5 38.5t-43.5 13.5q-30 0 -42 -13.5t-12 -38.5z" />
    <glyph glyph-name="seveneighths" unicode="&#x215e;" horiz-adv-x="806" 
d="M124 0l407 720h84l-407 -720h-84zM733 216q-11 -18 -33 -31q50 -23 50 -86q0 -54 -36 -80t-91 -26q-56 0 -90.5 26t-34.5 80q0 61 50 84q-44 27 -44 80q0 49 32.5 73t88.5 24q54 0 86.5 -24t32.5 -73q0 -28 -11 -47zM564 100q0 -32 18 -44t41 -12q25 0 43 12t18 44
q0 26 -14.5 41t-46.5 15q-31 0 -45 -15t-14 -41zM569 257q0 -31 16 -42t39 -11q24 0 39.5 11.5t15.5 41.5q0 25 -12.5 38.5t-43.5 13.5q-30 0 -42 -13.5t-12 -38.5zM115 369l117 295h-168v56h241v-42l-120 -309h-70z" />
    <glyph glyph-name="onefifth" unicode="&#x2155;" horiz-adv-x="806" 
d="M124 0l407 720h84l-407 -720h-84zM148 369v286l-88 -16v50l76 22q14 4 27.5 6.5t29.5 2.5h25v-351h-70zM513 55q24 -4 48.5 -5.5t39.5 -1.5q40 0 56.5 13t16.5 44q0 27 -16.5 42t-65.5 15q-16 0 -36 -1t-35 -2l13 193h183v-54h-132l-5 -89q7 1 17.5 1.5t21.5 0.5
q61 0 89.5 -26t28.5 -79q0 -112 -124 -112q-26 0 -53 4.5t-47 9.5v47z" />
    <glyph glyph-name="twofifths" unicode="&#x2156;" horiz-adv-x="806" 
d="M164 0l407 720h84l-407 -720h-84zM64 369v63q0 31 7.5 52.5t21 36.5t32 25.5t41.5 21.5l11 5q29 13 38 23.5t9 28.5q0 25 -14.5 35t-47.5 10q-22 0 -45.5 -1.5t-46.5 -4.5v47q24 6 49.5 11t54.5 5q52 0 85.5 -22.5t33.5 -75.5q0 -22 -6 -38t-17.5 -28t-27.5 -21t-37 -18
l-12 -5q-20 -9 -32.5 -16.5t-19 -18t-8.5 -25t-2 -35.5h161v-55h-228zM513 55q24 -4 48.5 -5.5t39.5 -1.5q40 0 56.5 13t16.5 44q0 27 -16.5 42t-65.5 15q-16 0 -36 -1t-35 -2l13 193h183v-54h-132l-5 -89q7 1 17.5 1.5t21.5 0.5q61 0 89.5 -26t28.5 -79q0 -112 -124 -112
q-26 0 -53 4.5t-47 9.5v47z" />
    <glyph glyph-name="threefifths" unicode="&#x2157;" horiz-adv-x="806" 
d="M148 0l407 720h84l-407 -720h-84zM512 55q24 -4 48.5 -5.5t39.5 -1.5q40 0 56.5 13t16.5 44q0 27 -16.5 42t-65.5 15q-16 0 -36 -1t-35 -2l13 193h183v-54h-132l-5 -89q7 1 17.5 1.5t21.5 0.5q61 0 89.5 -26t28.5 -79q0 -112 -124 -112q-26 0 -53 4.5t-47 9.5v47zM58 425
q10 -2 23.5 -3l27 -2t26 -1.5t20.5 -0.5q38 0 57 10.5t19 42.5q0 28 -16 41t-58 13h-41v41l95 100h-149v54h224v-45l-98 -102q53 -3 81.5 -28t28.5 -74q0 -109 -132 -109q-29 0 -58.5 5t-49.5 11v47z" />
    <glyph glyph-name="fourfifths" unicode="&#x2158;" horiz-adv-x="806" 
d="M154 0l407 720h84l-407 -720h-84zM513 55q24 -4 48.5 -5.5t39.5 -1.5q40 0 56.5 13t16.5 44q0 27 -16.5 42t-65.5 15q-16 0 -36 -1t-35 -2l13 193h183v-54h-132l-5 -89q7 1 17.5 1.5t21.5 0.5q61 0 89.5 -26t28.5 -79q0 -112 -124 -112q-26 0 -53 4.5t-47 9.5v47zM48 454
v46l163 220h55v-216h46v-50h-46v-85h-61v85h-157zM110 504h95v127z" />
    <glyph glyph-name="onesixth" unicode="&#x2159;" horiz-adv-x="806" 
d="M137 0l407 720h84l-407 -720h-84zM148 369v286l-88 -16v50l76 22q14 4 27.5 6.5t29.5 2.5h25v-351h-70zM725 302q-20 2 -37 3t-27 1q-50 0 -70.5 -25t-23.5 -87q13 11 31.5 17t42.5 6q51 0 78.5 -29t27.5 -81q0 -50 -27 -82t-89 -32q-72 0 -99.5 46t-27.5 124
q0 101 37 148t108 47q34 0 76 -11v-45zM570 113q0 -36 16.5 -52.5t45.5 -16.5q24 0 38.5 14.5t14.5 49.5q0 28 -12.5 44t-47.5 16q-30 0 -42.5 -13t-12.5 -42z" />
    <glyph glyph-name="fivesixths" unicode="&#x215a;" horiz-adv-x="806" 
d="M159 0l407 720h84l-407 -720h-84zM725 302q-20 2 -37 3t-27 1q-50 0 -70.5 -25t-23.5 -87q13 11 31.5 17t42.5 6q51 0 78.5 -29t27.5 -81q0 -50 -27 -82t-89 -32q-72 0 -99.5 46t-27.5 124q0 101 37 148t108 47q34 0 76 -11v-45zM570 113q0 -36 16.5 -52.5t45.5 -16.5
q24 0 38.5 14.5t14.5 49.5q0 28 -12.5 44t-47.5 16q-30 0 -42.5 -13t-12.5 -42zM73 423q24 -4 48.5 -5.5t39.5 -1.5q40 0 56.5 13t16.5 44q0 27 -16.5 42t-65.5 15q-16 0 -36 -1t-35 -2l13 193h183v-54h-132l-5 -89q7 1 17.5 1.5t21.5 0.5q61 0 89.5 -26t28.5 -79
q0 -112 -124 -112q-26 0 -53 4.5t-47 9.5v47z" />
    <glyph glyph-name="oneseventh" unicode="&#xf506;" horiz-adv-x="806" 
d="M123 0l407 720h84l-407 -720h-84zM148 369v286l-88 -16v50l76 22q14 4 27.5 6.5t29.5 2.5h25v-351h-70zM558 1l117 295h-168v56h241v-42l-120 -309h-70z" />
    <glyph glyph-name="twosevenths" unicode="&#xf507;" horiz-adv-x="806" 
d="M149 0l407 720h84l-407 -720h-84zM64 369v63q0 31 7.5 52.5t21 36.5t32 25.5t41.5 21.5l11 5q29 13 38 23.5t9 28.5q0 25 -14.5 35t-47.5 10q-22 0 -45.5 -1.5t-46.5 -4.5v47q24 6 49.5 11t54.5 5q52 0 85.5 -22.5t33.5 -75.5q0 -22 -6 -38t-17.5 -28t-27.5 -21t-37 -18
l-12 -5q-20 -9 -32.5 -16.5t-19 -18t-8.5 -25t-2 -35.5h161v-55h-228zM558 1l117 295h-168v56h241v-42l-120 -309h-70z" />
    <glyph glyph-name="threesevenths" unicode="&#xf508;" horiz-adv-x="806" 
d="M137 0l407 720h84l-407 -720h-84zM557 1l117 295h-168v56h241v-42l-120 -309h-70zM58 425q10 -2 23.5 -3l27 -2t26 -1.5t20.5 -0.5q38 0 57 10.5t19 42.5q0 28 -16 41t-58 13h-41v41l95 100h-149v54h224v-45l-98 -102q53 -3 81.5 -28t28.5 -74q0 -109 -132 -109
q-29 0 -58.5 5t-49.5 11v47z" />
    <glyph glyph-name="foursevenths" unicode="&#xf509;" horiz-adv-x="806" 
d="M144 0l407 720h84l-407 -720h-84zM48 454v46l163 220h55v-216h46v-50h-46v-85h-61v85h-157zM110 504h95v127zM558 1l117 295h-168v56h241v-42l-120 -309h-70z" />
    <glyph glyph-name="fivesevenths" unicode="&#xf50a;" horiz-adv-x="806" 
d="M142 0l407 720h84l-407 -720h-84zM73 423q24 -4 48.5 -5.5t39.5 -1.5q40 0 56.5 13t16.5 44q0 27 -16.5 42t-65.5 15q-16 0 -36 -1t-35 -2l13 193h183v-54h-132l-5 -89q7 1 17.5 1.5t21.5 0.5q61 0 89.5 -26t28.5 -79q0 -112 -124 -112q-26 0 -53 4.5t-47 9.5v47zM558 1
l117 295h-168v56h241v-42l-120 -309h-70z" />
    <glyph glyph-name="sixsevenths" unicode="&#xf50b;" horiz-adv-x="806" 
d="M147 0l407 720h84l-407 -720h-84zM285 670q-20 2 -37 3t-27 1q-50 0 -70.5 -25t-23.5 -87q13 11 31.5 17t42.5 6q51 0 78.5 -29t27.5 -81q0 -50 -27 -82t-89 -32q-72 0 -99.5 46t-27.5 124q0 101 37 148t108 47q34 0 76 -11v-45zM130 481q0 -36 16.5 -52.5t45.5 -16.5
q24 0 38.5 14.5t14.5 49.5q0 28 -12.5 44t-47.5 16q-30 0 -42.5 -13t-12.5 -42zM558 1l117 295h-168v56h241v-42l-120 -309h-70z" />
    <glyph glyph-name="oneninth" unicode="&#xf50c;" horiz-adv-x="806" 
d="M129 0l407 720h84l-407 -720h-84zM148 369v286l-88 -16v50l76 22q14 4 27.5 6.5t29.5 2.5h25v-351h-70zM524 53q20 -2 37 -3t27 -1q25 0 42 5.5t28 18t16.5 33t7.5 51.5q-13 -11 -31.5 -17t-42.5 -6q-51 0 -78.5 29t-27.5 81q0 50 27 82t89 32q72 0 99.5 -46t27.5 -124
q0 -101 -37 -148t-108 -47q-34 0 -76 11v49zM576 199q13 -16 48 -16q30 0 42.5 13t12.5 42q0 36 -16.5 52.5t-45.5 16.5q-24 0 -38.5 -14.5t-14.5 -49.5q0 -28 12 -44z" />
    <glyph glyph-name="twoninths" unicode="&#xf50d;" horiz-adv-x="806" 
d="M164 0l407 720h84l-407 -720h-84zM64 369v63q0 31 7.5 52.5t21 36.5t32 25.5t41.5 21.5l11 5q29 13 38 23.5t9 28.5q0 25 -14.5 35t-47.5 10q-22 0 -45.5 -1.5t-46.5 -4.5v47q24 6 49.5 11t54.5 5q52 0 85.5 -22.5t33.5 -75.5q0 -22 -6 -38t-17.5 -28t-27.5 -21t-37 -18
l-12 -5q-20 -9 -32.5 -16.5t-19 -18t-8.5 -25t-2 -35.5h161v-55h-228zM524 53q20 -2 37 -3t27 -1q25 0 42 5.5t28 18t16.5 33t7.5 51.5q-13 -11 -31.5 -17t-42.5 -6q-51 0 -78.5 29t-27.5 81q0 50 27 82t89 32q72 0 99.5 -46t27.5 -124q0 -101 -37 -148t-108 -47
q-34 0 -76 11v49zM576 199q13 -16 48 -16q30 0 42.5 13t12.5 42q0 36 -16.5 52.5t-45.5 16.5q-24 0 -38.5 -14.5t-14.5 -49.5q0 -28 12 -44z" />
    <glyph glyph-name="fourninths" unicode="&#xf50e;" horiz-adv-x="806" 
d="M164 0l407 720h84l-407 -720h-84zM48 454v46l163 220h55v-216h46v-50h-46v-85h-61v85h-157zM110 504h95v127zM524 53q20 -2 37 -3t27 -1q25 0 42 5.5t28 18t16.5 33t7.5 51.5q-13 -11 -31.5 -17t-42.5 -6q-51 0 -78.5 29t-27.5 81q0 50 27 82t89 32q72 0 99.5 -46
t27.5 -124q0 -101 -37 -148t-108 -47q-34 0 -76 11v49zM576 199q13 -16 48 -16q30 0 42.5 13t12.5 42q0 36 -16.5 52.5t-45.5 16.5q-24 0 -38.5 -14.5t-14.5 -49.5q0 -28 12 -44z" />
    <glyph glyph-name="fiveninths" unicode="&#xf50f;" horiz-adv-x="806" 
d="M154 0l407 720h84l-407 -720h-84zM73 423q24 -4 48.5 -5.5t39.5 -1.5q40 0 56.5 13t16.5 44q0 27 -16.5 42t-65.5 15q-16 0 -36 -1t-35 -2l13 193h183v-54h-132l-5 -89q7 1 17.5 1.5t21.5 0.5q61 0 89.5 -26t28.5 -79q0 -112 -124 -112q-26 0 -53 4.5t-47 9.5v47zM524 53
q20 -2 37 -3t27 -1q25 0 42 5.5t28 18t16.5 33t7.5 51.5q-13 -11 -31.5 -17t-42.5 -6q-51 0 -78.5 29t-27.5 81q0 50 27 82t89 32q72 0 99.5 -46t27.5 -124q0 -101 -37 -148t-108 -47q-34 0 -76 11v49zM576 199q13 -16 48 -16q30 0 42.5 13t12.5 42q0 36 -16.5 52.5
t-45.5 16.5q-24 0 -38.5 -14.5t-14.5 -49.5q0 -28 12 -44z" />
    <glyph glyph-name="sevenninths" unicode="&#xf510;" horiz-adv-x="806" 
d="M131 0l407 720h84l-407 -720h-84zM524 53q20 -2 37 -3t27 -1q25 0 42 5.5t28 18t16.5 33t7.5 51.5q-13 -11 -31.5 -17t-42.5 -6q-51 0 -78.5 29t-27.5 81q0 50 27 82t89 32q72 0 99.5 -46t27.5 -124q0 -101 -37 -148t-108 -47q-34 0 -76 11v49zM576 199q13 -16 48 -16
q30 0 42.5 13t12.5 42q0 36 -16.5 52.5t-45.5 16.5q-24 0 -38.5 -14.5t-14.5 -49.5q0 -28 12 -44zM115 369l117 295h-168v56h241v-42l-120 -309h-70z" />
    <glyph glyph-name="eightninths" unicode="&#xf511;" horiz-adv-x="806" 
d="M159 0l407 720h84l-407 -720h-84zM523 53q20 -2 37 -3t27 -1q25 0 42 5.5t28 18t16.5 33t7.5 51.5q-13 -11 -31.5 -17t-42.5 -6q-51 0 -78.5 29t-27.5 81q0 50 27 82t89 32q72 0 99.5 -46t27.5 -124q0 -101 -37 -148t-108 -47q-34 0 -76 11v49zM575 199q13 -16 48 -16
q30 0 42.5 13t12.5 42q0 36 -16.5 52.5t-45.5 16.5q-24 0 -38.5 -14.5t-14.5 -49.5q0 -28 12 -44zM293 584q-11 -18 -33 -31q50 -23 50 -86q0 -54 -36 -80t-91 -26q-56 0 -90.5 26t-34.5 80q0 61 50 84q-44 27 -44 80q0 49 32.5 73t88.5 24q54 0 86.5 -24t32.5 -73
q0 -28 -11 -47zM124 468q0 -32 18 -44t41 -12q25 0 43 12t18 44q0 26 -14.5 41t-46.5 15q-31 0 -45 -15t-14 -41zM129 625q0 -31 16 -42t39 -11q24 0 39.5 11.5t15.5 41.5q0 25 -12.5 38.5t-43.5 13.5q-30 0 -42 -13.5t-12 -38.5z" />
    <glyph glyph-name="partialdiff" unicode="&#x2202;" horiz-adv-x="531" 
d="M168 709q26 8 56.5 13.5t60.5 5.5q70 0 109.5 -30t58.5 -74t23.5 -93t4.5 -87q0 -97 -12.5 -180t-42 -144t-79 -95.5t-123.5 -34.5q-91 0 -141 51.5t-50 148.5q0 109 64.5 168.5t179.5 59.5q33 0 64 -4t54 -9q1 8 1 15.5v15.5q0 50 -4.5 90.5t-20 69t-44.5 43.5t-78 15
q-15 0 -37.5 -1.5t-43.5 -4.5v61zM147 92q27 -30 76 -30q74 0 116 65.5t53 209.5q-20 5 -47.5 8.5t-57.5 3.5q-47 0 -78.5 -11t-51 -31t-28 -49.5t-8.5 -65.5q0 -70 26 -100z" />
    <glyph glyph-name="Delta" unicode="&#x2206;" horiz-adv-x="619" 
d="M19 0l232 719h116l233 -719h-581zM136 81h340l-169 549z" />
    <glyph glyph-name="product" unicode="&#x220f;" horiz-adv-x="643" 
d="M103 -95v734h-80v80h597v-80h-80v-734h-94v734h-249v-734h-94z" />
    <glyph glyph-name="summation" unicode="&#x2211;" horiz-adv-x="511" 
d="M20 -95v63l241 353l-231 335v63h439v-80h-326l218 -316l-231 -338h349v-80h-459z" />
    <glyph glyph-name="uni2126" unicode="&#x2126;" horiz-adv-x="694" 
d="M41 0v82h137q-25 25 -46.5 57t-37.5 72t-25.5 89t-9.5 108q0 76 17 138t52 105.5t90 67t130 23.5q77 0 131 -24t88.5 -67.5t50.5 -104t16 -132.5q0 -59 -9.5 -108t-26 -89.5t-39 -73.5t-49.5 -61h143v-82h-236v82q27 27 49 58t37.5 69t23.5 85.5t8 107.5q0 72 -12 121.5
t-36 80t-59.5 44t-81.5 13.5t-81.5 -13.5t-59.5 -43.5t-36 -79.5t-12 -121.5q0 -60 8 -107.5t23.5 -86t37.5 -69.5t50 -58v-82h-235z" />
    <glyph glyph-name="minus" unicode="&#x2212;" horiz-adv-x="534" 
d="M80 325v73h374v-73h-374z" />
    <glyph glyph-name="uni2215" unicode="&#x2215;" horiz-adv-x="83" 
d="M-204 0l407 720h84l-407 -720h-84z" />
    <glyph glyph-name="uni2219" unicode="&#x2219;" horiz-adv-x="211" 
d="M106 235q-29 0 -43 16t-14 43q0 28 14 44t43 16t43 -16t14 -44q0 -27 -14 -43t-43 -16z" />
    <glyph glyph-name="radical" unicode="&#x221a;" horiz-adv-x="601" 
d="M236 0l-109 303h-79v74h150l92 -283l216 683h95l-255 -777h-110z" />
    <glyph glyph-name="infinity" unicode="&#x221e;" horiz-adv-x="600" 
d="M120 301q9 -12 23.5 -19t37.5 -7q34 0 54 25t34 60q-14 35 -34 60t-54 25q-23 0 -37.5 -7t-23 -19t-11.5 -27.5t-3 -31.5t3 -31.5t11 -27.5zM252 483q28 -24 48 -61q20 37 48 61.5t78 24.5q62 0 97.5 -39.5t35.5 -108.5t-35.5 -108.5t-97.5 -39.5q-50 0 -78 24.5
t-48 61.5q-20 -37 -48 -61.5t-78 -24.5q-62 0 -97.5 39.5t-35.5 108.5t35.5 108.5t97.5 39.5q50 0 78 -25zM365 300q20 -25 54 -25q23 0 37.5 7t23 19t11.5 27.5t3 31.5t-3 31.5t-11.5 27.5t-23 19t-37.5 7q-34 0 -54 -25t-34 -60q14 -35 34 -60z" />
    <glyph glyph-name="integral" unicode="&#x222b;" horiz-adv-x="371" 
d="M25 -22q25 -3 47 -3q48 0 66 16.5t18 61.5v11.5t-1 17.5l-34 467q-1 14 -1 21.5v12.5q0 71 34.5 110t109.5 39q22 0 43 -4t39 -10v-59q-13 2 -24 2.5t-23 0.5q-48 0 -66 -16.5t-18 -61.5v-11.5t1 -17.5l34 -467q1 -14 1 -21.5v-12.5q0 -71 -34.5 -110t-109.5 -39
q-22 0 -43 4t-39 10v59z" />
    <glyph glyph-name="approxequal" unicode="&#x2248;" horiz-adv-x="534" 
d="M62 439q24 35 57 58.5t71 23.5q25 0 45 -8t37.5 -17.5t35 -17.5t38.5 -8q23 0 40 12t37 37l50 -42q-24 -35 -57 -58.5t-71 -23.5q-26 0 -45.5 8t-37 17.5t-35 17.5t-38.5 8q-23 0 -40 -12t-37 -37zM62 251q24 35 57 58.5t71 23.5q25 0 45 -8t37.5 -17.5t35 -17.5t38.5 -8
q23 0 40 12t37 37l50 -42q-24 -35 -57 -58.5t-71 -23.5q-26 0 -45.5 8t-37 17.5t-35 17.5t-38.5 8q-23 0 -40 -12t-37 -37z" />
    <glyph glyph-name="notequal" unicode="&#x2260;" horiz-adv-x="534" 
d="M122 124l48 103h-94v73h128l57 123h-185v73h219l49 103h67l-48 -103h95v-73h-129l-57 -123h186v-73h-220l-48 -103h-68z" />
    <glyph glyph-name="lessequal" unicode="&#x2264;" horiz-adv-x="534" 
d="M80 0v74h374v-74h-374zM83 331v70l368 160v-80l-283 -115l283 -115v-80z" />
    <glyph glyph-name="greaterequal" unicode="&#x2265;" horiz-adv-x="534" 
d="M80 0v74h374v-74h-374zM83 171v80l283 115l-283 115v80l368 -160v-70z" />
    <glyph glyph-name="lozenge" unicode="&#x25ca;" horiz-adv-x="566" 
d="M235 -34l-201 377l203 377h94l201 -377l-203 -377h-94zM283 46l154 296l-154 298l-155 -295z" />
    <glyph glyph-name="fi" unicode="&#xf001;" horiz-adv-x="609" 
d="M106 0v427h-89v53l89 17v67q0 82 44 127t120 45q27 0 54 -4.5t46 -10.5v-59q-14 1 -35.5 2t-35.5 1q-24 0 -43 -4t-32 -15t-19.5 -32t-6.5 -55v-61h152v-71h-152v-427h-92zM443 0v498h92v-498h-92zM490 600q-29 0 -43 15t-14 42q0 59 57 59q29 0 42.5 -15t13.5 -42
q0 -59 -56 -59z" />
    <glyph glyph-name="fl" unicode="&#xf002;" horiz-adv-x="632" 
d="M106 0v427h-89v53l89 17v67q0 82 44 127t120 45q27 0 54 -4.5t46 -10.5v-59q-14 1 -35.5 2t-35.5 1q-24 0 -43 -4t-32 -15t-19.5 -32t-6.5 -55v-61h152v-71h-152v-427h-92zM609 1q-14 -3 -26.5 -4t-25.5 -1q-50 0 -79 25.5t-29 85.5v623h92v-618q0 -33 12 -45.5t42 -12.5
h14v-53z" />
    <glyph glyph-name="Omega" unicode="&#x3a9;" horiz-adv-x="694" 
d="M41 0v82h137q-25 25 -46.5 57t-37.5 72t-25.5 89t-9.5 108q0 76 17 138t52 105.5t90 67t130 23.5q77 0 131 -24t88.5 -67.5t50.5 -104t16 -132.5q0 -59 -9.5 -108t-26 -89.5t-39 -73.5t-49.5 -61h143v-82h-236v82q27 27 49 58t37.5 69t23.5 85.5t8 107.5q0 72 -12 121.5
t-36 80t-59.5 44t-81.5 13.5t-81.5 -13.5t-59.5 -43.5t-36 -79.5t-12 -121.5q0 -60 8 -107.5t23.5 -86t37.5 -69.5t50 -58v-82h-235z" />
    <glyph glyph-name="pi" unicode="&#x3c0;" horiz-adv-x="621" 
d="M122 0v424h-77v74h520v-74h-87v-285q0 -46 12 -63t51 -17h15.5t16.5 1v-60q-37 -8 -70 -8q-58 0 -87.5 28.5t-29.5 102.5v301h-172v-424h-92z" />
    <glyph glyph-name="uni0394" unicode="&#x394;" horiz-adv-x="619" 
d="M19 0l232 719h116l233 -719h-581zM136 81h340l-169 549z" />
    <glyph glyph-name="uni03BC" unicode="&#x3bc;" horiz-adv-x="557" 
d="M74 -223v721h92v-311q0 -69 25 -96.5t79 -27.5q25 0 47 6.5t38.5 22.5t26 42t9.5 65v299h92v-498h-74l-8 56q-23 -29 -55 -48.5t-86 -19.5q-31 0 -54 7t-40 19v-237h-92z" />
    <glyph glyph-name="zero.alt" unicode="&#xf800;" horiz-adv-x="566" 
d="M172 13q-43 23 -68.5 69.5t-36 115t-10.5 160.5q0 93 11.5 162.5t38 116t70.5 70t109 23.5q64 0 107 -23.5t69 -69.5t36.5 -115.5t10.5 -160.5q0 -93 -11.5 -162.5t-38 -116t-70.5 -69.5t-109 -23t-108 23zM179 133q16 -34 41 -48.5t62 -14.5t62.5 14.5t41.5 48t23 89
t7 137.5t-7 138t-23 90t-41 48.5t-62 14.5t-62.5 -14.5t-41 -48.5t-22.5 -89t-7 -137q0 -83 7 -138.5t22 -89.5z" />
    <glyph glyph-name="one.alt" unicode="&#xf801;" horiz-adv-x="387" 
d="M187 0v632l-165 -36v66l141 46q18 6 37 10t43 4h38v-722h-94z" />
    <glyph glyph-name="two.alt" unicode="&#xf802;" horiz-adv-x="523" 
d="M56 0v125q0 55 10.5 94.5t33 69.5t56 53t80.5 43l25 11q32 14 53.5 27.5t34 28.5t17.5 33.5t5 42.5q0 37 -10 60t-28 36t-43.5 17.5t-56.5 4.5q-40 0 -86 -5t-77 -11v65q37 11 82 22t102 11q47 0 85 -10t65 -33t42 -60t15 -90q0 -44 -10 -75.5t-30 -54.5t-49.5 -41
t-68.5 -35l-25 -11q-38 -17 -63.5 -34.5t-41.5 -39.5t-22.5 -50.5t-6.5 -67.5v-48h318v-78h-406z" />
    <glyph glyph-name="three.alt" unicode="&#xf803;" horiz-adv-x="513" 
d="M31 85q17 -3 38.5 -6t44.5 -5t46 -3t42 -1q39 0 69.5 6t51.5 21t32 40.5t11 65.5q0 34 -8 58.5t-27.5 40.5t-52.5 24t-82 8h-66v64l210 247h-304v74h401v-70l-210 -245q120 -2 175 -50t55 -151q0 -101 -57.5 -157.5t-183.5 -56.5q-52 0 -102 10.5t-83 21.5v64z" />
    <glyph glyph-name="four.alt" unicode="&#xf804;" horiz-adv-x="555" 
d="M43 199v71l311 450h80v-447h80v-74h-80v-199h-87v199h-304zM130 273h217v313z" />
    <glyph glyph-name="five.alt" unicode="&#xf805;" horiz-adv-x="499" 
d="M51 82q37 -6 81.5 -10t77.5 -4q39 0 67 7t46 23.5t27 44t9 68.5q0 34 -7.5 60.5t-26 44.5t-51.5 27t-84 9q-20 0 -54 -1.5t-70 -6.5l25 375h319v-75h-244l-15 -224q19 2 41 3.5t45 1.5q115 0 164 -55t49 -154q0 -53 -12.5 -95t-39.5 -71t-70 -45t-104 -16q-53 0 -96 10
t-77 20v63z" />
    <glyph glyph-name="six.alt" unicode="&#xf806;" horiz-adv-x="537" 
d="M450 643q-27 4 -56.5 6t-55.5 2q-51 0 -85.5 -14t-56 -45t-32.5 -80.5t-14 -119.5q23 22 58 34.5t80 12.5q95 0 146 -56.5t51 -164.5q0 -48 -11.5 -89.5t-36.5 -72t-65.5 -48t-98.5 -17.5q-61 0 -102.5 20.5t-66.5 61.5t-35.5 103t-10.5 145q0 212 65 309.5t196 97.5
q31 0 63.5 -5.5t67.5 -16.5v-63zM181 110q34 -45 96 -45q58 0 88 35t30 124q0 31 -6 57t-20.5 45t-38.5 29.5t-61 10.5q-61 0 -91 -27t-30 -75q0 -108 33 -154z" />
    <glyph glyph-name="seven.alt" unicode="&#xf807;" horiz-adv-x="527" 
d="M146 0l236 639h-339v80h431v-66l-233 -653h-95z" />
    <glyph glyph-name="eight.alt" unicode="&#xf808;" horiz-adv-x="546" 
d="M461 442q-23 -39 -65 -61q48 -23 75 -68.5t27 -111.5q0 -54 -16.5 -93.5t-46 -65.5t-71 -39t-91.5 -13t-91.5 13t-71 39t-46 65.5t-16.5 93.5q0 66 27.5 110t73.5 65q-44 22 -66 64.5t-22 99.5q0 97 56 143.5t157 46.5q100 0 155.5 -46.5t55.5 -143.5q0 -58 -24 -98z
M147 133q12 -27 31.5 -43t43.5 -22.5t50 -6.5q25 0 50 6.5t44 22.5t31 43t12 68q0 33 -7 59t-22.5 44t-41.5 27.5t-65 9.5t-65.5 -9.5t-42 -27.5t-22.5 -44t-7 -59q0 -41 11 -68zM157 471q11 -24 28.5 -37.5t40.5 -18.5t48 -5t48 5.5t40 19.5t27 38.5t10 62.5q0 61 -27.5 92
t-98.5 31t-98.5 -31t-27.5 -92q0 -40 10 -65z" />
    <glyph glyph-name="nine.alt" unicode="&#xf809;" horiz-adv-x="537" 
d="M88 76q29 -4 62 -6t55 -2q51 0 85 13.5t54.5 44t30.5 80t13 121.5q-23 -22 -58 -34.5t-80 -12.5q-95 0 -146 56.5t-51 165.5q0 48 11.5 89.5t36.5 72t65.5 47.5t98.5 17q61 0 102.5 -20.5t66.5 -62t35.5 -104.5t10.5 -147q0 -205 -57.5 -304t-184.5 -99q-38 0 -80 7
t-70 15v63zM170 392q15 -19 40 -29t64 -10q64 0 90 30t26 96q0 81 -33.5 128t-95.5 47q-56 0 -87 -34.5t-31 -119.5q0 -35 6 -62t21 -46z" />
    <glyph glyph-name="zero.sups" unicode="&#xf80a;" 
d="M124 541q19 -26 54 -26t53.5 26t18.5 95q0 70 -18.5 96t-53.5 26t-53.5 -26t-18.5 -96q0 -69 18 -95zM178 453q-75 0 -109 47t-34 136q0 90 34 137t109 47t109 -47t34 -137q0 -89 -34 -136t-109 -47z" />
    <glyph glyph-name="one.sups" unicode="&#xf80b;" 
d="M161 461v286l-88 -16v50l76 22q14 4 27.5 6.5t29.5 2.5h25v-351h-70z" />
    <glyph glyph-name="two.sups" unicode="&#xf80c;" 
d="M64 461v63q0 31 7.5 52.5t21 36.5t32 25.5t41.5 21.5l11 5q29 13 38 23.5t9 28.5q0 25 -14.5 35t-47.5 10q-22 0 -45.5 -1.5t-46.5 -4.5v47q24 6 49.5 11t54.5 5q52 0 85.5 -22.5t33.5 -75.5q0 -22 -6 -38t-17.5 -28t-27.5 -21t-37 -18l-12 -5q-20 -9 -32.5 -16.5
t-19 -18t-8.5 -25t-2 -35.5h161v-55h-228z" />
    <glyph glyph-name="three.sups" unicode="&#xf80d;" 
d="M53 517q10 -2 23.5 -3l27 -2t26 -1.5t20.5 -0.5q38 0 57 10.5t19 42.5q0 28 -16 41t-58 13h-41v41l95 100h-149v54h224v-45l-98 -102q53 -3 81.5 -28t28.5 -74q0 -109 -132 -109q-29 0 -58.5 5t-49.5 11v47z" />
    <glyph glyph-name="four.sups" unicode="&#xf80e;" 
d="M45 546v46l163 220h55v-216h46v-50h-46v-85h-61v85h-157zM107 596h95v127z" />
    <glyph glyph-name="five.sups" unicode="&#xf80f;" 
d="M67 515q24 -4 48.5 -5.5t39.5 -1.5q40 0 56.5 13t16.5 44q0 27 -16.5 42t-65.5 15q-16 0 -36 -1t-35 -2l13 193h183v-54h-132l-5 -89q7 1 17.5 1.5t21.5 0.5q61 0 89.5 -26t28.5 -79q0 -112 -124 -112q-26 0 -53 4.5t-47 9.5v47z" />
    <glyph glyph-name="six.sups" unicode="&#xf810;" 
d="M279 762q-20 2 -37 3t-27 1q-50 0 -70.5 -25t-23.5 -87q13 11 31.5 17t42.5 6q51 0 78.5 -29t27.5 -81q0 -50 -27 -82t-89 -32q-72 0 -99.5 46t-27.5 124q0 101 37 148t108 47q34 0 76 -11v-45zM124 573q0 -36 16.5 -52.5t45.5 -16.5q24 0 38.5 14.5t14.5 49.5
q0 28 -12.5 44t-47.5 16q-30 0 -42.5 -13t-12.5 -42z" />
    <glyph glyph-name="seven.sups" unicode="&#xf811;" 
d="M106 461l117 295h-168v56h241v-42l-120 -309h-70z" />
    <glyph glyph-name="eight.sups" unicode="&#xf812;" 
d="M287 676q-11 -18 -33 -31q50 -23 50 -86q0 -54 -36 -80t-91 -26q-56 0 -90.5 26t-34.5 80q0 61 50 84q-44 27 -44 80q0 49 32.5 73t88.5 24q54 0 86.5 -24t32.5 -73q0 -28 -11 -47zM118 560q0 -32 18 -44t41 -12q25 0 43 12t18 44q0 26 -14.5 41t-46.5 15q-31 0 -45 -15
t-14 -41zM123 717q0 -31 16 -42t39 -11q24 0 39.5 11.5t15.5 41.5q0 25 -12.5 38.5t-43.5 13.5q-30 0 -42 -13.5t-12 -38.5z" />
    <glyph glyph-name="nine.sups" unicode="&#xf813;" 
d="M78 513q20 -2 37 -3t27 -1q25 0 42 5.5t28 18t16.5 33t7.5 51.5q-13 -11 -31.5 -17t-42.5 -6q-51 0 -78.5 29t-27.5 81q0 50 27 82t89 32q72 0 99.5 -46t27.5 -124q0 -101 -37 -148t-108 -47q-34 0 -76 11v49zM130 659q13 -16 48 -16q30 0 42.5 13t12.5 42
q0 36 -16.5 52.5t-45.5 16.5q-24 0 -38.5 -14.5t-14.5 -49.5q0 -28 12 -44z" />
    <glyph glyph-name="zero.sinf" unicode="&#xf814;" 
d="M124 -9q19 -26 54 -26t53.5 26t18.5 95q0 70 -18.5 96t-53.5 26t-53.5 -26t-18.5 -96q0 -69 18 -95zM178 -97q-75 0 -109 47t-34 136q0 90 34 137t109 47t109 -47t34 -137q0 -89 -34 -136t-109 -47z" />
    <glyph glyph-name="one.sinf" unicode="&#xf815;" 
d="M161 -89v286l-88 -16v50l76 22q14 4 27.5 6.5t29.5 2.5h25v-351h-70z" />
    <glyph glyph-name="two.sinf" unicode="&#xf816;" 
d="M64 -89v63q0 31 7.5 52.5t21 36.5t32 25.5t41.5 21.5l11 5q29 13 38 23.5t9 28.5q0 25 -14.5 35t-47.5 10q-22 0 -45.5 -1.5t-46.5 -4.5v47q24 6 49.5 11t54.5 5q52 0 85.5 -22.5t33.5 -75.5q0 -22 -6 -38t-17.5 -28t-27.5 -21t-37 -18l-12 -5q-20 -9 -32.5 -16.5
t-19 -18t-8.5 -25t-2 -35.5h161v-55h-228z" />
    <glyph glyph-name="three.sinf" unicode="&#xf817;" 
d="M53 -33q10 -2 23.5 -3l27 -2t26 -1.5t20.5 -0.5q38 0 57 10.5t19 42.5q0 28 -16 41t-58 13h-41v41l95 100h-149v54h224v-45l-98 -102q53 -3 81.5 -28t28.5 -74q0 -109 -132 -109q-29 0 -58.5 5t-49.5 11v47z" />
    <glyph glyph-name="four.sinf" unicode="&#xf818;" 
d="M45 -4v46l163 220h55v-216h46v-50h-46v-85h-61v85h-157zM107 46h95v127z" />
    <glyph glyph-name="five.sinf" unicode="&#xf819;" 
d="M67 -35q24 -4 48.5 -5.5t39.5 -1.5q40 0 56.5 13t16.5 44q0 27 -16.5 42t-65.5 15q-16 0 -36 -1t-35 -2l13 193h183v-54h-132l-5 -89q7 1 17.5 1.5t21.5 0.5q61 0 89.5 -26t28.5 -79q0 -112 -124 -112q-26 0 -53 4.5t-47 9.5v47z" />
    <glyph glyph-name="six.sinf" unicode="&#xf81a;" 
d="M279 212q-20 2 -37 3t-27 1q-50 0 -70.5 -25t-23.5 -87q13 11 31.5 17t42.5 6q51 0 78.5 -29t27.5 -81q0 -50 -27 -82t-89 -32q-72 0 -99.5 46t-27.5 124q0 101 37 148t108 47q34 0 76 -11v-45zM124 23q0 -36 16.5 -52.5t45.5 -16.5q24 0 38.5 14.5t14.5 49.5
q0 28 -12.5 44t-47.5 16q-30 0 -42.5 -13t-12.5 -42z" />
    <glyph glyph-name="seven.sinf" unicode="&#xf81b;" 
d="M106 -89l117 295h-168v56h241v-42l-120 -309h-70z" />
    <glyph glyph-name="eight.sinf" unicode="&#xf81c;" 
d="M287 126q-11 -18 -33 -31q50 -23 50 -86q0 -54 -36 -80t-91 -26q-56 0 -90.5 26t-34.5 80q0 61 50 84q-44 27 -44 80q0 49 32.5 73t88.5 24q54 0 86.5 -24t32.5 -73q0 -28 -11 -47zM118 10q0 -32 18 -44t41 -12q25 0 43 12t18 44q0 26 -14.5 41t-46.5 15q-31 0 -45 -15
t-14 -41zM123 167q0 -31 16 -42t39 -11q24 0 39.5 11.5t15.5 41.5q0 25 -12.5 38.5t-43.5 13.5q-30 0 -42 -13.5t-12 -38.5z" />
    <glyph glyph-name="nine.sinf" unicode="&#xf81d;" 
d="M78 -37q20 -2 37 -3t27 -1q25 0 42 5.5t28 18t16.5 33t7.5 51.5q-13 -11 -31.5 -17t-42.5 -6q-51 0 -78.5 29t-27.5 81q0 50 27 82t89 32q72 0 99.5 -46t27.5 -124q0 -101 -37 -148t-108 -47q-34 0 -76 11v49zM130 109q13 -16 48 -16q30 0 42.5 13t12.5 42
q0 36 -16.5 52.5t-45.5 16.5q-24 0 -38.5 -14.5t-14.5 -49.5q0 -28 12 -44z" />
    <glyph glyph-name="hungarumlaut.cap" horiz-adv-x="500" 
d="M91 781l-31 39l103 95q16 14 30.5 26.5t28.5 12.5t24.5 -12.5t10.5 -26.5q0 -13 -11.5 -23t-39.5 -30zM268 781l-31 39l103 95q16 14 30.5 26.5t28.5 12.5t24.5 -12.5t10.5 -26.5q0 -13 -11.5 -23t-39.5 -30z" />
    <glyph glyph-name="cedilla.cap" horiz-adv-x="500" 
d="M150 -107q9 -1 14 -1h10q26 0 41.5 5.5t23 16.5t9.5 27.5t2 39.5v28h70v-36q0 -73 -23.5 -107.5t-85.5 -34.5q-14 0 -29.5 1.5t-31.5 5.5v55z" />
    <glyph glyph-name="tilde.cap" horiz-adv-x="500" 
d="M76 838q20 32 47 52.5t60 20.5q22 0 39.5 -6.5t33 -14.5t30.5 -14.5t32 -6.5q20 0 33 9.5t28 28.5l46 -36q-20 -32 -47 -52.5t-60 -20.5q-22 0 -39.5 6.5t-33 14.5t-30.5 14.5t-32 6.5q-20 0 -33 -9.5t-28 -28.5z" />
    <glyph glyph-name="ogonek.cap" horiz-adv-x="500" 
d="M324 -192q-12 -3 -24.5 -4t-23.5 -1q-108 0 -108 77q0 36 20 65t55 55h81q-38 -27 -59 -52t-21 -53q0 -38 46 -38q8 0 17 0.5t17 1.5v-51z" />
    <glyph glyph-name="ring.cap" horiz-adv-x="500" 
d="M174 797q-28 28 -28 77t28.5 76.5t75.5 27.5t75.5 -27.5t28.5 -76.5t-28.5 -76.5t-75.5 -27.5t-76 27zM206 874q0 -22 12 -34t32 -12t32 12t12 34t-12 34t-32 12t-32 -12t-12 -34z" />
    <glyph glyph-name="caron.cap" horiz-adv-x="500" 
d="M88 899l32 46l130 -80l130 80l32 -46l-108 -87q-17 -14 -28.5 -18.5t-25.5 -4.5t-25.5 4.5t-28.5 18.5z" />
    <glyph glyph-name="macron.cap" horiz-adv-x="500" 
d="M109 811v71h281v-71h-281z" />
    <glyph glyph-name="dieresis.cap" horiz-adv-x="500" 
d="M160 797q-55 0 -55 55q0 27 14 42t41 15q28 0 42 -15t14 -41q0 -56 -56 -56zM341 797q-56 0 -56 55q0 27 14 42t42 15q27 0 41 -15t14 -41q0 -56 -55 -56z" />
    <glyph glyph-name="dotaccent.cap" horiz-adv-x="500" 
d="M250 794q-30 0 -45 15.5t-15 44.5t15 44.5t45 15.5t45 -15.5t15 -44.5t-15 -44.5t-45 -15.5z" />
    <glyph glyph-name="circumflex.cap" horiz-adv-x="500" 
d="M120 783l-32 46l108 87q17 14 28.5 18.5t25.5 4.5t25.5 -4.5t28.5 -18.5l108 -87l-32 -46l-130 80z" />
    <glyph glyph-name="acute.cap" horiz-adv-x="500" 
d="M152 785l-21 52l155 73q24 11 35.5 16.5t21.5 5.5q11 0 21 -6.5t16 -21.5q4 -11 4 -20q0 -21 -19 -31t-50 -19z" />
    <glyph glyph-name="grave.cap" horiz-adv-x="500" 
d="M186 834q-31 9 -50 19t-19 31q0 9 4 20q6 15 16 21.5t21 6.5q10 0 21.5 -5.5t35.5 -16.5l155 -73l-21 -52z" />
    <glyph glyph-name="breve.cap" horiz-adv-x="500" 
d="M168 917q6 -40 26.5 -55.5t55.5 -15.5t55.5 15.5t26.5 55.5h65q-1 -63 -39 -100t-108 -37t-108 37t-39 100h65z" />
    <glyph glyph-name="commaaccent.cap" horiz-adv-x="500" 
d="M191 -237l23 137q4 24 14 38t36 14q20 0 29.5 -10t9.5 -27q0 -8 -2 -16t-5 -17l-42 -119h-63z" />
    <glyph glyph-name="caron.alt" horiz-adv-x="410" 
d="M148 517l31 169q5 24 15 38t34 14q20 0 29.5 -10t9.5 -27q0 -7 -2 -15t-5 -17l-53 -152h-59z" />
    <glyph glyph-name="commaaccent" horiz-adv-x="500" 
d="M192 -226l24 133q4 23 13 36t34 13q20 0 28.5 -9.5t8.5 -25.5q0 -14 -6 -32l-41 -115h-61z" />
    <glyph glyph-name="revcommaaccent" horiz-adv-x="500" 
d="M280 626q-4 -20 -12 -34.5t-33 -14.5q-20 0 -29 10t-9 24q0 8 2 15.5t5 15.5l40 112h58z" />
    <glyph glyph-name="highrevcomma" horiz-adv-x="500" 
d="M280 626q-4 -20 -12 -34.5t-33 -14.5q-20 0 -29 10t-9 24q0 8 2 15.5t5 15.5l40 112h58z" />
    <glyph glyph-name="acute.asc" horiz-adv-x="500" 
d="M143 780l-20 50l155 73q17 8 32 15t25 7q11 0 21 -6.5t15 -21.5q4 -9 4 -18q0 -22 -19 -31.5t-50 -18.5z" />
    <glyph glyph-name="circumflex.asc" horiz-adv-x="500" 
d="M125 782l-29 42l102 81q16 13 27 17.5t25 4.5t25 -4.5t27 -17.5l102 -81l-29 -42l-125 73z" />
    <glyph glyph-name="caron.alt.short" horiz-adv-x="429" 
d="M177 564l25 137q5 23 14.5 36.5t33.5 13.5q37 0 37 -32q0 -7 -2 -15t-5 -17l-45 -123h-58z" />
    <glyph glyph-name="Parenleft" horiz-adv-x="316" 
d="M202 -71q-62 81 -96.5 190t-34.5 246t34.5 246t96.5 190h97q-33 -50 -57.5 -98t-40 -99t-23.5 -109.5t-8 -129.5t8 -129.5t23.5 -109.5t40 -99t57.5 -98h-97z" />
    <glyph glyph-name="Parenright" horiz-adv-x="316" 
d="M18 -71q33 50 57.5 98t40 99t23.5 109.5t8 129.5t-8 129.5t-23.5 109.5t-40 99t-57.5 98h97q62 -81 96.5 -190t34.5 -246t-34.5 -246t-96.5 -190h-97z" />
    <glyph glyph-name="Hyphen" horiz-adv-x="434" 
d="M58 327v76h318v-76h-318z" />
    <glyph glyph-name="Slash" horiz-adv-x="432" 
d="M17 -47l303 824h95l-303 -824h-95z" />
    <glyph glyph-name="At" horiz-adv-x="909" 
d="M655 -30q-34 -9 -77.5 -17t-106.5 -8q-107 0 -184 27.5t-126.5 80t-73 128.5t-23.5 174q0 97 23 176t72.5 135t126.5 86.5t185 30.5q105 0 176.5 -28.5t116 -81t64 -125.5t19.5 -163q0 -55 -7.5 -101.5t-26.5 -81t-50 -54t-79 -19.5q-39 0 -71.5 15.5t-45.5 55.5
q-7 -11 -18 -22.5t-26.5 -21t-37.5 -15.5t-50 -6q-86 0 -129.5 57t-43.5 165q0 112 45 165.5t129 53.5q43 0 73 -14.5t52 -42.5l5 47h65v-307q0 -37 13.5 -53.5t43.5 -16.5q20 0 35.5 8.5t26 29.5t15.5 58t5 94q0 73 -11 134.5t-44 106.5t-92 70.5t-155 25.5
q-173 0 -250 -88t-77 -271q0 -91 19 -156t60.5 -107t108 -62t161.5 -20q50 0 94 4t71 7v-53zM552 385q0 33 -8.5 56t-23.5 37t-35 20t-43 6q-50 0 -73.5 -31.5t-23.5 -112.5q0 -45 6.5 -74t19.5 -46t32 -24t44 -7q46 0 75.5 25t29.5 90v61z" />
    <glyph glyph-name="Bracketleft" horiz-adv-x="331" 
d="M86 -71v872h218v-78h-127v-716h127v-78h-218z" />
    <glyph glyph-name="Backslash" horiz-adv-x="432" 
d="M320 -47l-303 824h95l303 -824h-95z" />
    <glyph glyph-name="Bracketright" horiz-adv-x="331" 
d="M27 -71v78h127v716h-127v78h218v-872h-218z" />
    <glyph glyph-name="Braceleft" horiz-adv-x="343" 
d="M330 -62q-19 -6 -40 -9.5t-46 -3.5q-30 0 -56.5 9t-45.5 27.5t-30 47.5t-11 69v165q0 15 -1.5 29t-9.5 26t-24 20.5t-46 11.5v70q30 3 46 11.5t24 20.5t9.5 26t1.5 29v165q0 79 41 116t102 37q25 0 46 -3.5t40 -9.5v-65q-13 2 -25.5 2h-28.5q-43 0 -64.5 -17t-21.5 -71
v-171q0 -11 -1.5 -26.5t-8.5 -31t-21.5 -28.5t-39.5 -19q25 -6 39.5 -19t21.5 -28.5t8.5 -31t1.5 -26.5v-171q0 -54 21.5 -71t64.5 -17h28.5t25.5 2v-65z" />
    <glyph glyph-name="Braceright" horiz-adv-x="343" 
d="M13 3q13 -2 25.5 -2h28.5q43 0 64.5 17t21.5 71v171q0 11 1.5 26.5t8.5 31t21.5 28.5t39.5 19q-25 6 -39.5 19t-21.5 28.5t-8.5 31t-1.5 26.5v171q0 54 -21.5 71t-64.5 17h-28.5t-25.5 -2v65q19 6 40 9.5t46 3.5q61 0 102 -37t41 -116v-165q0 -15 1.5 -29t9.5 -26
t24 -20.5t46 -11.5v-70q-30 -3 -46 -11.5t-24 -20.5t-9.5 -26t-1.5 -29v-165q0 -40 -11 -69t-30 -47.5t-45.5 -27.5t-56.5 -9q-25 0 -46 3.5t-40 9.5v65z" />
    <glyph glyph-name="Guilsinglleft" horiz-adv-x="313" 
d="M169 185l-119 180l119 180h89l-119 -180l119 -180h-89z" />
    <glyph glyph-name="Bullet" horiz-adv-x="289" 
d="M144 292q-35 0 -52.5 19.5t-17.5 54.5t17.5 54.5t52.5 19.5q36 0 53.5 -19.5t17.5 -54.5t-17.5 -54.5t-53.5 -19.5z" />
    <glyph glyph-name="Endash" horiz-adv-x="500" 
d="M0 328v74h500v-74h-500z" />
    <glyph glyph-name="Emdash" horiz-adv-x="1000" 
d="M0 328v74h1000v-74h-1000z" />
    <glyph glyph-name="Guilsinglright" horiz-adv-x="313" 
d="M55 185l119 180l-119 180h89l119 -180l-119 -180h-89z" />
    <glyph glyph-name="Exclamdown" horiz-adv-x="260" 
d="M80 -2l7 538h86l7 -538h-100zM130 614q-29 0 -43 16t-14 44q0 27 14 43t43 16t43 -16t14 -43q0 -28 -14 -44t-43 -16z" />
    <glyph glyph-name="Guillemotleft" horiz-adv-x="493" 
d="M169 185l-119 180l119 180h89l-119 -180l119 -180h-89zM349 185l-119 180l119 180h89l-119 -180l119 -180h-89z" />
    <glyph glyph-name="Guillemotright" horiz-adv-x="494" 
d="M55 185l119 180l-119 180h89l119 -180l-119 -180h-89zM236 185l119 180l-119 180h89l119 -180l-119 -180h-89z" />
    <glyph glyph-name="Questiondown" horiz-adv-x="461" 
d="M435 20q-38 -11 -81 -20t-97 -9q-105 0 -161 44t-56 143q0 37 7.5 63.5t21.5 46.5t34 36t46 32l14 9q18 12 30 22.5t19.5 24t10.5 32t3 45.5v51h83v-44q0 -47 -7 -77t-20 -50.5t-30 -33.5t-36 -25l-13 -8q-19 -12 -32 -21.5t-21 -21t-11.5 -26.5t-3.5 -38
q0 -36 8.5 -59.5t26.5 -37.5t46 -20t67 -6q40 0 80 4.5t72 9.5v-66zM267 618q-29 0 -43.5 16t-14.5 44t14.5 43.5t43.5 15.5t43 -15.5t14 -42.5q0 -29 -14 -45t-43 -16z" />
    </font>
</defs>
</svg>
